<?xml version="1.0" encoding="UTF-8" standalone="no"?>
<!-- Created with Inkscape (http://www.inkscape.org/) -->

<svg
   xmlns:dc="http://purl.org/dc/elements/1.1/"
   xmlns:cc="http://creativecommons.org/ns#"
   xmlns:rdf="http://www.w3.org/1999/02/22-rdf-syntax-ns#"
   xmlns:svg="http://www.w3.org/2000/svg"
   xmlns="http://www.w3.org/2000/svg"
   xmlns:sodipodi="http://sodipodi.sourceforge.net/DTD/sodipodi-0.dtd"
   xmlns:inkscape="http://www.inkscape.org/namespaces/inkscape"
   width="16"
   height="16"
   viewBox="0 0 16 16"
   id="svg4481"
   version="1.1"
   inkscape:version="0.91 r13725"
   sodipodi:docname="logo-favicon.svg"
   inkscape:export-filename="Z:\github\Website\assets\images\favicon.png"
   inkscape:export-xdpi="89.969002"
   inkscape:export-ydpi="89.969002">
  <defs
     id="defs4483" />
  <sodipodi:namedview
     id="base"
     pagecolor="#ffffff"
     bordercolor="#666666"
     borderopacity="1.0"
     inkscape:pageopacity="0.0"
     inkscape:pageshadow="2"
     inkscape:zoom="44.8"
     inkscape:cx="9.819441"
     inkscape:cy="9.0827743"
     inkscape:document-units="px"
     inkscape:current-layer="layer1"
     showgrid="false"
     fit-margin-top="0"
     fit-margin-left="0"
     fit-margin-right="0"
     fit-margin-bottom="0"
     inkscape:window-width="1920"
     inkscape:window-height="1017"
     inkscape:window-x="-8"
     inkscape:window-y="-8"
     inkscape:window-maximized="1"
     units="px" />
  <metadata
     id="metadata4486">
    <rdf:RDF>
      <cc:Work
         rdf:about="">
        <dc:format>image/svg+xml</dc:format>
        <dc:type
           rdf:resource="http://purl.org/dc/dcmitype/StillImage" />
        <dc:title></dc:title>
      </cc:Work>
    </rdf:RDF>
  </metadata>
  <g
     inkscape:label="Layer 1"
     inkscape:groupmode="layer"
     id="layer1"
     transform="translate(1048.8016,-224.07875)">
    <path
       style="opacity:1;fill:#00acc1;fill-opacity:1;stroke:none;stroke-width:60;stroke-linecap:round;stroke-linejoin:round;stroke-miterlimit:4;stroke-dasharray:none;stroke-opacity:1"
       d="m -1041.4433,224.13956 a 7.9539634,7.9539634 0 0 0 -7.3122,7.92445 7.9539634,7.9539634 0 0 0 7.954,7.95392 7.9539634,7.9539634 0 0 0 2.966,-0.5781 l 0,-7.49489 -1.3255,0 0,4.63674 a 1.1412768,1.1412768 0 0 1 -1.9461,0.80896 l -5.8067,-5.77797 a 1.1412768,1.1412768 0 0 1 0.8049,-1.95006 l 4.6656,0 0,-5.52305 z m 2.2823,0.14448 0,5.37857 2.4667,0 a 1.1412768,1.1412768 0 0 1 1.1412,1.14116 l 0,7.22359 a 7.9539634,7.9539634 0 0 0 2.7054,-5.96335 7.9539634,7.9539634 0 0 0 -6.3133,-7.77997 z m -4.1832,7.6609 1.9009,1.89137 0,-1.89137 -1.9009,0 z"
       id="path6718"
       inkscape:connector-curvature="0" />
    <path
       style="opacity:1;fill:#00717f;fill-opacity:1;stroke:none;stroke-width:60;stroke-linecap:round;stroke-linejoin:round;stroke-miterlimit:4;stroke-dasharray:none;stroke-opacity:1"
       d="M 7.5585938 0.26171875 A 7.9539634 7.9539634 0 0 0 7.3574219 0.2890625 L 7.3574219 5.5839844 L 2.6933594 5.5839844 A 1.1412768 1.1412768 0 0 0 1.8886719 7.5332031 L 2.0605469 7.7050781 A 1.1412768 1.1412768 0 0 1 2.8925781 5.7851562 L 7.5585938 5.7851562 L 7.5585938 0.26171875 z M 13.658203 2.4082031 A 7.9539634 7.9539634 0 0 1 15.953125 7.984375 A 7.9539634 7.9539634 0 0 1 13.449219 13.753906 L 13.449219 14.150391 A 7.9539634 7.9539634 0 0 0 16.154297 8.1855469 A 7.9539634 7.9539634 0 0 0 13.658203 2.4082031 z M 9.8417969 5.5839844 L 9.8417969 5.7851562 L 12.308594 5.7851562 A 1.1412768 1.1412768 0 0 1 13.011719 6.0292969 A 1.1412768 1.1412768 0 0 0 12.107422 5.5839844 L 9.8417969 5.5839844 z M 7.3574219 8.0664062 L 7.3574219 9.7578125 L 7.5585938 9.9589844 L 7.5585938 8.0664062 L 7.3574219 8.0664062 z M 10.966797 8.0664062 L 10.966797 15.361328 A 7.9539634 7.9539634 0 0 1 8 15.939453 A 7.9539634 7.9539634 0 0 1 2.5332031 13.755859 A 7.9539634 7.9539634 0 0 0 8.2011719 16.140625 A 7.9539634 7.9539634 0 0 0 11.166016 15.5625 L 11.166016 8.0664062 L 10.966797 8.0664062 z "
       transform="translate(-1048.8016,224.07875)"
       id="path4688" />
  </g>
</svg>
