<?xml version="1.0" encoding="UTF-8" standalone="no"?>
<!-- Created with Inkscape (http://www.inkscape.org/) -->

<svg
   xmlns:dc="http://purl.org/dc/elements/1.1/"
   xmlns:cc="http://creativecommons.org/ns#"
   xmlns:rdf="http://www.w3.org/1999/02/22-rdf-syntax-ns#"
   xmlns:svg="http://www.w3.org/2000/svg"
   xmlns="http://www.w3.org/2000/svg"
   xmlns:sodipodi="http://sodipodi.sourceforge.net/DTD/sodipodi-0.dtd"
   xmlns:inkscape="http://www.inkscape.org/namespaces/inkscape"
   width="256mm"
   height="256mm"
   viewBox="0 0 907.08661 907.0866"
   id="svg4481"
   version="1.1"
   inkscape:version="0.91 r13725"
   sodipodi:docname="logo.svg">
  <defs
     id="defs4483" />
  <sodipodi:namedview
     id="base"
     pagecolor="#ffffff"
     bordercolor="#666666"
     borderopacity="1.0"
     inkscape:pageopacity="0.0"
     inkscape:pageshadow="2"
     inkscape:zoom="0.7"
     inkscape:cx="471.2132"
     inkscape:cy="566.7773"
     inkscape:document-units="px"
     inkscape:current-layer="layer1"
     showgrid="false"
     fit-margin-top="0"
     fit-margin-left="0"
     fit-margin-right="0"
     fit-margin-bottom="0"
     inkscape:window-width="1920"
     inkscape:window-height="1017"
     inkscape:window-x="-8"
     inkscape:window-y="-8"
     inkscape:window-maximized="1" />
  <metadata
     id="metadata4486">
    <rdf:RDF>
      <cc:Work
         rdf:about="">
        <dc:format>image/svg+xml</dc:format>
        <dc:type
           rdf:resource="http://purl.org/dc/dcmitype/StillImage" />
        <dc:title></dc:title>
      </cc:Work>
    </rdf:RDF>
  </metadata>
  <g
     inkscape:label="Layer 1"
     inkscape:groupmode="layer"
     id="layer1"
     transform="translate(1048.8016,667.00785)">
    <path
       style="opacity:1;fill:#000000;fill-opacity:1;stroke:none;stroke-width:60;stroke-linecap:round;stroke-linejoin:round;stroke-miterlimit:4;stroke-dasharray:none;stroke-opacity:1"
       d="m -631.84448,-666.06741 a 453.44516,453.44516 0 0 0 -416.85842,451.76266 453.44516,453.44516 0 0 0 453.44618,453.44307 453.44516,453.44516 0 0 0 169.09215,-32.95699 l 0,-427.27436 -75.56748,0 0,264.335238 A 65.062712,65.062712 0 0 1 -612.67388,89.35974 l -331.03694,-329.39471 a 65.062712,65.062712 0 0 1 45.8887,-111.17047 l 265.97764,0 0,-314.86197 z m 130.11243,8.23694 0,306.62503 140.62368,0 a 65.062712,65.062712 0 0 1 65.05621,65.0562 l 0,411.80757 a 453.44516,453.44516 0 0 0 154.23848,-339.96308 453.44516,453.44516 0 0 0 -359.91837,-443.52572 z m -238.47808,436.73744 108.36565,107.82545 0,-107.82545 -108.36565,0 z"
       id="path6718"
       inkscape:connector-curvature="0" />
  </g>
</svg>
