<?xml version="1.0" encoding="UTF-8" standalone="no"?>
<!-- Created with Inkscape (http://www.inkscape.org/) -->

<svg
   xmlns:dc="http://purl.org/dc/elements/1.1/"
   xmlns:cc="http://creativecommons.org/ns#"
   xmlns:rdf="http://www.w3.org/1999/02/22-rdf-syntax-ns#"
   xmlns:svg="http://www.w3.org/2000/svg"
   xmlns="http://www.w3.org/2000/svg"
   xmlns:sodipodi="http://sodipodi.sourceforge.net/DTD/sodipodi-0.dtd"
   xmlns:inkscape="http://www.inkscape.org/namespaces/inkscape"
   width="50"
   height="50"
   viewBox="0 0 49.999998 49.999998"
   id="svg2"
   version="1.1"
   inkscape:version="0.91 r"
   sodipodi:docname="page-bg.svg">
  <defs
     id="defs4" />
  <sodipodi:namedview
     id="base"
     pagecolor="#ffffff"
     bordercolor="#666666"
     borderopacity="1.0"
     inkscape:pageopacity="0.0"
     inkscape:pageshadow="2"
     inkscape:zoom="11.526089"
     inkscape:cx="18.996786"
     inkscape:cy="31.242178"
     inkscape:document-units="px"
     inkscape:current-layer="layer2"
     showgrid="false"
     fit-margin-top="0"
     fit-margin-left="0"
     fit-margin-right="0"
     fit-margin-bottom="0"
     showborder="true"
     showguides="true"
     inkscape:guide-bbox="true"
     units="px"
     inkscape:showpageshadow="false"
     inkscape:window-width="1366"
     inkscape:window-height="716"
     inkscape:window-x="0"
     inkscape:window-y="0"
     inkscape:window-maximized="1">
    <sodipodi:guide
       position="3.9536238e-08,541.82242"
       orientation="1,0"
       id="guide4345"
       inkscape:label=""
       inkscape:color="rgb(0,0,255)" />
    <sodipodi:guide
       position="-10.5,479.90654"
       orientation="1,0"
       id="guide4347"
       inkscape:label=""
       inkscape:color="rgb(0,0,255)" />
    <sodipodi:guide
       position="-49.999998,88.971966"
       orientation="1,0"
       id="guide4349"
       inkscape:label=""
       inkscape:color="rgb(0,0,255)" />
    <sodipodi:guide
       position="-52.523363,50.000004"
       orientation="0,1"
       id="guide4351"
       inkscape:label=""
       inkscape:color="rgb(0,0,255)" />
    <sodipodi:guide
       position="-51.962615,100"
       orientation="0,1"
       id="guide4353"
       inkscape:label=""
       inkscape:color="rgb(0,0,255)" />
    <sodipodi:guide
       position="-53.08411,90.000003"
       orientation="0,1"
       id="guide4355"
       inkscape:label=""
       inkscape:color="rgb(0,0,255)" />
  </sodipodi:namedview>
  <metadata
     id="metadata7">
    <rdf:RDF>
      <cc:Work
         rdf:about="">
        <dc:format>image/svg+xml</dc:format>
        <dc:type
           rdf:resource="http://purl.org/dc/dcmitype/StillImage" />
        <dc:title></dc:title>
      </cc:Work>
    </rdf:RDF>
  </metadata>
  <g
     inkscape:label="Layer 1"
     inkscape:groupmode="layer"
     id="layer1"
     transform="translate(-103.21428,-907.71935)" />
  <g
     inkscape:groupmode="layer"
     id="layer2"
     inkscape:label="Grid"
     transform="translate(-49.999994,-50.000002)">
    <g
       id="g4153">
      <path
         inkscape:connector-curvature="0"
         id="path4361"
         d="m 59.0039,49.999994 0,9.00586 -9.003906,0 0,0.990234 9.003906,0 0,9.009766 -9.003906,0 0,0.990234 9.003906,0 0,9.009766 -9.003906,0 0,0.990234 9.003906,0 0,9.009766 -9.003906,0 0,0.990234 9.003906,0 0,9.033203 0.990234,0 0,-9.033203 9.009766,0 0,9.033203 0.990234,0 0,-9.033203 9.009766,0 0,9.033203 0.990234,0 0,-9.033203 9.009766,0 0,9.033203 0.990234,0 0,-9.033203 9.019532,0 0,-0.990234 -9.019532,0 0,-9.009766 9.019532,0 0,-0.990234 -9.019532,0 0,-9.009766 9.019532,0 0,-0.990234 -9.019532,0 0,-9.009766 9.019532,0 0,-0.990234 -9.019532,0 0,-9.00586 -0.990234,0 0,9.00586 -9.009766,0 0,-9.00586 -0.990234,0 0,9.00586 -9.009766,0 0,-9.00586 -0.990234,0 0,9.00586 -9.009766,0 0,-9.00586 -0.990234,0 z m 0.990234,9.996094 9.009766,0 0,9.009766 -9.009766,0 0,-9.009766 z m 10,0 9.009766,0 0,9.009766 -9.009766,0 0,-9.009766 z m 10,0 9.009766,0 0,9.009766 -9.009766,0 0,-9.009766 z m -20,10 9.009766,0 0,9.009766 -9.009766,0 0,-9.009766 z m 10,0 9.009766,0 0,9.009766 -9.009766,0 0,-9.009766 z m 10,0 9.009766,0 0,9.009766 -9.009766,0 0,-9.009766 z m -20,10 9.009766,0 0,9.009766 -9.009766,0 0,-9.009766 z m 10,0 9.009766,0 0,9.009766 -9.009766,0 0,-9.009766 z m 10,0 9.009766,0 0,9.009766 -9.009766,0 0,-9.009766 z"
         style="color:#000000;font-style:normal;font-variant:normal;font-weight:normal;font-stretch:normal;font-size:medium;line-height:normal;font-family:sans-serif;text-indent:0;text-align:start;text-decoration:none;text-decoration-line:none;text-decoration-style:solid;text-decoration-color:#000000;letter-spacing:normal;word-spacing:normal;text-transform:none;direction:ltr;block-progression:tb;writing-mode:lr-tb;baseline-shift:baseline;text-anchor:start;white-space:normal;clip-rule:nonzero;display:inline;overflow:visible;visibility:visible;opacity:1;isolation:auto;mix-blend-mode:normal;color-interpolation:sRGB;color-interpolation-filters:linearRGB;solid-color:#000000;solid-opacity:1;fill:#f0f0f0;fill-opacity:0.37012987;fill-rule:evenodd;stroke:none;stroke-width:0.99023199px;stroke-linecap:butt;stroke-linejoin:miter;stroke-miterlimit:4;stroke-dasharray:none;stroke-dashoffset:0;stroke-opacity:1;color-rendering:auto;image-rendering:auto;shape-rendering:auto;text-rendering:auto;enable-background:accumulate" />
      <path
         inkscape:connector-curvature="0"
         id="path4359"
         d="m 98.999994,49.999994 0,49 -49,0 0,1 49,0 1,0 0,-1 0,-49 -1,0 z"
         style="color:#000000;font-style:normal;font-variant:normal;font-weight:normal;font-stretch:normal;font-size:medium;line-height:normal;font-family:sans-serif;text-indent:0;text-align:start;text-decoration:none;text-decoration-line:none;text-decoration-style:solid;text-decoration-color:#000000;letter-spacing:normal;word-spacing:normal;text-transform:none;direction:ltr;block-progression:tb;writing-mode:lr-tb;baseline-shift:baseline;text-anchor:start;white-space:normal;clip-rule:nonzero;display:inline;overflow:visible;visibility:visible;opacity:1;isolation:auto;mix-blend-mode:normal;color-interpolation:sRGB;color-interpolation-filters:linearRGB;solid-color:#000000;solid-opacity:1;fill:#ffffff;fill-opacity:0.53246753;fill-rule:evenodd;stroke:none;stroke-width:1px;stroke-linecap:butt;stroke-linejoin:miter;stroke-miterlimit:4;stroke-dasharray:none;stroke-dashoffset:0;stroke-opacity:1;color-rendering:auto;image-rendering:auto;shape-rendering:auto;text-rendering:auto;enable-background:accumulate" />
    </g>
  </g>
</svg>
