<?xml version="1.0" encoding="UTF-8" standalone="no"?>
<!-- Created with Inkscape (http://www.inkscape.org/) -->

<svg
   xmlns:dc="http://purl.org/dc/elements/1.1/"
   xmlns:cc="http://creativecommons.org/ns#"
   xmlns:rdf="http://www.w3.org/1999/02/22-rdf-syntax-ns#"
   xmlns:svg="http://www.w3.org/2000/svg"
   xmlns="http://www.w3.org/2000/svg"
   xmlns:xlink="http://www.w3.org/1999/xlink"
   xmlns:sodipodi="http://sodipodi.sourceforge.net/DTD/sodipodi-0.dtd"
   xmlns:inkscape="http://www.inkscape.org/namespaces/inkscape"
   inkscape:version="0.91 r13725"
   version="1.1"
   id="svg2"
   viewBox="0 0 1680 1080"
   height="1080"
   width="1680"
   sodipodi:docname="05-site-design-portfolio-page.svg"
   inkscape:export-filename="/home/manjit/github/manjitkarve/mockups/site-design.png"
   inkscape:export-xdpi="90"
   inkscape:export-ydpi="90">
  <defs
     id="defs4">
    <inkscape:perspective
       sodipodi:type="inkscape:persp3d"
       inkscape:vp_x="375.89523 : 591.9491 : 1"
       inkscape:vp_y="0 : 476.41225 : 0"
       inkscape:vp_z="926.25637 : 590.99628 : 1"
       inkscape:persp3d-origin="613.70558 : 442.35566 : 1"
       id="perspective5722" />
    <inkscape:path-effect
       effect="spiro"
       id="path-effect8558"
       is_visible="true" />
    <pattern
       inkscape:collect="always"
       xlink:href="#pattern6433"
       id="pattern6451"
       patternTransform="translate(107.67497,-18.001961)" />
    <linearGradient
       id="linearGradient6856"
       inkscape:collect="always">
      <stop
         id="stop6858"
         offset="0"
         style="stop-color:#000000;stop-opacity:0" />
      <stop
         id="stop6860"
         offset="1"
         style="stop-color:#000000;stop-opacity:0.66197181" />
    </linearGradient>
    <pattern
       id="pattern8730"
       patternTransform="translate(84.117096,-131.97218)"
       height="18.612247"
       width="21.491245"
       patternUnits="userSpaceOnUse">
      <rect
         style="fill:url(#pattern8728);stroke:none"
         width="21.491245"
         height="18.612247"
         x="0"
         y="0"
         id="rect8726" />
    </pattern>
    <pattern
       patternTransform="matrix(1.4903593,0,0,1.4903593,-3.9472656e-6,-6.7724609e-6)"
       id="pattern8728"
       xlink:href="#pattern8723"
       inkscape:collect="always" />
    <pattern
       id="pattern8723"
       patternTransform="translate(84.117093,-131.97219)"
       height="12.48843"
       width="14.420177"
       patternUnits="userSpaceOnUse">
      <path
         id="path8710"
         d="m 6.1e-5,0 0,3.56807 L 3.089876,1.7842 3.089876,0 6.1e-5,0 Z m 4.120081,0 0,1.7842 3.089814,1.78387 3.090142,-1.78387 0,-1.7842 -6.179956,0 z m 7.209893,0 0,1.7842 3.090142,1.78387 0,-3.56807 -3.090142,0 z m -0.514967,2.67613 -3.090142,1.7842 0,3.56807 3.090142,1.78387 3.09014,-1.78387 0,-3.56807 -3.09014,-1.7842 z m -7.208256,3.4e-4 -3.090143,1.78387 0,3.56807 3.090143,1.7842 3.090142,-1.7842 0,-3.56807 L 3.606812,2.67647 Z M 0.0017,8.92067 0,8.92167 l 0,3.56676 3.091783,0 0,-1.78387 L 0.00164,8.92069 Z m 7.210222,0 -3.090141,1.78388 0,1.78387 6.180283,0 0,-1.78387 -3.090142,-1.78388 z m 7.208255,0 -3.090142,1.78388 0,1.78387 3.090142,0 0,-3.56775 z"
         style="opacity:1;fill:#ffffff;fill-opacity:0.65986394;fill-rule:nonzero;stroke:none;stroke-width:9.75;stroke-linecap:round;stroke-miterlimit:4;stroke-dasharray:none;stroke-dashoffset:0;stroke-opacity:1"
         inkscape:connector-curvature="0" />
    </pattern>
    <pattern
       patternUnits="userSpaceOnUse"
       width="11.2097"
       height="9.7078948"
       patternTransform="translate(998.70251,-74.06992)"
       id="pattern10751">
      <g
         inkscape:label="Layer 1"
         id="layer1-5"
         transform="matrix(0.73700993,0,0,0.73700993,-157.85467,-116.45802)">
        <path
           inkscape:connector-curvature="0"
           style="opacity:1;fill:#ffffff;fill-opacity:1;fill-rule:nonzero;stroke:none;stroke-width:9.75;stroke-linecap:round;stroke-miterlimit:4;stroke-dasharray:none;stroke-dashoffset:0;stroke-opacity:1"
           d="m 214.18282,158.01418 0,3.76337 3.25894,-1.88151 0,-1.88186 -3.25894,0 z m 4.3456,0 0,1.88186 3.25894,1.88151 3.25929,-1.88151 0,-1.88186 -6.51823,0 z m 7.60454,0 0,1.88186 3.25929,1.88151 0,-3.76337 -3.25929,0 z m -0.54315,2.82262 -3.25929,1.88186 0,3.76338 3.25929,1.88151 3.25928,-1.88151 0,-3.76338 -3.25928,-1.88186 z m -7.60282,3.5e-4 -3.25928,1.88152 0,3.76337 3.25928,1.88186 3.25929,-1.88186 0,-3.76337 -3.25929,-1.88152 z m -3.80244,6.586 -0.002,0.001 0,3.76199 3.26102,0 0,-1.88151 -3.25929,-1.88152 z m 7.60489,0 -3.25929,1.88151 0,1.88152 6.51857,0 0,-1.88152 -3.25928,-1.88151 z m 7.60281,0 -3.25929,1.88151 0,1.88152 3.25929,0 0,-3.76303 z"
           id="path6189-9" />
      </g>
    </pattern>
    <pattern
       patternUnits="userSpaceOnUse"
       width="15.20508"
       height="13.168015"
       patternTransform="translate(196.04421,-106.80595)"
       id="pattern6645">
      <path
         id="path4969"
         d="M 0,0 0,3.51172 3.04102,1.75586 3.04102,0 0,0 Z m 4.56055,0 0,1.75586 3.04102,1.75586 3.04297,-1.75586 0,-1.75586 -6.08399,0 z m 7.60352,0 0,1.75586 3.04101,1.75586 0,-3.51172 -3.04101,0 z m -8.36328,3.07226 -3.04102,1.75586 0,3.511723 3.04102,1.755859 3.04101,-1.755859 0,-3.511723 -3.04101,-1.75586 z m 7.60351,0 -3.04101,1.75586 0,3.511723 3.04101,1.755859 3.04102,-1.755859 0,-3.511723 L 11.4043,3.07226 Z M 0,9.656249 l 0,3.511719 3.04102,0 0,-1.75586 L 0,9.656249 Z m 7.60157,0 -3.04102,1.755859 0,1.75586 6.08399,0 0,-1.75586 -3.04297,-1.755859 z m 7.60351,0.002 -3.04101,1.753906 0,1.75586 3.04101,0 0,-3.509766 z"
         style="opacity:1;fill:#ffffff;fill-opacity:0.36912752;fill-rule:nonzero;stroke:none;stroke-width:9.75;stroke-linecap:round;stroke-miterlimit:4;stroke-dasharray:none;stroke-dashoffset:0;stroke-opacity:1"
         inkscape:connector-curvature="0" />
    </pattern>
    <radialGradient
       inkscape:collect="always"
       xlink:href="#linearGradient6856"
       id="radialGradient6656"
       cx="840.5"
       cy="-168.47122"
       fx="840.5"
       fy="-168.47122"
       r="840"
       gradientTransform="matrix(-0.83289578,0,0,-0.82840209,1540.5489,-64.699789)"
       gradientUnits="userSpaceOnUse" />
    <pattern
       patternUnits="userSpaceOnUse"
       width="19.70703"
       height="17.067104"
       patternTransform="translate(211.74172,-86.56426)"
       id="pattern6683">
      <path
         id="path4790"
         d="M 0,0 0,4.267405 3.69538,2.1337 3.69538,0 0,0 Z m 6.15814,0 0,2.1337 L 9.85352,4.267405 13.5489,2.1337 13.5489,0 6.15814,0 Z m 9.85351,0 0,2.1337 3.69538,2.133705 0,-4.267405 -3.69538,0 z M 4.92803,4.267405 1.23264,6.40111 l 0,4.264879 3.69539,2.133705 3.69286,-2.133705 0,-4.264879 -3.69286,-2.133705 z m 9.85351,0 -3.69538,2.133705 0,4.264879 3.69538,2.133705 3.69285,-2.133705 0,-4.264879 -3.69285,-2.133705 z M 0,12.799694 l 0,4.26741 3.69538,0 0,-2.133704 L 0,12.799694 Z m 9.85352,0 -3.69538,2.133706 0,2.133704 7.39076,0 0,-2.133704 -3.69538,-2.133706 z m 9.85351,0 -3.69538,2.133706 0,2.133704 3.69538,0 0,-4.26741 z"
         style="opacity:1;fill:#ffffff;fill-opacity:0.42281877;fill-rule:nonzero;stroke:none;stroke-width:9.75;stroke-linecap:round;stroke-miterlimit:4;stroke-dasharray:none;stroke-dashoffset:0;stroke-opacity:1"
         inkscape:connector-curvature="0" />
    </pattern>
    <pattern
       patternUnits="userSpaceOnUse"
       width="15.19739"
       height="13.1613"
       patternTransform="translate(263.31159,-49.261779)"
       id="pattern6768">
      <path
         id="rect6704"
         d="m 3.25663,4e-5 0,1.88033 L 0,3.76069 l 0,5.64064 3.25663,1.87998 0,1.87999 1.08543,0 0,-1.87999 3.25663,-1.87998 3.25664,1.87998 0,1.87999 1.08543,0 0,-1.87999 3.25663,-1.87998 0,-5.64202 -0.002,10e-4 -3.25663,-1.87997 0,-1.88034 -1.08543,0 0,1.88034 L 7.5967,3.76031 4.34007,1.88034 4.34007,0 3.25672,0 Z m 0.54065,2.82032 3.25662,1.87998 0,3.76031 -3.25662,1.88033 -3.25629,-1.88033 0,-3.76031 3.25629,-1.87998 z m 7.59868,0 3.25664,1.87998 0,3.76031 -3.25664,1.88033 -3.25662,-1.88033 0,-3.76031 3.25662,-1.87998 z"
         style="opacity:1;fill:#000000;fill-opacity:1;fill-rule:nonzero;stroke:none;stroke-width:9.75;stroke-linecap:round;stroke-miterlimit:4;stroke-dasharray:none;stroke-dashoffset:0;stroke-opacity:1"
         inkscape:connector-curvature="0" />
    </pattern>
    <pattern
       patternUnits="userSpaceOnUse"
       width="15.21207"
       height="13.17395"
       patternTransform="translate(274.64397,-47.474866)"
       id="pattern6851">
      <path
         id="rect6817"
         d="m 2.85234,0 0,1.64689 L 0,3.29379 l 0,6.58698 2.85234,1.64659 0,1.64659 1.90135,0 0,-1.64659 2.85234,-1.64659 2.85234,1.64659 0,1.64659 1.90135,0 0,-1.64659 2.85235,-1.64659 0,-6.58698 -2.85235,-1.6469 0,-1.64689 -1.90135,0 0,1.64689 L 7.60603,3.29379 4.75369,1.64689 4.75369,0 2.85234,0 Z m 0.95068,3.29379 2.85234,1.64659 0,3.29349 -2.85234,1.6469 -2.85235,-1.6469 0,-3.29349 2.85235,-1.64659 z m 7.60603,0 2.85234,1.64659 0,3.29349 -2.85234,1.6469 -2.85234,-1.6469 0,-3.29349 2.85234,-1.64659 z"
         style="opacity:1;fill:#000000;fill-opacity:1;fill-rule:nonzero;stroke:none;stroke-width:9.75;stroke-linecap:round;stroke-miterlimit:4;stroke-dasharray:none;stroke-dashoffset:0;stroke-opacity:1"
         inkscape:connector-curvature="0" />
    </pattern>
    <pattern
       patternUnits="userSpaceOnUse"
       width="15.21207"
       height="13.17395"
       patternTransform="translate(274.64397,-47.474866)"
       id="pattern6869">
      <path
         id="path6862"
         d="m 2.85234,0 0,1.64689 L 0,3.29379 l 0,6.58698 2.85234,1.64659 0,1.64659 1.90135,0 0,-1.64659 2.85234,-1.64659 2.85234,1.64659 0,1.64659 1.90135,0 0,-1.64659 2.85235,-1.64659 0,-6.58698 -2.85235,-1.6469 0,-1.64689 -1.90135,0 0,1.64689 L 7.60603,3.29379 4.75369,1.64689 4.75369,0 2.85234,0 Z m 0.95068,3.29379 2.85234,1.64659 0,3.29349 -2.85234,1.6469 -2.85235,-1.6469 0,-3.29349 2.85235,-1.64659 z m 7.60603,0 2.85234,1.64659 0,3.29349 -2.85234,1.6469 -2.85234,-1.6469 0,-3.29349 2.85234,-1.64659 z"
         style="opacity:1;fill:#444444;fill-opacity:1;fill-rule:nonzero;stroke:none;stroke-width:9.75;stroke-linecap:round;stroke-miterlimit:4;stroke-dasharray:none;stroke-dashoffset:0;stroke-opacity:1"
         inkscape:connector-curvature="0" />
    </pattern>
    <pattern
       patternUnits="userSpaceOnUse"
       width="13.75756"
       height="11.91446"
       patternTransform="translate(301.89954,-48.720119)"
       id="pattern6311">
      <path
         id="rect6251"
         d="m 2.75145,0 0,1.588729 L 0,3.177314 l 0,5.560122 2.75145,1.588575 0,1.588449 1.3758,0 0,-1.588449 2.75146,-1.588575 2.75159,1.588575 0,1.588449 1.37581,0 0,-1.588449 2.75145,-1.588575 0,-5.560122 -2.75145,-1.588585 0,-1.588729 -1.37581,0 0,1.588729 L 6.87871,3.177314 4.12725,1.588729 4.12725,0 2.75145,0 Z m 0.68798,2.780206 2.75145,1.588575 0,3.177178 -2.7516,1.588585 -2.75145,-1.588585 0,-3.177178 2.7516,-1.588575 z m 6.8787,0 2.75146,1.588575 0,3.177178 -2.75146,1.588585 -2.75145,-1.588585 0,-3.177178 2.75145,-1.588575 z"
         style="opacity:1;fill:#ff0f0f;fill-opacity:0.76619717;fill-rule:nonzero;stroke:none;stroke-width:9.75;stroke-linecap:round;stroke-miterlimit:4;stroke-dasharray:none;stroke-dashoffset:0;stroke-opacity:1"
         inkscape:connector-curvature="0" />
    </pattern>
    <pattern
       patternUnits="userSpaceOnUse"
       width="13.75756"
       height="11.91446"
       patternTransform="translate(301.89954,-48.720119)"
       id="pattern6332">
      <path
         id="path6330"
         d="m 2.75145,0 0,1.588729 L 0,3.177314 l 0,5.560122 2.75145,1.588575 0,1.588449 1.3758,0 0,-1.588449 2.75146,-1.588575 2.75159,1.588575 0,1.588449 1.37581,0 0,-1.588449 2.75145,-1.588575 0,-5.560122 -2.75145,-1.588585 0,-1.588729 -1.37581,0 0,1.588729 L 6.87871,3.177314 4.12725,1.588729 4.12725,0 2.75145,0 Z m 0.68798,2.780206 2.75145,1.588575 0,3.177178 -2.7516,1.588585 -2.75145,-1.588585 0,-3.177178 2.7516,-1.588575 z m 6.8787,0 2.75146,1.588575 0,3.177178 -2.75146,1.588585 -2.75145,-1.588585 0,-3.177178 2.75145,-1.588575 z"
         style="opacity:1;fill:#506c7b;fill-opacity:0.76619717;fill-rule:nonzero;stroke:none;stroke-width:9.75;stroke-linecap:round;stroke-miterlimit:4;stroke-dasharray:none;stroke-dashoffset:0;stroke-opacity:1"
         inkscape:connector-curvature="0" />
    </pattern>
    <pattern
       patternUnits="userSpaceOnUse"
       width="15.21207"
       height="13.17395"
       patternTransform="translate(277.64397,-21.836978)"
       id="pattern6349">
      <path
         id="path6347"
         d="m 2.85234,0 0,1.64689 L 0,3.29379 l 0,6.58698 2.85234,1.64659 0,1.64659 1.90135,0 0,-1.64659 2.85234,-1.64659 2.85234,1.64659 0,1.64659 1.90135,0 0,-1.64659 2.85235,-1.64659 0,-6.58698 -2.85235,-1.6469 0,-1.64689 -1.90135,0 0,1.64689 L 7.60603,3.29379 4.75369,1.64689 4.75369,0 2.85234,0 Z m 0.95068,3.29379 2.85234,1.64659 0,3.29349 -2.85234,1.6469 -2.85235,-1.6469 0,-3.29349 2.85235,-1.64659 z m 7.60603,0 2.85234,1.64659 0,3.29349 -2.85234,1.6469 -2.85234,-1.6469 0,-3.29349 2.85234,-1.64659 z"
         style="opacity:1;fill:#000000;fill-opacity:1;fill-rule:nonzero;stroke:none;stroke-width:9.75;stroke-linecap:round;stroke-miterlimit:4;stroke-dasharray:none;stroke-dashoffset:0;stroke-opacity:1"
         inkscape:connector-curvature="0" />
    </pattern>
    <pattern
       patternUnits="userSpaceOnUse"
       width="15.01564"
       height="13.00392"
       patternTransform="translate(109.67497,-18.001961)"
       id="pattern6433">
      <path
         id="path7620"
         d="M 0,0 0,2.88975 2.50259,1.44483 2.50259,0 0,0 Z m 5.00519,0 0,1.44483 2.50268,1.44492 2.50258,-1.44492 0,-1.44483 -5.00526,0 z m 7.50786,0 0,1.44483 2.50259,1.44492 0,-2.88975 -2.50259,0 z M 3.75389,3.61221 1.2513,5.05704 l 0,2.88975 2.50259,1.4449198 2.50259,-1.4449198 0,-2.88975 -2.50259,-1.44483 z m 7.50786,0 -2.50258,1.44483 0,2.88975 2.50258,1.4449198 2.5026,-1.4449198 0,-2.88975 -2.5026,-1.44483 z M 0,10.11417 l 0,2.88975 2.50259,0 0,-1.44492 L 0,10.11417 Z m 7.50787,0 -2.50268,1.44483 0,1.44492 5.00526,0 0,-1.44492 -2.50258,-1.44483 z m 7.50777,0 -2.50259,1.44483 0,1.44492 2.50259,0 0,-2.88975 z"
         style="opacity:1;fill:#ffffff;fill-opacity:1;fill-rule:nonzero;stroke:none;stroke-width:9.75;stroke-linecap:round;stroke-miterlimit:4;stroke-dasharray:none;stroke-dashoffset:0;stroke-opacity:1"
         inkscape:connector-curvature="0" />
    </pattern>
    <pattern
       patternUnits="userSpaceOnUse"
       width="15.01564"
       height="13.00392"
       patternTransform="translate(145.30939,-18.001961)"
       id="pattern6444">
      <path
         inkscape:connector-curvature="0"
         style="display:inline;opacity:1;fill:#000000;fill-opacity:1;fill-rule:nonzero;stroke:none;stroke-width:9.75;stroke-linecap:round;stroke-miterlimit:4;stroke-dasharray:none;stroke-dashoffset:0;stroke-opacity:1"
         d="m 2.50259,0 0,1.44483 L 0,2.88975 l 0,7.22442 2.50259,1.44483 0,1.44492 2.50259,0 0,-1.44492 2.50259,-1.44483 2.50259,1.44483 0,1.44492 2.50268,0 0,-1.44492 2.5026,-1.44483 0,-7.22442 -2.5026,-1.44492 0,-1.44483 -2.50268,0 0,1.44483 L 7.50777,2.88975 5.00518,1.44483 5.00518,0 2.50259,0 Z m 1.25129,3.61221 2.50259,1.44483 0,2.88975 L 3.75388,9.3917098 1.25129,7.94679 l 0,-2.88975 2.50259,-1.44483 z m 7.50787,0 2.50259,1.44483 0,2.88975 -2.50259,1.4449198 -2.50268,-1.4449198 0,-2.88975 2.50268,-1.44483 z"
         id="path6431" />
    </pattern>
  </defs>
  <sodipodi:namedview
     inkscape:window-maximized="1"
     inkscape:window-y="24"
     inkscape:window-x="0"
     inkscape:window-height="1013"
     inkscape:window-width="1920"
     width="1680px"
     units="px"
     showgrid="false"
     inkscape:current-layer="layer14"
     inkscape:document-units="px"
     inkscape:cy="677.75513"
     inkscape:cx="715.75062"
     inkscape:zoom="0.70710678"
     inkscape:pageshadow="2"
     inkscape:pageopacity="0.0"
     borderopacity="1.0"
     bordercolor="#666666"
     pagecolor="#ffffff"
     id="base"
     showguides="false"
     inkscape:guide-bbox="true"
     inkscape:object-paths="true"
     inkscape:snap-nodes="true"
     inkscape:snap-grids="true"
     inkscape:snap-to-guides="true"
     inkscape:snap-others="true"
     inkscape:object-nodes="false"
     inkscape:snap-midpoints="false">
    <sodipodi:guide
       position="-8.0309417e-07,1080"
       orientation="1080,0"
       id="guide4419" />
    <sodipodi:guide
       position="-8.0309417e-07,0"
       orientation="0,1"
       id="guide4421"
       inkscape:label=""
       inkscape:color="rgb(0,0,255)" />
    <sodipodi:guide
       position="1680,0"
       orientation="1,0"
       id="guide4423"
       inkscape:label=""
       inkscape:color="rgb(0,0,255)" />
    <sodipodi:guide
       position="1680.6316,1080"
       orientation="0,1"
       id="guide4425"
       inkscape:label=""
       inkscape:color="rgb(0,0,255)" />
    <sodipodi:guide
       position="373.87122,0.4765625"
       orientation="0,932.25757"
       id="guide4876" />
    <inkscape:grid
       type="xygrid"
       id="grid5632" />
    <sodipodi:guide
       position="427,851"
       orientation="1,0"
       id="guide7950" />
    <sodipodi:guide
       position="1248,915"
       orientation="1,0"
       id="guide7952" />
  </sodipodi:namedview>
  <metadata
     id="metadata7">
    <rdf:RDF>
      <cc:Work
         rdf:about="">
        <dc:format>image/svg+xml</dc:format>
        <dc:type
           rdf:resource="http://purl.org/dc/dcmitype/StillImage" />
        <dc:title />
      </cc:Work>
    </rdf:RDF>
  </metadata>
  <g
     inkscape:groupmode="layer"
     id="layer2"
     inkscape:label="miscellaneous"
     style="display:inline">
    <flowRoot
       xml:space="preserve"
       id="flowRoot4240"
       style="font-style:normal;font-weight:normal;font-size:40px;line-height:125%;font-family:sans-serif;letter-spacing:0px;word-spacing:0px;fill:#000000;fill-opacity:1;stroke:none;stroke-width:1px;stroke-linecap:butt;stroke-linejoin:miter;stroke-opacity:1"><flowRegion
         id="flowRegion4242"><rect
           id="rect4244"
           width="164"
           height="62.228912"
           x="1133"
           y="183" /></flowRegion><flowPara
         id="flowPara4246" /></flowRoot>    <flowRoot
       xml:space="preserve"
       id="flowRoot4248"
       style="font-style:normal;font-weight:normal;font-size:40px;line-height:125%;font-family:sans-serif;letter-spacing:0px;word-spacing:0px;fill:#000000;fill-opacity:1;stroke:none;stroke-width:1px;stroke-linecap:butt;stroke-linejoin:miter;stroke-opacity:1"><flowRegion
         id="flowRegion4250"><rect
           id="rect4252"
           width="162"
           height="60"
           x="1133"
           y="182" /></flowRegion><flowPara
         id="flowPara4254" /></flowRoot>    <rect
       style="opacity:1;fill:#03a9f4;fill-opacity:1;fill-rule:nonzero;stroke:#212121;stroke-width:11.41693783;stroke-linecap:round;stroke-miterlimit:4;stroke-dasharray:none;stroke-dashoffset:0;stroke-opacity:1"
       id="rect11529"
       width="148.4202"
       height="148.4202"
       x="-46.445545"
       y="-569.45844" />
    <rect
       y="-569.45844"
       x="-205.14098"
       height="148.4202"
       width="148.4202"
       id="rect11531"
       style="opacity:1;fill:#0288d1;fill-opacity:1;fill-rule:nonzero;stroke:#212121;stroke-width:11.41693783;stroke-linecap:round;stroke-miterlimit:4;stroke-dasharray:none;stroke-dashoffset:0;stroke-opacity:1" />
    <rect
       y="-569.45844"
       x="112.24995"
       height="148.4202"
       width="148.4202"
       id="rect11535"
       style="opacity:1;fill:#b3e5fc;fill-opacity:1;fill-rule:nonzero;stroke:#212121;stroke-width:11.41693783;stroke-linecap:round;stroke-miterlimit:4;stroke-dasharray:none;stroke-dashoffset:0;stroke-opacity:1" />
    <rect
       y="-567.70361"
       x="587.12213"
       height="148.4202"
       width="148.4202"
       id="rect11539"
       style="opacity:1;fill:#ff0a73;fill-opacity:1;fill-rule:nonzero;stroke:#212121;stroke-width:11.41693783;stroke-linecap:round;stroke-miterlimit:4;stroke-dasharray:none;stroke-dashoffset:0;stroke-opacity:1" />
    <rect
       style="opacity:1;fill:#c00053;fill-opacity:1;fill-rule:nonzero;stroke:#212121;stroke-width:11.41693783;stroke-linecap:round;stroke-miterlimit:4;stroke-dasharray:none;stroke-dashoffset:0;stroke-opacity:1"
       id="rect11541"
       width="148.4202"
       height="148.4202"
       x="428.4267"
       y="-567.70361" />
    <rect
       style="opacity:1;fill:#ff4081;fill-opacity:1;fill-rule:nonzero;stroke:#212121;stroke-width:11.41693783;stroke-linecap:round;stroke-miterlimit:4;stroke-dasharray:none;stroke-dashoffset:0;stroke-opacity:1"
       id="rect11543"
       width="148.4202"
       height="148.4202"
       x="745.81763"
       y="-567.70361" />
    <rect
       style="opacity:1;fill:#727272;fill-opacity:1;fill-rule:nonzero;stroke:#212121;stroke-width:11.41693783;stroke-linecap:round;stroke-miterlimit:4;stroke-dasharray:none;stroke-dashoffset:0;stroke-opacity:1"
       id="rect11545"
       width="148.4202"
       height="148.4202"
       x="1364.9396"
       y="-572.79883" />
    <rect
       y="-572.79883"
       x="1206.2441"
       height="148.4202"
       width="148.4202"
       id="rect11547"
       style="opacity:1;fill:#212121;fill-opacity:1;fill-rule:nonzero;stroke:#212121;stroke-width:11.41693783;stroke-linecap:round;stroke-miterlimit:4;stroke-dasharray:none;stroke-dashoffset:0;stroke-opacity:1" />
    <rect
       y="-572.79883"
       x="1523.6351"
       height="148.4202"
       width="148.4202"
       id="rect11549"
       style="opacity:1;fill:#b6b6b6;fill-opacity:1;fill-rule:nonzero;stroke:#212121;stroke-width:11.41693783;stroke-linecap:round;stroke-miterlimit:4;stroke-dasharray:none;stroke-dashoffset:0;stroke-opacity:1" />
    <rect
       style="opacity:1;fill:#ffffff;fill-opacity:1;fill-rule:nonzero;stroke:#212121;stroke-width:11.41693783;stroke-linecap:round;stroke-miterlimit:4;stroke-dasharray:none;stroke-dashoffset:0;stroke-opacity:1"
       id="rect11551"
       width="148.4202"
       height="148.4202"
       x="1681.1888"
       y="-572.79883" />
    <rect
       style="opacity:1;fill:#1f3038;fill-opacity:1;fill-rule:nonzero;stroke:#212121;stroke-width:11.41693783;stroke-linecap:round;stroke-miterlimit:4;stroke-dasharray:none;stroke-dashoffset:0;stroke-opacity:1"
       id="rect11553"
       width="148.4202"
       height="148.4202"
       x="-207.96942"
       y="-240.42764" />
    <rect
       style="opacity:1;fill:#3e4f58;fill-opacity:1;fill-rule:nonzero;stroke:#212121;stroke-width:11.41693783;stroke-linecap:round;stroke-miterlimit:4;stroke-dasharray:none;stroke-dashoffset:0;stroke-opacity:1"
       id="rect7954"
       width="148.4202"
       height="148.4202"
       x="-205.14098"
       y="-405.40967" />
    <rect
       style="opacity:1;fill:#56798b;fill-opacity:1;fill-rule:nonzero;stroke:#212121;stroke-width:11.41693783;stroke-linecap:round;stroke-miterlimit:4;stroke-dasharray:none;stroke-dashoffset:0;stroke-opacity:1"
       id="rect8124"
       width="148.4202"
       height="148.4202"
       x="-205.14098"
       y="-733.5072" />
  </g>
  <g
     inkscape:groupmode="layer"
     id="layer6"
     inkscape:label="background"
     style="display:inline"
     sodipodi:insensitive="true">
    <g
       inkscape:label="background 0"
       inkscape:groupmode="layer"
       id="layer1"
       transform="translate(0,27.637888)"
       style="display:inline;opacity:1"
       sodipodi:insensitive="true">
      <rect
         style="display:inline;opacity:1;fill:#01425f;fill-opacity:1;fill-rule:nonzero;stroke:none;stroke-width:1;stroke-linecap:round;stroke-miterlimit:4;stroke-dasharray:none;stroke-dashoffset:0;stroke-opacity:0.53246753"
         id="rect4427"
         width="1680"
         height="1080"
         x="0.5"
         y="-27.137888" />
    </g>
    <g
       inkscape:groupmode="layer"
       id="layer5"
       inkscape:label="background 1"
       style="display:inline;opacity:1"
       sodipodi:insensitive="true">
      <rect
         transform="translate(0,27.637888)"
         y="-27.137888"
         x="0.5"
         height="1080"
         width="1680"
         id="rect6325"
         style="display:inline;opacity:1;fill:url(#radialGradient6656);fill-opacity:1;fill-rule:nonzero;stroke:none;stroke-width:1;stroke-linecap:round;stroke-miterlimit:4;stroke-dasharray:none;stroke-dashoffset:0;stroke-opacity:0.53246753" />
    </g>
    <g
       inkscape:groupmode="layer"
       id="layer3"
       inkscape:label="background 2"
       style="display:inline;opacity:0.38800001"
       sodipodi:insensitive="true">
      <rect
         y="0"
         x="0"
         height="1080"
         width="1680"
         id="rect9392"
         style="display:inline;opacity:1;fill:url(#pattern6444);fill-opacity:1;fill-rule:nonzero;stroke:none;stroke-width:1;stroke-linecap:round;stroke-miterlimit:4;stroke-dasharray:none;stroke-dashoffset:0;stroke-opacity:0.53246753" />
    </g>
    <g
       inkscape:groupmode="layer"
       id="layer4"
       inkscape:label="background 3"
       style="display:inline;opacity:0.194"
       sodipodi:insensitive="true">
      <rect
         y="0"
         x="-2"
         height="1080"
         width="1680"
         id="rect5005"
         style="display:inline;opacity:1;fill:url(#pattern6451);fill-opacity:1;fill-rule:nonzero;stroke:none;stroke-width:1;stroke-linecap:round;stroke-miterlimit:4;stroke-dasharray:none;stroke-dashoffset:0;stroke-opacity:0.53246753" />
    </g>
    <g
       inkscape:groupmode="layer"
       id="layer14"
       inkscape:label="background 4"
       sodipodi:insensitive="true">
      <text
         sodipodi:linespacing="125%"
         id="text7339"
         y="1074.3354"
         x="1546.8417"
         style="font-style:normal;font-variant:normal;font-weight:normal;font-stretch:normal;font-size:21.95249939px;line-height:125%;font-family:'Open Sans';-inkscape-font-specification:'Open Sans, Normal';text-align:start;letter-spacing:0px;word-spacing:0px;writing-mode:lr-tb;text-anchor:start;display:inline;opacity:1;fill:#b6b6b6;fill-opacity:1;stroke:none;stroke-width:1px;stroke-linecap:butt;stroke-linejoin:miter;stroke-opacity:1"
         xml:space="preserve"><tspan
           y="1074.3354"
           x="1546.8417"
           id="tspan7341"
           sodipodi:role="line">Manjit Karve</tspan></text>
      <path
         style="display:inline;opacity:1;fill:#03a9f4;fill-opacity:1;stroke:none;stroke-width:60;stroke-linecap:round;stroke-linejoin:round;stroke-miterlimit:4;stroke-dasharray:none;stroke-opacity:1"
         d="m 1531.2686,1057.016 a 9.8146652,9.8146652 0 0 0 -9.0228,9.7783 9.8146652,9.8146652 0 0 0 9.8147,9.8146 9.8146652,9.8146652 0 0 0 3.6599,-0.7134 l 0,-9.2482 -1.6356,0 0,5.7215 a 1.4082601,1.4082601 0 0 1 -2.4013,0.9982 l -7.1652,-7.1296 a 1.4082601,1.4082601 0 0 1 0.9933,-2.4063 l 5.757,0 0,-6.8151 z m 2.8162,0.1783 0,6.6368 3.0437,0 a 1.4082601,1.4082601 0 0 1 1.4082,1.4081 l 0,8.9134 a 9.8146652,9.8146652 0 0 0 3.3384,-7.3583 9.8146652,9.8146652 0 0 0 -7.7903,-9.6 z m -5.1618,9.453 2.3456,2.3339 0,-2.3339 -2.3456,0 z"
         id="path7343"
         inkscape:connector-curvature="0" />
    </g>
    <path
       style="display:inline;opacity:1;fill:#213037;fill-opacity:0.90052353;fill-rule:nonzero;stroke:none;stroke-width:9.75;stroke-linecap:round;stroke-miterlimit:4;stroke-dasharray:none;stroke-dashoffset:0;stroke-opacity:1"
       d="m 360,0.42248303 0,74.43603097 c 0,4.649862 4.63907,8.392396 10.40039,8.392396 l 939.19921,0 c 5.7613,0 10.4004,-3.742534 10.4004,-8.392396 l 0,-74.43603097 -960,0 z"
       id="rect7388"
       inkscape:connector-curvature="0" />
    <path
       inkscape:connector-curvature="0"
       id="path7398"
       d="m 359.94454,1080 0,-968.1379 c 0,-6.58262 4.57593,-10.6905 10.40039,-10.6905 l 937.25467,0 c 5.7613,0 10.4004,9.1424 10.4004,9.1424 l 0,969.686 z"
       style="display:inline;opacity:1;fill:#213037;fill-opacity:0.90196078;fill-rule:nonzero;stroke:none;stroke-width:9.75;stroke-linecap:round;stroke-miterlimit:4;stroke-dasharray:none;stroke-dashoffset:0;stroke-opacity:1"
       sodipodi:nodetypes="csssccc" />
  </g>
  <g
     inkscape:groupmode="layer"
     id="layer7"
     inkscape:label="top-menu"
     style="display:inline">
    <g
       inkscape:groupmode="layer"
       id="layer15"
       inkscape:label="menu-bar" />
    <g
       inkscape:groupmode="layer"
       id="layer8"
       inkscape:label="big-pink-button">
      <path
         style="display:inline;opacity:1;fill:#ff0a73;fill-opacity:1;stroke:none;stroke-width:60;stroke-linecap:round;stroke-linejoin:round;stroke-miterlimit:4;stroke-dasharray:none;stroke-opacity:1"
         d="m 838.1471,18.914647 a 22.964705,22.964705 0 0 0 -21.11177,22.879502 22.964705,22.964705 0 0 0 22.96475,22.964598 22.964705,22.964705 0 0 0 8.56367,-1.669107 l 0,-21.639288 -3.82712,0 0,13.387242 a 3.2950975,3.2950975 0 0 1 -5.61864,2.33562 L 822.35264,40.491036 a 3.2950975,3.2950975 0 0 1 2.32403,-5.630216 l 13.47043,0 0,-15.946173 z m 6.58953,0.417164 0,15.529009 7.12188,0 a 3.2950975,3.2950975 0 0 1 3.29477,3.294762 l 0,20.855973 a 22.964705,22.964705 0 0 0 7.81139,-17.217406 22.964705,22.964705 0 0 0 -18.22804,-22.462338 z m -12.07771,22.118541 5.48818,5.460817 0,-5.460817 -5.48818,0 z"
         id="path6718"
         inkscape:connector-curvature="0" />
    </g>
  </g>
  <g
     inkscape:groupmode="layer"
     id="layer9"
     inkscape:label="menu"
     style="display:inline">
    <g
       inkscape:groupmode="layer"
       id="layer13"
       inkscape:label="central-menu-submenus">
      <g
         style="font-style:normal;font-variant:normal;font-weight:600;font-stretch:normal;font-size:131.16098022px;line-height:125%;font-family:'Open Sans';-inkscape-font-specification:'Open Sans, Semi-Bold';text-align:start;letter-spacing:0px;word-spacing:0px;writing-mode:lr-tb;text-anchor:start;fill:#000000;fill-opacity:1;stroke:none;stroke-width:1px;stroke-linecap:butt;stroke-linejoin:miter;stroke-opacity:1"
         id="text4440" />
    </g>
    <g
       inkscape:groupmode="layer"
       id="layer11"
       inkscape:label="central-menu-text"
       style="display:inline" />
    <g
       inkscape:groupmode="layer"
       id="layer12"
       inkscape:label="central-menu-text-hidden"
       style="display:inline">
      <text
         sodipodi:linespacing="125%"
         id="text4334"
         y="53.513721"
         x="883.99158"
         style="font-style:normal;font-variant:normal;font-weight:300;font-stretch:normal;font-size:32.45872116px;line-height:125%;font-family:Lato;-inkscape-font-specification:'Lato, Light';text-align:start;letter-spacing:0px;word-spacing:0px;writing-mode:lr-tb;text-anchor:start;display:inline;fill:#03a9f4;fill-opacity:1;stroke:none;stroke-width:1px;stroke-linecap:butt;stroke-linejoin:miter;stroke-opacity:1"
         xml:space="preserve"><tspan
           y="53.513721"
           x="883.99158"
           id="tspan4336"
           sodipodi:role="line">Portfolio</tspan></text>
      <text
         xml:space="preserve"
         style="font-style:normal;font-variant:normal;font-weight:300;font-stretch:normal;font-size:32.45872116px;line-height:125%;font-family:Lato;-inkscape-font-specification:'Lato, Light';text-align:start;letter-spacing:0px;word-spacing:0px;writing-mode:lr-tb;text-anchor:start;display:inline;fill:#03a9f4;fill-opacity:1;stroke:none;stroke-width:1px;stroke-linecap:butt;stroke-linejoin:miter;stroke-opacity:1"
         x="1023.9916"
         y="53.513721"
         id="text8126"
         sodipodi:linespacing="125%"><tspan
           sodipodi:role="line"
           id="tspan8128"
           x="1023.9916"
           y="53.513721">Résumé</tspan></text>
      <text
         sodipodi:linespacing="125%"
         id="text8130"
         y="53.513721"
         x="1157.9916"
         style="font-style:normal;font-variant:normal;font-weight:300;font-stretch:normal;font-size:32.45872116px;line-height:125%;font-family:Lato;-inkscape-font-specification:'Lato, Light';text-align:start;letter-spacing:0px;word-spacing:0px;writing-mode:lr-tb;text-anchor:start;display:inline;fill:#03a9f4;fill-opacity:1;stroke:none;stroke-width:1px;stroke-linecap:butt;stroke-linejoin:miter;stroke-opacity:1"
         xml:space="preserve"><tspan
           y="53.513721"
           x="1157.9916"
           id="tspan8132"
           sodipodi:role="line">Services</tspan></text>
      <text
         xml:space="preserve"
         style="font-style:normal;font-variant:normal;font-weight:300;font-stretch:normal;font-size:32.45872116px;line-height:125%;font-family:Lato;-inkscape-font-specification:'Lato, Light';text-align:start;letter-spacing:0px;word-spacing:0px;writing-mode:lr-tb;text-anchor:start;display:inline;fill:#03a9f4;fill-opacity:1;stroke:none;stroke-width:1px;stroke-linecap:butt;stroke-linejoin:miter;stroke-opacity:1"
         x="489.49158"
         y="53.513721"
         id="text6334"
         sodipodi:linespacing="125%"><tspan
           sodipodi:role="line"
           id="tspan6336"
           x="489.49158"
           y="53.513721">About</tspan></text>
      <text
         sodipodi:linespacing="125%"
         id="text6338"
         y="53.513721"
         x="597.99158"
         style="font-style:normal;font-variant:normal;font-weight:300;font-stretch:normal;font-size:32.45872116px;line-height:125%;font-family:Lato;-inkscape-font-specification:'Lato, Light';text-align:start;letter-spacing:0px;word-spacing:0px;writing-mode:lr-tb;text-anchor:start;display:inline;fill:#03a9f4;fill-opacity:1;stroke:none;stroke-width:1px;stroke-linecap:butt;stroke-linejoin:miter;stroke-opacity:1"
         xml:space="preserve"><tspan
           y="53.513721"
           x="597.99158"
           id="tspan6340"
           sodipodi:role="line">Contact</tspan></text>
      <text
         xml:space="preserve"
         style="font-style:normal;font-variant:normal;font-weight:300;font-stretch:normal;font-size:32.45872116px;line-height:125%;font-family:Lato;-inkscape-font-specification:'Lato, Light';text-align:start;letter-spacing:0px;word-spacing:0px;writing-mode:lr-tb;text-anchor:start;display:inline;fill:#03a9f4;fill-opacity:1;stroke:none;stroke-width:1px;stroke-linecap:butt;stroke-linejoin:miter;stroke-opacity:1"
         x="732.49158"
         y="53.513721"
         id="text6342"
         sodipodi:linespacing="125%"><tspan
           sodipodi:role="line"
           id="tspan6344"
           x="732.49158"
           y="53.513721">Blog</tspan></text>
    </g>
    <g
       id="g4598"
       transform="matrix(0.11067938,0,0,0.11067938,646.23156,812.2315)" />
    <g
       id="g4600"
       transform="matrix(0.11067938,0,0,0.11067938,646.23156,812.2315)" />
    <g
       id="g4602"
       transform="matrix(0.11067938,0,0,0.11067938,646.23156,812.2315)" />
    <g
       id="g4604"
       transform="matrix(0.11067938,0,0,0.11067938,646.23156,812.2315)" />
    <g
       id="g4606"
       transform="matrix(0.11067938,0,0,0.11067938,646.23156,812.2315)" />
    <g
       id="g4608"
       transform="matrix(0.11067938,0,0,0.11067938,646.23156,812.2315)" />
    <g
       id="g4610"
       transform="matrix(0.11067938,0,0,0.11067938,646.23156,812.2315)" />
    <g
       id="g4612"
       transform="matrix(0.11067938,0,0,0.11067938,646.23156,812.2315)" />
    <g
       id="g4614"
       transform="matrix(0.11067938,0,0,0.11067938,646.23156,812.2315)" />
    <g
       id="g4616"
       transform="matrix(0.11067938,0,0,0.11067938,646.23156,812.2315)" />
    <g
       id="g4618"
       transform="matrix(0.11067938,0,0,0.11067938,646.23156,812.2315)" />
    <g
       id="g4620"
       transform="matrix(0.11067938,0,0,0.11067938,646.23156,812.2315)" />
    <g
       id="g4622"
       transform="matrix(0.11067938,0,0,0.11067938,646.23156,812.2315)" />
    <g
       id="g4624"
       transform="matrix(0.11067938,0,0,0.11067938,646.23156,812.2315)" />
    <g
       id="g4626"
       transform="matrix(0.11067938,0,0,0.11067938,646.23156,812.2315)" />
    <path
       style="color:#000000;font-style:normal;font-variant:normal;font-weight:normal;font-stretch:normal;font-size:medium;line-height:normal;font-family:sans-serif;text-indent:0;text-align:start;text-decoration:none;text-decoration-line:none;text-decoration-style:solid;text-decoration-color:#000000;letter-spacing:normal;word-spacing:normal;text-transform:none;direction:ltr;block-progression:tb;writing-mode:lr-tb;baseline-shift:baseline;text-anchor:start;white-space:normal;clip-rule:nonzero;display:inline;overflow:visible;visibility:visible;opacity:1;isolation:auto;mix-blend-mode:normal;color-interpolation:sRGB;color-interpolation-filters:linearRGB;solid-color:#000000;solid-opacity:1;fill:#ff0a73;fill-opacity:1;fill-rule:evenodd;stroke:none;stroke-width:5;stroke-linecap:butt;stroke-linejoin:miter;stroke-miterlimit:4;stroke-dasharray:none;stroke-dashoffset:0;stroke-opacity:1;color-rendering:auto;image-rendering:auto;shape-rendering:auto;text-rendering:auto;enable-background:accumulate"
       d="m 887.38351,78.25 0,5 46.7072,0 10.9609,5.921875 9.8985,-5.921875 46.30559,0 0,-5 z"
       id="path8134"
       inkscape:connector-curvature="0"
       sodipodi:nodetypes="cccccccc" />
  </g>
  <g
     inkscape:groupmode="layer"
     id="layer16"
     inkscape:label="page">
    <g
       inkscape:groupmode="layer"
       id="layer18"
       inkscape:label="content" />
    <g
       inkscape:groupmode="layer"
       id="layer17"
       inkscape:label="nav">
      <g
         id="g12255"
         transform="translate(0,-6.0779324)">
        <path
           inkscape:connector-curvature="0"
           id="rect12246"
           d="m 1337.0147,164.01172 c -4.2664,0 -7.7002,3.43507 -7.7002,7.70143 l 0,19.93237 c 0,4.26636 3.4338,7.70018 7.7002,7.70018 l 19.9323,0 c 4.2664,0 7.7015,-3.43382 7.7015,-7.70018 l 0,-19.93237 c -10e-5,-4.26636 -3.4351,-7.70143 -7.7015,-7.70143 l -19.9323,0 z m 2.9942,6.51149 9.7609,0 c 0.3874,0 0.814,0.0966 1.2788,0.29029 0.4649,0.19368 0.8325,0.42579 1.1036,0.69695 l 2.2085,2.20845 c 0.2711,0.27115 0.5033,0.63876 0.6969,1.1036 0.1938,0.46484 0.2903,0.8914 0.2903,1.27877 l 0,3.71871 0.9297,0 c 0.7651,0 1.4211,0.27367 1.9682,0.82082 0.5472,0.54716 0.8209,1.20316 0.8209,1.96821 l 0,6.04228 c 0,0.1259 -0.046,0.23582 -0.1377,0.32783 -0.092,0.092 -0.2007,0.13763 -0.3266,0.13763 l -3.2545,0 0,2.32356 c 0,0.38737 -0.1355,0.71733 -0.4066,0.98849 -0.2712,0.27116 -0.5999,0.40666 -0.9873,0.40666 l -13.9451,0 c -0.3874,0 -0.7173,-0.1355 -0.9885,-0.40666 -0.2712,-0.27116 -0.4066,-0.60112 -0.4066,-0.98849 l 0,-2.32356 -3.2533,0 c -0.1259,0 -0.2357,-0.0456 -0.3279,-0.13763 -0.092,-0.092 -0.1376,-0.20193 -0.1376,-0.32783 l 0,-6.04228 c 0,-0.76505 0.2737,-1.42105 0.8208,-1.96821 0.5472,-0.54715 1.2031,-0.82082 1.9683,-0.82082 l 0.9297,0 0,-7.90288 c 0,-0.38737 0.1354,-0.71607 0.4066,-0.98723 0.2712,-0.27116 0.6011,-0.40666 0.9885,-0.40666 z m 0.4642,1.85935 0,9.29677 13.0155,0 0,-5.57806 -2.3236,0 c -0.3874,0 -0.7174,-0.1355 -0.9885,-0.40665 -0.2712,-0.27116 -0.4067,-0.60112 -0.4067,-0.98849 l 0,-2.32357 -9.2967,0 z m 15.8045,9.29677 c -0.2518,0 -0.4692,0.0913 -0.6532,0.27528 -0.1839,0.184 -0.2765,0.40261 -0.2765,0.6544 0,0.25179 0.093,0.46916 0.2765,0.65315 0.184,0.184 0.4014,0.27653 0.6532,0.27653 0.2518,0 0.4704,-0.0925 0.6544,-0.27653 0.184,-0.18399 0.2753,-0.40136 0.2753,-0.65315 0,-0.25179 -0.091,-0.4704 -0.2753,-0.6544 -0.184,-0.18401 -0.4026,-0.27528 -0.6544,-0.27528 z m -15.8045,5.57807 0,3.7187 13.0155,0 0,-3.7187 -13.0155,0 z"
           style="opacity:1;fill:#03a9f4;fill-opacity:1;fill-rule:nonzero;stroke:none;stroke-width:5;stroke-linecap:round;stroke-miterlimit:4;stroke-dasharray:none;stroke-dashoffset:0;stroke-opacity:1" />
        <path
           inkscape:connector-curvature="0"
           id="rect12249"
           d="m 1337.335,207.36745 c -4.2664,0 -7.7002,3.43507 -7.7002,7.70142 l 0,19.93112 c 0,4.26636 3.4338,7.70144 7.7002,7.70144 l 19.9324,0 c 4.2663,0 7.7014,-3.43508 7.7014,-7.70144 l 0,-19.93112 c -1e-4,-4.26635 -3.4351,-7.70142 -7.7014,-7.70142 l -19.9324,0 z m 1.26,6.05729 11.6091,0 c 0.3455,0 0.7252,0.0875 1.1399,0.26026 0.4146,0.17275 0.7428,0.38 0.9847,0.62186 l 4.0427,4.04153 c 0.2419,0.24186 0.4492,0.57012 0.6219,0.98473 0.1728,0.41462 0.259,0.79563 0.259,1.14114 l 0,14.92613 c 0,0.34551 -0.1209,0.63903 -0.3629,0.88088 -0.2418,0.24187 -0.5353,0.36287 -0.8808,0.36287 l -17.4136,0 c -0.3456,0 -0.6403,-0.121 -0.8822,-0.36287 -0.2418,-0.24185 -0.3628,-0.53537 -0.3628,-0.88088 l 0,-20.73066 c 0,-0.34551 0.121,-0.64028 0.3628,-0.88214 0.2419,-0.24185 0.5366,-0.36285 0.8822,-0.36285 z m 0.4142,1.65915 0,19.90109 16.584,0 0,-13.26698 -5.3891,0 c -0.3456,0 -0.6391,-0.121 -0.8809,-0.36286 -0.2419,-0.24186 -0.3629,-0.53536 -0.3629,-0.88088 l 0,-5.39037 -9.9511,0 z m 11.609,0.10385 0,4.87111 4.8724,0 c -0.086,-0.2505 -0.1817,-0.42688 -0.2853,-0.53053 l -4.0553,-4.0553 c -0.1037,-0.10365 -0.2813,-0.1989 -0.5318,-0.28528 z m -4.2104,4.87111 0.2852,0 c 0.1987,0 0.3494,0.0644 0.453,0.19394 0.1555,0.1814 0.1941,0.47616 0.1164,0.88213 -0.018,0.0518 -0.035,0.0853 -0.053,0.1026 0.01,0.0259 0.014,0.0607 0.014,0.10386 l 0,0.38913 c -0.017,1.06245 -0.078,1.89147 -0.1815,2.48748 0.4751,1.4166 1.1059,2.44514 1.892,3.08433 0.285,0.22459 0.648,0.46659 1.0885,0.72572 0.5097,-0.0605 1.0143,-0.0913 1.5153,-0.0913 1.2697,0 2.0344,0.21114 2.2935,0.63439 0.1382,0.19002 0.147,0.41529 0.026,0.67442 0,0.009 0,0.0177 -0.013,0.0263 l -0.026,0.025 0,0.0138 c -0.052,0.32824 -0.3583,0.49174 -0.9197,0.49174 -0.4146,0 -0.9115,-0.0863 -1.4902,-0.25901 -0.5787,-0.17275 -1.14,-0.40188 -1.6842,-0.68693 -1.9089,0.20731 -3.603,0.56643 -5.0801,1.07608 -1.3215,2.2631 -2.3655,3.39463 -3.1343,3.39463 -0.1296,0 -0.2506,-0.0309 -0.3629,-0.0913 l -0.3116,-0.15516 c -0.01,-0.009 -0.034,-0.0305 -0.078,-0.0651 -0.086,-0.0864 -0.1122,-0.24214 -0.078,-0.46672 0.078,-0.34551 0.3198,-0.74008 0.7258,-1.18493 0.4059,-0.44485 0.9761,-0.86129 1.7104,-1.25 0.1209,-0.0777 0.2201,-0.052 0.2978,0.0776 0.017,0.0173 0.026,0.034 0.026,0.0513 0.4492,-0.73421 0.9114,-1.58511 1.3864,-2.55254 0.5874,-1.17475 1.0367,-2.30627 1.3476,-3.39464 -0.2072,-0.7083 -0.3392,-1.39637 -0.3954,-2.06581 -0.056,-0.66942 -0.028,-1.22101 0.084,-1.65289 0.095,-0.34552 0.2765,-0.51802 0.5443,-0.51802 z m 0.2314,0.59685 c 0,0.009 -0.01,0.0164 -0.014,0.025 l 0,0.0263 0,0 c -0.1296,0.36279 -0.1383,0.93305 -0.026,1.71045 0.01,-0.0605 0.038,-0.25097 0.09,-0.57057 0,-0.0259 0.031,-0.2113 0.091,-0.5568 0.01,-0.0345 0.026,-0.0693 0.051,-0.10386 -0.01,-0.009 -0.014,-0.0177 -0.014,-0.0263 0,-0.009 0,-0.0145 -0.01,-0.0188 0,-0.004 -0.01,-0.0114 -0.01,-0.02 -0.01,-0.19003 -0.064,-0.34454 -0.1677,-0.46546 z m 0.04,4.98746 c -0.2332,0.74286 -0.5911,1.59375 -1.0748,2.55255 -0.2592,0.48372 -0.4535,0.84285 -0.5831,1.07608 1.1661,-0.46645 2.3928,-0.81659 3.6799,-1.0498 -0.017,-0.009 -0.074,-0.0492 -0.1689,-0.12262 -0.095,-0.0734 -0.1645,-0.13199 -0.2077,-0.17518 -0.6565,-0.57873 -1.2049,-1.3395 -1.6454,-2.28103 z m 4.8974,3.10936 c 0.6564,0.24185 1.192,0.36286 1.6066,0.36286 0.1209,0 0.1994,-0.004 0.234,-0.0125 0,-0.009 -0.01,-0.0215 -0.026,-0.0388 -0.2074,-0.20731 -0.8123,-0.31156 -1.8143,-0.31156 z m -8.3309,1.82807 c -0.4405,0.34551 -0.8183,0.70727 -1.1336,1.08733 -0.3152,0.38006 -0.5296,0.70057 -0.6418,0.95971 0.4491,-0.20731 1.0413,-0.88958 1.7754,-2.04704 z"
           style="opacity:1;fill:#03a9f4;fill-opacity:1;fill-rule:nonzero;stroke:none;stroke-width:5;stroke-linecap:round;stroke-miterlimit:4;stroke-dasharray:none;stroke-dashoffset:0;stroke-opacity:1" />
      </g>
    </g>
  </g>
  <g
     inkscape:groupmode="layer"
     id="layer10"
     inkscape:label="hidden-stuff"
     style="display:inline" />
</svg>
