<?xml version="1.0" encoding="UTF-8" standalone="no"?>
<!-- Created with Inkscape (http://www.inkscape.org/) -->

<svg
   xmlns:dc="http://purl.org/dc/elements/1.1/"
   xmlns:cc="http://creativecommons.org/ns#"
   xmlns:rdf="http://www.w3.org/1999/02/22-rdf-syntax-ns#"
   xmlns:svg="http://www.w3.org/2000/svg"
   xmlns="http://www.w3.org/2000/svg"
   xmlns:xlink="http://www.w3.org/1999/xlink"
   xmlns:sodipodi="http://sodipodi.sourceforge.net/DTD/sodipodi-0.dtd"
   xmlns:inkscape="http://www.inkscape.org/namespaces/inkscape"
   inkscape:version="0.91 r13725"
   version="1.1"
   id="svg2"
   viewBox="0 0 1680 1080"
   height="1080"
   width="1680"
   sodipodi:docname="0501-site-design-about-page.svg"
   inkscape:export-filename="/home/manjit/github/manjitkarve/mockups/site-design.png"
   inkscape:export-xdpi="90"
   inkscape:export-ydpi="90">
  <defs
     id="defs4">
    <inkscape:perspective
       sodipodi:type="inkscape:persp3d"
       inkscape:vp_x="375.89523 : 591.9491 : 1"
       inkscape:vp_y="0 : 476.41225 : 0"
       inkscape:vp_z="926.25637 : 590.99628 : 1"
       inkscape:persp3d-origin="613.70558 : 442.35566 : 1"
       id="perspective5722" />
    <inkscape:path-effect
       effect="spiro"
       id="path-effect8558"
       is_visible="true" />
    <pattern
       inkscape:collect="always"
       xlink:href="#pattern6433"
       id="pattern6451"
       patternTransform="translate(107.67497,-18.001961)" />
    <linearGradient
       id="linearGradient6856"
       inkscape:collect="always">
      <stop
         id="stop6858"
         offset="0"
         style="stop-color:#000000;stop-opacity:0" />
      <stop
         id="stop6860"
         offset="1"
         style="stop-color:#000000;stop-opacity:0.66197181" />
    </linearGradient>
    <pattern
       id="pattern8730"
       patternTransform="translate(84.117096,-131.97218)"
       height="18.612247"
       width="21.491245"
       patternUnits="userSpaceOnUse">
      <rect
         style="fill:url(#pattern8728);stroke:none"
         width="21.491245"
         height="18.612247"
         x="0"
         y="0"
         id="rect8726" />
    </pattern>
    <pattern
       patternTransform="matrix(1.4903593,0,0,1.4903593,-3.9472656e-6,-6.7724609e-6)"
       id="pattern8728"
       xlink:href="#pattern8723"
       inkscape:collect="always" />
    <pattern
       id="pattern8723"
       patternTransform="translate(84.117093,-131.97219)"
       height="12.48843"
       width="14.420177"
       patternUnits="userSpaceOnUse">
      <path
         id="path8710"
         d="m 6.1e-5,0 0,3.56807 L 3.089876,1.7842 3.089876,0 6.1e-5,0 Z m 4.120081,0 0,1.7842 3.089814,1.78387 3.090142,-1.78387 0,-1.7842 -6.179956,0 z m 7.209893,0 0,1.7842 3.090142,1.78387 0,-3.56807 -3.090142,0 z m -0.514967,2.67613 -3.090142,1.7842 0,3.56807 3.090142,1.78387 3.09014,-1.78387 0,-3.56807 -3.09014,-1.7842 z m -7.208256,3.4e-4 -3.090143,1.78387 0,3.56807 3.090143,1.7842 3.090142,-1.7842 0,-3.56807 L 3.606812,2.67647 Z M 0.0017,8.92067 0,8.92167 l 0,3.56676 3.091783,0 0,-1.78387 L 0.00164,8.92069 Z m 7.210222,0 -3.090141,1.78388 0,1.78387 6.180283,0 0,-1.78387 -3.090142,-1.78388 z m 7.208255,0 -3.090142,1.78388 0,1.78387 3.090142,0 0,-3.56775 z"
         style="opacity:1;fill:#ffffff;fill-opacity:0.65986394;fill-rule:nonzero;stroke:none;stroke-width:9.75;stroke-linecap:round;stroke-miterlimit:4;stroke-dasharray:none;stroke-dashoffset:0;stroke-opacity:1"
         inkscape:connector-curvature="0" />
    </pattern>
    <pattern
       patternUnits="userSpaceOnUse"
       width="11.2097"
       height="9.7078948"
       patternTransform="translate(998.70251,-74.06992)"
       id="pattern10751">
      <g
         inkscape:label="Layer 1"
         id="layer1-5"
         transform="matrix(0.73700993,0,0,0.73700993,-157.85467,-116.45802)">
        <path
           inkscape:connector-curvature="0"
           style="opacity:1;fill:#ffffff;fill-opacity:1;fill-rule:nonzero;stroke:none;stroke-width:9.75;stroke-linecap:round;stroke-miterlimit:4;stroke-dasharray:none;stroke-dashoffset:0;stroke-opacity:1"
           d="m 214.18282,158.01418 0,3.76337 3.25894,-1.88151 0,-1.88186 -3.25894,0 z m 4.3456,0 0,1.88186 3.25894,1.88151 3.25929,-1.88151 0,-1.88186 -6.51823,0 z m 7.60454,0 0,1.88186 3.25929,1.88151 0,-3.76337 -3.25929,0 z m -0.54315,2.82262 -3.25929,1.88186 0,3.76338 3.25929,1.88151 3.25928,-1.88151 0,-3.76338 -3.25928,-1.88186 z m -7.60282,3.5e-4 -3.25928,1.88152 0,3.76337 3.25928,1.88186 3.25929,-1.88186 0,-3.76337 -3.25929,-1.88152 z m -3.80244,6.586 -0.002,0.001 0,3.76199 3.26102,0 0,-1.88151 -3.25929,-1.88152 z m 7.60489,0 -3.25929,1.88151 0,1.88152 6.51857,0 0,-1.88152 -3.25928,-1.88151 z m 7.60281,0 -3.25929,1.88151 0,1.88152 3.25929,0 0,-3.76303 z"
           id="path6189-9" />
      </g>
    </pattern>
    <pattern
       patternUnits="userSpaceOnUse"
       width="15.20508"
       height="13.168015"
       patternTransform="translate(196.04421,-106.80595)"
       id="pattern6645">
      <path
         id="path4969"
         d="M 0,0 0,3.51172 3.04102,1.75586 3.04102,0 0,0 Z m 4.56055,0 0,1.75586 3.04102,1.75586 3.04297,-1.75586 0,-1.75586 -6.08399,0 z m 7.60352,0 0,1.75586 3.04101,1.75586 0,-3.51172 -3.04101,0 z m -8.36328,3.07226 -3.04102,1.75586 0,3.511723 3.04102,1.755859 3.04101,-1.755859 0,-3.511723 -3.04101,-1.75586 z m 7.60351,0 -3.04101,1.75586 0,3.511723 3.04101,1.755859 3.04102,-1.755859 0,-3.511723 L 11.4043,3.07226 Z M 0,9.656249 l 0,3.511719 3.04102,0 0,-1.75586 L 0,9.656249 Z m 7.60157,0 -3.04102,1.755859 0,1.75586 6.08399,0 0,-1.75586 -3.04297,-1.755859 z m 7.60351,0.002 -3.04101,1.753906 0,1.75586 3.04101,0 0,-3.509766 z"
         style="opacity:1;fill:#ffffff;fill-opacity:0.36912752;fill-rule:nonzero;stroke:none;stroke-width:9.75;stroke-linecap:round;stroke-miterlimit:4;stroke-dasharray:none;stroke-dashoffset:0;stroke-opacity:1"
         inkscape:connector-curvature="0" />
    </pattern>
    <radialGradient
       inkscape:collect="always"
       xlink:href="#linearGradient6856"
       id="radialGradient6656"
       cx="840.5"
       cy="-168.47122"
       fx="840.5"
       fy="-168.47122"
       r="840"
       gradientTransform="matrix(-0.83289578,0,0,-0.82840209,1540.5489,-64.699789)"
       gradientUnits="userSpaceOnUse" />
    <pattern
       patternUnits="userSpaceOnUse"
       width="19.70703"
       height="17.067104"
       patternTransform="translate(211.74172,-86.56426)"
       id="pattern6683">
      <path
         id="path4790"
         d="M 0,0 0,4.267405 3.69538,2.1337 3.69538,0 0,0 Z m 6.15814,0 0,2.1337 L 9.85352,4.267405 13.5489,2.1337 13.5489,0 6.15814,0 Z m 9.85351,0 0,2.1337 3.69538,2.133705 0,-4.267405 -3.69538,0 z M 4.92803,4.267405 1.23264,6.40111 l 0,4.264879 3.69539,2.133705 3.69286,-2.133705 0,-4.264879 -3.69286,-2.133705 z m 9.85351,0 -3.69538,2.133705 0,4.264879 3.69538,2.133705 3.69285,-2.133705 0,-4.264879 -3.69285,-2.133705 z M 0,12.799694 l 0,4.26741 3.69538,0 0,-2.133704 L 0,12.799694 Z m 9.85352,0 -3.69538,2.133706 0,2.133704 7.39076,0 0,-2.133704 -3.69538,-2.133706 z m 9.85351,0 -3.69538,2.133706 0,2.133704 3.69538,0 0,-4.26741 z"
         style="opacity:1;fill:#ffffff;fill-opacity:0.42281877;fill-rule:nonzero;stroke:none;stroke-width:9.75;stroke-linecap:round;stroke-miterlimit:4;stroke-dasharray:none;stroke-dashoffset:0;stroke-opacity:1"
         inkscape:connector-curvature="0" />
    </pattern>
    <pattern
       patternUnits="userSpaceOnUse"
       width="15.19739"
       height="13.1613"
       patternTransform="translate(263.31159,-49.261779)"
       id="pattern6768">
      <path
         id="rect6704"
         d="m 3.25663,4e-5 0,1.88033 L 0,3.76069 l 0,5.64064 3.25663,1.87998 0,1.87999 1.08543,0 0,-1.87999 3.25663,-1.87998 3.25664,1.87998 0,1.87999 1.08543,0 0,-1.87999 3.25663,-1.87998 0,-5.64202 -0.002,10e-4 -3.25663,-1.87997 0,-1.88034 -1.08543,0 0,1.88034 L 7.5967,3.76031 4.34007,1.88034 4.34007,0 3.25672,0 Z m 0.54065,2.82032 3.25662,1.87998 0,3.76031 -3.25662,1.88033 -3.25629,-1.88033 0,-3.76031 3.25629,-1.87998 z m 7.59868,0 3.25664,1.87998 0,3.76031 -3.25664,1.88033 -3.25662,-1.88033 0,-3.76031 3.25662,-1.87998 z"
         style="opacity:1;fill:#000000;fill-opacity:1;fill-rule:nonzero;stroke:none;stroke-width:9.75;stroke-linecap:round;stroke-miterlimit:4;stroke-dasharray:none;stroke-dashoffset:0;stroke-opacity:1"
         inkscape:connector-curvature="0" />
    </pattern>
    <pattern
       patternUnits="userSpaceOnUse"
       width="15.21207"
       height="13.17395"
       patternTransform="translate(274.64397,-47.474866)"
       id="pattern6851">
      <path
         id="rect6817"
         d="m 2.85234,0 0,1.64689 L 0,3.29379 l 0,6.58698 2.85234,1.64659 0,1.64659 1.90135,0 0,-1.64659 2.85234,-1.64659 2.85234,1.64659 0,1.64659 1.90135,0 0,-1.64659 2.85235,-1.64659 0,-6.58698 -2.85235,-1.6469 0,-1.64689 -1.90135,0 0,1.64689 L 7.60603,3.29379 4.75369,1.64689 4.75369,0 2.85234,0 Z m 0.95068,3.29379 2.85234,1.64659 0,3.29349 -2.85234,1.6469 -2.85235,-1.6469 0,-3.29349 2.85235,-1.64659 z m 7.60603,0 2.85234,1.64659 0,3.29349 -2.85234,1.6469 -2.85234,-1.6469 0,-3.29349 2.85234,-1.64659 z"
         style="opacity:1;fill:#000000;fill-opacity:1;fill-rule:nonzero;stroke:none;stroke-width:9.75;stroke-linecap:round;stroke-miterlimit:4;stroke-dasharray:none;stroke-dashoffset:0;stroke-opacity:1"
         inkscape:connector-curvature="0" />
    </pattern>
    <pattern
       patternUnits="userSpaceOnUse"
       width="15.21207"
       height="13.17395"
       patternTransform="translate(274.64397,-47.474866)"
       id="pattern6869">
      <path
         id="path6862"
         d="m 2.85234,0 0,1.64689 L 0,3.29379 l 0,6.58698 2.85234,1.64659 0,1.64659 1.90135,0 0,-1.64659 2.85234,-1.64659 2.85234,1.64659 0,1.64659 1.90135,0 0,-1.64659 2.85235,-1.64659 0,-6.58698 -2.85235,-1.6469 0,-1.64689 -1.90135,0 0,1.64689 L 7.60603,3.29379 4.75369,1.64689 4.75369,0 2.85234,0 Z m 0.95068,3.29379 2.85234,1.64659 0,3.29349 -2.85234,1.6469 -2.85235,-1.6469 0,-3.29349 2.85235,-1.64659 z m 7.60603,0 2.85234,1.64659 0,3.29349 -2.85234,1.6469 -2.85234,-1.6469 0,-3.29349 2.85234,-1.64659 z"
         style="opacity:1;fill:#444444;fill-opacity:1;fill-rule:nonzero;stroke:none;stroke-width:9.75;stroke-linecap:round;stroke-miterlimit:4;stroke-dasharray:none;stroke-dashoffset:0;stroke-opacity:1"
         inkscape:connector-curvature="0" />
    </pattern>
    <pattern
       patternUnits="userSpaceOnUse"
       width="13.75756"
       height="11.91446"
       patternTransform="translate(301.89954,-48.720119)"
       id="pattern6311">
      <path
         id="rect6251"
         d="m 2.75145,0 0,1.588729 L 0,3.177314 l 0,5.560122 2.75145,1.588575 0,1.588449 1.3758,0 0,-1.588449 2.75146,-1.588575 2.75159,1.588575 0,1.588449 1.37581,0 0,-1.588449 2.75145,-1.588575 0,-5.560122 -2.75145,-1.588585 0,-1.588729 -1.37581,0 0,1.588729 L 6.87871,3.177314 4.12725,1.588729 4.12725,0 2.75145,0 Z m 0.68798,2.780206 2.75145,1.588575 0,3.177178 -2.7516,1.588585 -2.75145,-1.588585 0,-3.177178 2.7516,-1.588575 z m 6.8787,0 2.75146,1.588575 0,3.177178 -2.75146,1.588585 -2.75145,-1.588585 0,-3.177178 2.75145,-1.588575 z"
         style="opacity:1;fill:#ff0f0f;fill-opacity:0.76619717;fill-rule:nonzero;stroke:none;stroke-width:9.75;stroke-linecap:round;stroke-miterlimit:4;stroke-dasharray:none;stroke-dashoffset:0;stroke-opacity:1"
         inkscape:connector-curvature="0" />
    </pattern>
    <pattern
       patternUnits="userSpaceOnUse"
       width="13.75756"
       height="11.91446"
       patternTransform="translate(301.89954,-48.720119)"
       id="pattern6332">
      <path
         id="path6330"
         d="m 2.75145,0 0,1.588729 L 0,3.177314 l 0,5.560122 2.75145,1.588575 0,1.588449 1.3758,0 0,-1.588449 2.75146,-1.588575 2.75159,1.588575 0,1.588449 1.37581,0 0,-1.588449 2.75145,-1.588575 0,-5.560122 -2.75145,-1.588585 0,-1.588729 -1.37581,0 0,1.588729 L 6.87871,3.177314 4.12725,1.588729 4.12725,0 2.75145,0 Z m 0.68798,2.780206 2.75145,1.588575 0,3.177178 -2.7516,1.588585 -2.75145,-1.588585 0,-3.177178 2.7516,-1.588575 z m 6.8787,0 2.75146,1.588575 0,3.177178 -2.75146,1.588585 -2.75145,-1.588585 0,-3.177178 2.75145,-1.588575 z"
         style="opacity:1;fill:#506c7b;fill-opacity:0.76619717;fill-rule:nonzero;stroke:none;stroke-width:9.75;stroke-linecap:round;stroke-miterlimit:4;stroke-dasharray:none;stroke-dashoffset:0;stroke-opacity:1"
         inkscape:connector-curvature="0" />
    </pattern>
    <pattern
       patternUnits="userSpaceOnUse"
       width="15.21207"
       height="13.17395"
       patternTransform="translate(277.64397,-21.836978)"
       id="pattern6349">
      <path
         id="path6347"
         d="m 2.85234,0 0,1.64689 L 0,3.29379 l 0,6.58698 2.85234,1.64659 0,1.64659 1.90135,0 0,-1.64659 2.85234,-1.64659 2.85234,1.64659 0,1.64659 1.90135,0 0,-1.64659 2.85235,-1.64659 0,-6.58698 -2.85235,-1.6469 0,-1.64689 -1.90135,0 0,1.64689 L 7.60603,3.29379 4.75369,1.64689 4.75369,0 2.85234,0 Z m 0.95068,3.29379 2.85234,1.64659 0,3.29349 -2.85234,1.6469 -2.85235,-1.6469 0,-3.29349 2.85235,-1.64659 z m 7.60603,0 2.85234,1.64659 0,3.29349 -2.85234,1.6469 -2.85234,-1.6469 0,-3.29349 2.85234,-1.64659 z"
         style="opacity:1;fill:#000000;fill-opacity:1;fill-rule:nonzero;stroke:none;stroke-width:9.75;stroke-linecap:round;stroke-miterlimit:4;stroke-dasharray:none;stroke-dashoffset:0;stroke-opacity:1"
         inkscape:connector-curvature="0" />
    </pattern>
    <pattern
       patternUnits="userSpaceOnUse"
       width="15.01564"
       height="13.00392"
       patternTransform="translate(109.67497,-18.001961)"
       id="pattern6433">
      <path
         id="path7620"
         d="M 0,0 0,2.88975 2.50259,1.44483 2.50259,0 0,0 Z m 5.00519,0 0,1.44483 2.50268,1.44492 2.50258,-1.44492 0,-1.44483 -5.00526,0 z m 7.50786,0 0,1.44483 2.50259,1.44492 0,-2.88975 -2.50259,0 z M 3.75389,3.61221 1.2513,5.05704 l 0,2.88975 2.50259,1.4449198 2.50259,-1.4449198 0,-2.88975 -2.50259,-1.44483 z m 7.50786,0 -2.50258,1.44483 0,2.88975 2.50258,1.4449198 2.5026,-1.4449198 0,-2.88975 -2.5026,-1.44483 z M 0,10.11417 l 0,2.88975 2.50259,0 0,-1.44492 L 0,10.11417 Z m 7.50787,0 -2.50268,1.44483 0,1.44492 5.00526,0 0,-1.44492 -2.50258,-1.44483 z m 7.50777,0 -2.50259,1.44483 0,1.44492 2.50259,0 0,-2.88975 z"
         style="opacity:1;fill:#ffffff;fill-opacity:1;fill-rule:nonzero;stroke:none;stroke-width:9.75;stroke-linecap:round;stroke-miterlimit:4;stroke-dasharray:none;stroke-dashoffset:0;stroke-opacity:1"
         inkscape:connector-curvature="0" />
    </pattern>
    <pattern
       patternUnits="userSpaceOnUse"
       width="15.01564"
       height="13.00392"
       patternTransform="translate(145.30939,-18.001961)"
       id="pattern6444">
      <path
         inkscape:connector-curvature="0"
         style="display:inline;opacity:1;fill:#000000;fill-opacity:1;fill-rule:nonzero;stroke:none;stroke-width:9.75;stroke-linecap:round;stroke-miterlimit:4;stroke-dasharray:none;stroke-dashoffset:0;stroke-opacity:1"
         d="m 2.50259,0 0,1.44483 L 0,2.88975 l 0,7.22442 2.50259,1.44483 0,1.44492 2.50259,0 0,-1.44492 2.50259,-1.44483 2.50259,1.44483 0,1.44492 2.50268,0 0,-1.44492 2.5026,-1.44483 0,-7.22442 -2.5026,-1.44492 0,-1.44483 -2.50268,0 0,1.44483 L 7.50777,2.88975 5.00518,1.44483 5.00518,0 2.50259,0 Z m 1.25129,3.61221 2.50259,1.44483 0,2.88975 L 3.75388,9.3917098 1.25129,7.94679 l 0,-2.88975 2.50259,-1.44483 z m 7.50787,0 2.50259,1.44483 0,2.88975 -2.50259,1.4449198 -2.50268,-1.4449198 0,-2.88975 2.50268,-1.44483 z"
         id="path6431" />
    </pattern>
  </defs>
  <sodipodi:namedview
     inkscape:window-maximized="1"
     inkscape:window-y="24"
     inkscape:window-x="0"
     inkscape:window-height="1013"
     inkscape:window-width="1920"
     width="1680px"
     units="px"
     showgrid="false"
     inkscape:current-layer="layer15"
     inkscape:document-units="px"
     inkscape:cy="576.70504"
     inkscape:cx="658.65579"
     inkscape:zoom="0.47379904"
     inkscape:pageshadow="2"
     inkscape:pageopacity="0.0"
     borderopacity="1.0"
     bordercolor="#666666"
     pagecolor="#ffffff"
     id="base"
     showguides="false"
     inkscape:guide-bbox="true"
     inkscape:object-paths="true"
     inkscape:snap-nodes="false"
     inkscape:snap-grids="true"
     inkscape:snap-to-guides="true"
     inkscape:snap-others="true"
     inkscape:object-nodes="false"
     inkscape:snap-midpoints="false">
    <sodipodi:guide
       position="-8.0309417e-07,1080"
       orientation="1080,0"
       id="guide4419" />
    <sodipodi:guide
       position="-8.0309417e-07,0"
       orientation="0,1"
       id="guide4421"
       inkscape:label=""
       inkscape:color="rgb(0,0,255)" />
    <sodipodi:guide
       position="1680,0"
       orientation="1,0"
       id="guide4423"
       inkscape:label=""
       inkscape:color="rgb(0,0,255)" />
    <sodipodi:guide
       position="1680.6316,1080"
       orientation="0,1"
       id="guide4425"
       inkscape:label=""
       inkscape:color="rgb(0,0,255)" />
    <sodipodi:guide
       position="373.87122,0.4765625"
       orientation="0,932.25757"
       id="guide4876" />
    <inkscape:grid
       type="xygrid"
       id="grid5632" />
    <sodipodi:guide
       position="430,1080"
       orientation="1,0"
       id="guide7950"
       inkscape:label=""
       inkscape:color="rgb(0,0,255)" />
    <sodipodi:guide
       position="1250,915"
       orientation="1,0"
       id="guide7952"
       inkscape:label=""
       inkscape:color="rgb(0,0,255)" />
    <sodipodi:guide
       position="720,1014"
       orientation="1,0"
       id="guide12226"
       inkscape:label=""
       inkscape:color="rgb(0,0,255)" />
    <sodipodi:guide
       position="670,968"
       orientation="1,0"
       id="guide12271"
       inkscape:label=""
       inkscape:color="rgb(0,0,255)" />
    <sodipodi:guide
       position="960,1004"
       orientation="1,0"
       id="guide12498"
       inkscape:label=""
       inkscape:color="rgb(0,0,255)" />
    <sodipodi:guide
       position="1010,814"
       orientation="1,0"
       id="guide12500"
       inkscape:label=""
       inkscape:color="rgb(0,0,255)" />
  </sodipodi:namedview>
  <metadata
     id="metadata7">
    <rdf:RDF>
      <cc:Work
         rdf:about="">
        <dc:format>image/svg+xml</dc:format>
        <dc:type
           rdf:resource="http://purl.org/dc/dcmitype/StillImage" />
        <dc:title />
      </cc:Work>
    </rdf:RDF>
  </metadata>
  <g
     inkscape:groupmode="layer"
     id="layer2"
     inkscape:label="miscellaneous"
     style="display:inline">
    <flowRoot
       xml:space="preserve"
       id="flowRoot4240"
       style="font-style:normal;font-weight:normal;font-size:40px;line-height:125%;font-family:sans-serif;letter-spacing:0px;word-spacing:0px;fill:#000000;fill-opacity:1;stroke:none;stroke-width:1px;stroke-linecap:butt;stroke-linejoin:miter;stroke-opacity:1"><flowRegion
         id="flowRegion4242"><rect
           id="rect4244"
           width="164"
           height="62.228912"
           x="1133"
           y="183" /></flowRegion><flowPara
         id="flowPara4246" /></flowRoot>    <flowRoot
       xml:space="preserve"
       id="flowRoot4248"
       style="font-style:normal;font-weight:normal;font-size:40px;line-height:125%;font-family:sans-serif;letter-spacing:0px;word-spacing:0px;fill:#000000;fill-opacity:1;stroke:none;stroke-width:1px;stroke-linecap:butt;stroke-linejoin:miter;stroke-opacity:1"><flowRegion
         id="flowRegion4250"><rect
           id="rect4252"
           width="162"
           height="60"
           x="1133"
           y="182" /></flowRegion><flowPara
         id="flowPara4254" /></flowRoot>    <rect
       style="opacity:1;fill:#03a9f4;fill-opacity:1;fill-rule:nonzero;stroke:#212121;stroke-width:11.41693783;stroke-linecap:round;stroke-miterlimit:4;stroke-dasharray:none;stroke-dashoffset:0;stroke-opacity:1"
       id="rect11529"
       width="148.4202"
       height="148.4202"
       x="-46.445545"
       y="-569.45844" />
    <rect
       y="-569.45844"
       x="-205.14098"
       height="148.4202"
       width="148.4202"
       id="rect11531"
       style="opacity:1;fill:#0288d1;fill-opacity:1;fill-rule:nonzero;stroke:#212121;stroke-width:11.41693783;stroke-linecap:round;stroke-miterlimit:4;stroke-dasharray:none;stroke-dashoffset:0;stroke-opacity:1" />
    <rect
       y="-569.45844"
       x="112.24995"
       height="148.4202"
       width="148.4202"
       id="rect11535"
       style="opacity:1;fill:#b3e5fc;fill-opacity:1;fill-rule:nonzero;stroke:#212121;stroke-width:11.41693783;stroke-linecap:round;stroke-miterlimit:4;stroke-dasharray:none;stroke-dashoffset:0;stroke-opacity:1" />
    <rect
       y="-567.70361"
       x="587.12213"
       height="148.4202"
       width="148.4202"
       id="rect11539"
       style="opacity:1;fill:#ff0a73;fill-opacity:1;fill-rule:nonzero;stroke:#212121;stroke-width:11.41693783;stroke-linecap:round;stroke-miterlimit:4;stroke-dasharray:none;stroke-dashoffset:0;stroke-opacity:1" />
    <rect
       style="opacity:1;fill:#c00053;fill-opacity:1;fill-rule:nonzero;stroke:#212121;stroke-width:11.41693783;stroke-linecap:round;stroke-miterlimit:4;stroke-dasharray:none;stroke-dashoffset:0;stroke-opacity:1"
       id="rect11541"
       width="148.4202"
       height="148.4202"
       x="428.4267"
       y="-567.70361" />
    <rect
       style="opacity:1;fill:#ff4081;fill-opacity:1;fill-rule:nonzero;stroke:#212121;stroke-width:11.41693783;stroke-linecap:round;stroke-miterlimit:4;stroke-dasharray:none;stroke-dashoffset:0;stroke-opacity:1"
       id="rect11543"
       width="148.4202"
       height="148.4202"
       x="745.81763"
       y="-567.70361" />
    <rect
       style="opacity:1;fill:#727272;fill-opacity:1;fill-rule:nonzero;stroke:#212121;stroke-width:11.41693783;stroke-linecap:round;stroke-miterlimit:4;stroke-dasharray:none;stroke-dashoffset:0;stroke-opacity:1"
       id="rect11545"
       width="148.4202"
       height="148.4202"
       x="1364.9396"
       y="-572.79883" />
    <rect
       y="-572.79883"
       x="1206.2441"
       height="148.4202"
       width="148.4202"
       id="rect11547"
       style="opacity:1;fill:#212121;fill-opacity:1;fill-rule:nonzero;stroke:#212121;stroke-width:11.41693783;stroke-linecap:round;stroke-miterlimit:4;stroke-dasharray:none;stroke-dashoffset:0;stroke-opacity:1" />
    <rect
       y="-572.79883"
       x="1523.6351"
       height="148.4202"
       width="148.4202"
       id="rect11549"
       style="opacity:1;fill:#b6b6b6;fill-opacity:1;fill-rule:nonzero;stroke:#212121;stroke-width:11.41693783;stroke-linecap:round;stroke-miterlimit:4;stroke-dasharray:none;stroke-dashoffset:0;stroke-opacity:1" />
    <rect
       style="opacity:1;fill:#ffffff;fill-opacity:1;fill-rule:nonzero;stroke:#212121;stroke-width:11.41693783;stroke-linecap:round;stroke-miterlimit:4;stroke-dasharray:none;stroke-dashoffset:0;stroke-opacity:1"
       id="rect11551"
       width="148.4202"
       height="148.4202"
       x="1681.1888"
       y="-572.79883" />
    <rect
       style="opacity:1;fill:#1f3038;fill-opacity:1;fill-rule:nonzero;stroke:#212121;stroke-width:11.41693783;stroke-linecap:round;stroke-miterlimit:4;stroke-dasharray:none;stroke-dashoffset:0;stroke-opacity:1"
       id="rect11553"
       width="148.4202"
       height="148.4202"
       x="-207.96942"
       y="-240.42764" />
    <rect
       style="opacity:1;fill:#3e4f58;fill-opacity:1;fill-rule:nonzero;stroke:#212121;stroke-width:11.41693783;stroke-linecap:round;stroke-miterlimit:4;stroke-dasharray:none;stroke-dashoffset:0;stroke-opacity:1"
       id="rect7954"
       width="148.4202"
       height="148.4202"
       x="-205.14098"
       y="-405.40967" />
    <rect
       style="opacity:1;fill:#56798b;fill-opacity:1;fill-rule:nonzero;stroke:#212121;stroke-width:11.41693783;stroke-linecap:round;stroke-miterlimit:4;stroke-dasharray:none;stroke-dashoffset:0;stroke-opacity:1"
       id="rect8124"
       width="148.4202"
       height="148.4202"
       x="-205.14098"
       y="-733.5072" />
  </g>
  <g
     inkscape:groupmode="layer"
     id="layer6"
     inkscape:label="background"
     style="display:inline"
     sodipodi:insensitive="true">
    <g
       inkscape:label="background 0"
       inkscape:groupmode="layer"
       id="layer1"
       transform="translate(0,27.637888)"
       style="display:inline;opacity:1"
       sodipodi:insensitive="true">
      <rect
         style="display:inline;opacity:1;fill:#01425f;fill-opacity:1;fill-rule:nonzero;stroke:none;stroke-width:1;stroke-linecap:round;stroke-miterlimit:4;stroke-dasharray:none;stroke-dashoffset:0;stroke-opacity:0.53246753"
         id="rect4427"
         width="1680"
         height="1080"
         x="0.5"
         y="-27.137888" />
    </g>
    <g
       inkscape:groupmode="layer"
       id="layer5"
       inkscape:label="background 1"
       style="display:inline;opacity:1"
       sodipodi:insensitive="true">
      <rect
         transform="translate(0,27.637888)"
         y="-27.137888"
         x="0.5"
         height="1080"
         width="1680"
         id="rect6325"
         style="display:inline;opacity:1;fill:url(#radialGradient6656);fill-opacity:1;fill-rule:nonzero;stroke:none;stroke-width:1;stroke-linecap:round;stroke-miterlimit:4;stroke-dasharray:none;stroke-dashoffset:0;stroke-opacity:0.53246753" />
    </g>
    <g
       inkscape:groupmode="layer"
       id="layer3"
       inkscape:label="background 2"
       style="display:inline;opacity:0.38800001"
       sodipodi:insensitive="true">
      <rect
         y="0"
         x="0"
         height="1080"
         width="1680"
         id="rect9392"
         style="display:inline;opacity:1;fill:url(#pattern6444);fill-opacity:1;fill-rule:nonzero;stroke:none;stroke-width:1;stroke-linecap:round;stroke-miterlimit:4;stroke-dasharray:none;stroke-dashoffset:0;stroke-opacity:0.53246753" />
    </g>
    <g
       inkscape:groupmode="layer"
       id="layer4"
       inkscape:label="background 3"
       style="display:inline;opacity:0.194"
       sodipodi:insensitive="true">
      <rect
         y="0"
         x="-2"
         height="1080"
         width="1680"
         id="rect5005"
         style="display:inline;opacity:1;fill:url(#pattern6451);fill-opacity:1;fill-rule:nonzero;stroke:none;stroke-width:1;stroke-linecap:round;stroke-miterlimit:4;stroke-dasharray:none;stroke-dashoffset:0;stroke-opacity:0.53246753" />
    </g>
    <g
       inkscape:groupmode="layer"
       id="layer14"
       inkscape:label="background 4">
      <text
         sodipodi:linespacing="125%"
         id="text7339"
         y="1074.3354"
         x="1546.8417"
         style="font-style:normal;font-variant:normal;font-weight:normal;font-stretch:normal;font-size:21.95249939px;line-height:125%;font-family:'Open Sans';-inkscape-font-specification:'Open Sans, Normal';text-align:start;letter-spacing:0px;word-spacing:0px;writing-mode:lr-tb;text-anchor:start;display:inline;opacity:1;fill:#b6b6b6;fill-opacity:1;stroke:none;stroke-width:1px;stroke-linecap:butt;stroke-linejoin:miter;stroke-opacity:1"
         xml:space="preserve"><tspan
           y="1074.3354"
           x="1546.8417"
           id="tspan7341"
           sodipodi:role="line">Manjit Karve</tspan></text>
      <path
         style="display:inline;opacity:1;fill:#03a9f4;fill-opacity:1;stroke:none;stroke-width:60;stroke-linecap:round;stroke-linejoin:round;stroke-miterlimit:4;stroke-dasharray:none;stroke-opacity:1"
         d="m 1531.2686,1057.016 a 9.8146652,9.8146652 0 0 0 -9.0228,9.7783 9.8146652,9.8146652 0 0 0 9.8147,9.8146 9.8146652,9.8146652 0 0 0 3.6599,-0.7134 l 0,-9.2482 -1.6356,0 0,5.7215 a 1.4082601,1.4082601 0 0 1 -2.4013,0.9982 l -7.1652,-7.1296 a 1.4082601,1.4082601 0 0 1 0.9933,-2.4063 l 5.757,0 0,-6.8151 z m 2.8162,0.1783 0,6.6368 3.0437,0 a 1.4082601,1.4082601 0 0 1 1.4082,1.4081 l 0,8.9134 a 9.8146652,9.8146652 0 0 0 3.3384,-7.3583 9.8146652,9.8146652 0 0 0 -7.7903,-9.6 z m -5.1618,9.453 2.3456,2.3339 0,-2.3339 -2.3456,0 z"
         id="path7343"
         inkscape:connector-curvature="0" />
      <path
         inkscape:connector-curvature="0"
         id="path7398"
         d="m 359.94454,1080 0,-968.1379 c 0,-6.58262 4.57593,-10.6905 10.40039,-10.6905 l 937.25467,0 c 5.7613,0 10.4004,9.1424 10.4004,9.1424 l 0,969.686 z"
         style="display:inline;opacity:1;fill:#1e2b32;fill-opacity:0.82745098;fill-rule:nonzero;stroke:none;stroke-width:9.75;stroke-linecap:round;stroke-miterlimit:4;stroke-dasharray:none;stroke-dashoffset:0;stroke-opacity:1"
         sodipodi:nodetypes="csssccc" />
    </g>
    <path
       style="display:inline;opacity:1;fill:#213037;fill-opacity:0.90052353;fill-rule:nonzero;stroke:none;stroke-width:9.75;stroke-linecap:round;stroke-miterlimit:4;stroke-dasharray:none;stroke-dashoffset:0;stroke-opacity:1"
       d="m 360,0.42248303 0,74.43603097 c 0,4.649862 4.63907,8.392396 10.40039,8.392396 l 939.19921,0 c 5.7613,0 10.4004,-3.742534 10.4004,-8.392396 l 0,-74.43603097 -960,0 z"
       id="rect7388"
       inkscape:connector-curvature="0" />
  </g>
  <g
     inkscape:groupmode="layer"
     id="layer7"
     inkscape:label="top-menu"
     style="display:inline">
    <g
       inkscape:groupmode="layer"
       id="layer15"
       inkscape:label="menu-bar">
      <g
         inkscape:groupmode="layer"
         id="layer12"
         inkscape:label="menu-text"
         style="display:inline">
        <text
           sodipodi:linespacing="125%"
           id="text4334"
           y="53.513721"
           x="883.99158"
           style="font-style:normal;font-variant:normal;font-weight:300;font-stretch:normal;font-size:32.45874786px;line-height:125%;font-family:'Open Sans';-inkscape-font-specification:'Open Sans, Light';text-align:start;letter-spacing:0px;word-spacing:0px;writing-mode:lr-tb;text-anchor:start;display:inline;fill:#03a9f4;fill-opacity:1;stroke:none;stroke-width:1px;stroke-linecap:butt;stroke-linejoin:miter;stroke-opacity:1"
           xml:space="preserve"><tspan
             y="53.513721"
             x="883.99158"
             id="tspan4336"
             sodipodi:role="line">Portfolio</tspan></text>
        <text
           xml:space="preserve"
           style="font-style:normal;font-variant:normal;font-weight:300;font-stretch:normal;font-size:32.45874786px;line-height:125%;font-family:'Open Sans';-inkscape-font-specification:'Open Sans, Light';text-align:start;letter-spacing:0px;word-spacing:0px;writing-mode:lr-tb;text-anchor:start;display:inline;fill:#03a9f4;fill-opacity:1;stroke:none;stroke-width:1px;stroke-linecap:butt;stroke-linejoin:miter;stroke-opacity:1"
           x="1023.9916"
           y="53.513721"
           id="text8126"
           sodipodi:linespacing="125%"><tspan
             sodipodi:role="line"
             id="tspan8128"
             x="1023.9916"
             y="53.513721">Résumé</tspan></text>
        <text
           sodipodi:linespacing="125%"
           id="text8130"
           y="53.513721"
           x="1157.9916"
           style="font-style:normal;font-variant:normal;font-weight:300;font-stretch:normal;font-size:32.45874786px;line-height:125%;font-family:'Open Sans';-inkscape-font-specification:'Open Sans, Light';text-align:start;letter-spacing:0px;word-spacing:0px;writing-mode:lr-tb;text-anchor:start;display:inline;fill:#03a9f4;fill-opacity:1;stroke:none;stroke-width:1px;stroke-linecap:butt;stroke-linejoin:miter;stroke-opacity:1"
           xml:space="preserve"><tspan
             y="53.513721"
             x="1157.9916"
             id="tspan8132"
             sodipodi:role="line">Services</tspan></text>
        <text
           xml:space="preserve"
           style="font-style:normal;font-variant:normal;font-weight:300;font-stretch:normal;font-size:32.45874786px;line-height:125%;font-family:'Open Sans';-inkscape-font-specification:'Open Sans, Light';text-align:start;letter-spacing:0px;word-spacing:0px;writing-mode:lr-tb;text-anchor:start;display:inline;fill:#03a9f4;fill-opacity:1;stroke:none;stroke-width:1px;stroke-linecap:butt;stroke-linejoin:miter;stroke-opacity:1"
           x="489.49158"
           y="53.513721"
           id="text6334"
           sodipodi:linespacing="125%"><tspan
             sodipodi:role="line"
             id="tspan6336"
             x="489.49158"
             y="53.513721">About</tspan></text>
        <text
           sodipodi:linespacing="125%"
           id="text6338"
           y="53.513721"
           x="597.99158"
           style="font-style:normal;font-variant:normal;font-weight:300;font-stretch:normal;font-size:32.45874786px;line-height:125%;font-family:'Open Sans';-inkscape-font-specification:'Open Sans, Light';text-align:start;letter-spacing:0px;word-spacing:0px;writing-mode:lr-tb;text-anchor:start;display:inline;fill:#03a9f4;fill-opacity:1;stroke:none;stroke-width:1px;stroke-linecap:butt;stroke-linejoin:miter;stroke-opacity:1"
           xml:space="preserve"><tspan
             y="53.513721"
             x="597.99158"
             id="tspan6340"
             sodipodi:role="line">Contact</tspan></text>
        <text
           xml:space="preserve"
           style="font-style:normal;font-variant:normal;font-weight:300;font-stretch:normal;font-size:32.45874786px;line-height:125%;font-family:'Open Sans';-inkscape-font-specification:'Open Sans, Light';text-align:start;letter-spacing:0px;word-spacing:0px;writing-mode:lr-tb;text-anchor:start;display:inline;fill:#03a9f4;fill-opacity:1;stroke:none;stroke-width:1px;stroke-linecap:butt;stroke-linejoin:miter;stroke-opacity:1"
           x="732.49158"
           y="53.513721"
           id="text6342"
           sodipodi:linespacing="125%"><tspan
             sodipodi:role="line"
             id="tspan6344"
             x="732.49158"
             y="53.513721">Blog</tspan></text>
      </g>
      <path
         style="color:#000000;font-style:normal;font-variant:normal;font-weight:normal;font-stretch:normal;font-size:medium;line-height:normal;font-family:sans-serif;text-indent:0;text-align:start;text-decoration:none;text-decoration-line:none;text-decoration-style:solid;text-decoration-color:#000000;letter-spacing:normal;word-spacing:normal;text-transform:none;direction:ltr;block-progression:tb;writing-mode:lr-tb;baseline-shift:baseline;text-anchor:start;white-space:normal;clip-rule:nonzero;display:inline;overflow:visible;visibility:visible;opacity:1;isolation:auto;mix-blend-mode:normal;color-interpolation:sRGB;color-interpolation-filters:linearRGB;solid-color:#000000;solid-opacity:1;fill:#ff0a73;fill-opacity:1;fill-rule:evenodd;stroke:none;stroke-width:5;stroke-linecap:butt;stroke-linejoin:miter;stroke-miterlimit:4;stroke-dasharray:none;stroke-dashoffset:0;stroke-opacity:1;color-rendering:auto;image-rendering:auto;shape-rendering:auto;text-rendering:auto;enable-background:accumulate"
         d="m 488.77178,78.25 0,5 34.02164,0 10.9609,5.921875 9.8985,-5.921875 32.87381,0 0,-5 z"
         id="path8134"
         inkscape:connector-curvature="0"
         sodipodi:nodetypes="cccccccc" />
    </g>
    <g
       inkscape:groupmode="layer"
       id="layer8"
       inkscape:label="big-pink-button"
       style="display:inline">
      <path
         style="display:inline;opacity:1;fill:#ff0a73;fill-opacity:1;stroke:none;stroke-width:60;stroke-linecap:round;stroke-linejoin:round;stroke-miterlimit:4;stroke-dasharray:none;stroke-opacity:1"
         d="m 838.1471,18.914647 a 22.964705,22.964705 0 0 0 -21.11177,22.879502 22.964705,22.964705 0 0 0 22.96475,22.964598 22.964705,22.964705 0 0 0 8.56367,-1.669107 l 0,-21.639288 -3.82712,0 0,13.387242 a 3.2950975,3.2950975 0 0 1 -5.61864,2.33562 L 822.35264,40.491036 a 3.2950975,3.2950975 0 0 1 2.32403,-5.630216 l 13.47043,0 0,-15.946173 z m 6.58953,0.417164 0,15.529009 7.12188,0 a 3.2950975,3.2950975 0 0 1 3.29477,3.294762 l 0,20.855973 a 22.964705,22.964705 0 0 0 7.81139,-17.217406 22.964705,22.964705 0 0 0 -18.22804,-22.462338 z m -12.07771,22.118541 5.48818,5.460817 0,-5.460817 -5.48818,0 z"
         id="path6718"
         inkscape:connector-curvature="0" />
    </g>
  </g>
  <g
     inkscape:groupmode="layer"
     id="layer16"
     inkscape:label="page">
    <g
       inkscape:groupmode="layer"
       id="layer18"
       inkscape:label="content">
      <text
         sodipodi:linespacing="125%"
         id="text9342"
         y="144.74544"
         x="430.25372"
         style="font-style:normal;font-variant:normal;font-weight:bold;font-stretch:normal;font-size:25px;line-height:125%;font-family:'Open Sans';-inkscape-font-specification:'Open Sans, Bold';text-align:start;letter-spacing:0px;word-spacing:0px;writing-mode:lr-tb;text-anchor:start;display:inline;fill:#03a9f4;fill-opacity:1;stroke:none;stroke-width:1px;stroke-linecap:butt;stroke-linejoin:miter;stroke-opacity:1"
         xml:space="preserve"><tspan
           y="144.74544"
           x="430.25372"
           sodipodi:role="line"
           id="tspan9346">Manjit Karve</tspan></text>
      <flowRoot
         xml:space="preserve"
         id="flowRoot9372"
         style="font-style:normal;font-variant:normal;font-weight:normal;font-stretch:normal;font-size:17.5px;line-height:150%;font-family:'Open Sans';-inkscape-font-specification:'Open Sans, Normal';text-align:justify;letter-spacing:0px;word-spacing:0px;writing-mode:lr;text-anchor:start;fill:#e6e6e6;fill-opacity:1;stroke:none;stroke-width:1px;stroke-linecap:butt;stroke-linejoin:miter;stroke-opacity:1;"
         transform="translate(2.497241,-25.82257)"><flowRegion
           id="flowRegion9374"><rect
             id="rect9376"
             width="817.41931"
             height="897.38458"
             x="429.7149"
             y="181.89584"
             style="font-style:normal;font-variant:normal;font-weight:normal;font-stretch:normal;font-size:17.5px;line-height:150%;font-family:'Open Sans';-inkscape-font-specification:'Open Sans, Normal';text-align:justify;writing-mode:lr;text-anchor:start;fill:#e6e6e6;fill-opacity:1;" /></flowRegion><flowPara
           id="flowPara9384">Lorem ipsum dolor sit amet, consectetur adipiscing elit. Duis sit amet massa sodales, rutrum neque eu, lobortis diam. Nunc dui sem, tempus in erat vel, ultricies egestas arcu. Nam pretium varius ipsum in vulputate. Donec fringilla eros sit amet odio auctor porta. Lorem ipsum dolor sit amet, consectetur adipiscing elit. Maecenas eu dui tempus, dapibus justo in, luctus velit. Nulla </flowPara><flowPara
           id="flowPara12117" /><flowPara
           id="flowPara12119">Nunc aliquet purus velit, ac laoreet ipsum aliquet vel. Proin placerat ante sit amet mi tristique dignissim. Quisque lacinia ex nec tempor rutrum. Praesent nibh ipsum, rutrum id commodo non, rhoncus ut tortor. Cras luctus augue ex, non pellentesque nisi aliquam sit amet. Morbi sollicitudin aliquet faucibus. Maecenas placerat tellus arcu, ut tincidunt velit sagittis nec. Maecenas eleifend id est eu eleifend.Proin non lorem finibus, volutpat elit nec, sagittis tortor. Vestibulum a enim mattis, condimentum leo in, commodo diam. Integer commodo luctus lacinia. </flowPara><flowPara
           id="flowPara12133" /><flowPara
           id="flowPara12135">Duis et faucibus tellus. Donec bibendum est non mattis mollis. Aenean dapibus, augue sit amet rutrum faucibus, massa erat maximus nisi, vel iaculis tellus ligula id nisi. Aenean sagittis neque enim, in porttitor urna aliquam consequat. Phasellus mattis sed massa nec venenatis. Morbi fermentum purus non ultrices laoreet. In quis facilisis tellus, consequat porttitor eros. Praesent consectetur mi justo, id commodo sem condimentum nec.Cras nec sodales erat. Curabitur convallis congue suscipit. Etiam mauris magna, malesuada non ipsum gravida, pellentesque porta ante. Curabitur at eleifend massa, nec malesuada nulla. Aenean enim felis, sollicitudin eget erat euismod, consequat sagittis ex. Integer ullamcorper nulla et lacus posuere ullamcorper. Phasellus eget nunc varius, bibendum sapien ut, posuere diam. </flowPara><flowPara
           id="flowPara12137" /><flowPara
           id="flowPara12139">Quisque lacinia lacus et nibh lacinia hendrerit. Phasellus ut accumsan mauris, id interdum leo.Fusce in tortor magna. Sed vestibulum aliquet enim ac dapibus. Sed semper suscipit enim at blandit. Proin quis orci lectus. Suspendisse viverra ipsum quis tortor pharetra tristique. Nulla facilisi. Phasellus ultricies mauris ut dolor gravida mollis. Quisque pretium euismod ante, porta pellentesque eros molestie vel. Proin sit amet eros maximus, scelerisque diam eu, vulputate urna. Vestibulum odio est, ornare dapibus libero vitae, pharetra faucibus est. Vivamus vel libero finibus, pharetra urna gravida, aliquet mauris. Quisque in convallis nibh, vel sollicitudin turpis. Vestibulum leo libero, faucibus eget turpis id, fringilla tincidunt ipsum. Maecenas id aliquam risus. Proin id iaculis ex. Vivamus lorem lorem, suscipit ac mi quis, vestibulum ultrices nisl.</flowPara><flowPara
           id="flowPara12121" /><flowPara
           id="flowPara12123" /><flowPara
           id="flowPara12125" /><flowPara
           id="flowPara12127" /><flowPara
           id="flowPara12129" /><flowPara
           id="flowPara12131" /></flowRoot>    </g>
    <g
       inkscape:groupmode="layer"
       id="layer17"
       inkscape:label="nav">
      <text
         sodipodi:linespacing="125%"
         id="text12551"
         y="135.91763"
         x="1057.9968"
         style="font-style:normal;font-variant:normal;font-weight:300;font-stretch:normal;font-size:18.7242012px;line-height:125%;font-family:Lato;-inkscape-font-specification:'Lato, Light';text-align:start;letter-spacing:0px;word-spacing:0px;writing-mode:lr-tb;text-anchor:start;display:inline;fill:#03a9f4;fill-opacity:1;stroke:none;stroke-width:1px;stroke-linecap:butt;stroke-linejoin:miter;stroke-opacity:1"
         xml:space="preserve"><tspan
           y="135.91763"
           x="1057.9968"
           id="tspan12553"
           sodipodi:role="line" /></text>
    </g>
  </g>
  <g
     inkscape:groupmode="layer"
     id="layer10"
     inkscape:label="hidden-stuff"
     style="display:inline" />
</svg>
