<?xml version="1.0" encoding="UTF-8" standalone="no"?>
<!-- Created with Inkscape (http://www.inkscape.org/) -->

<svg
   xmlns:dc="http://purl.org/dc/elements/1.1/"
   xmlns:cc="http://creativecommons.org/ns#"
   xmlns:rdf="http://www.w3.org/1999/02/22-rdf-syntax-ns#"
   xmlns:svg="http://www.w3.org/2000/svg"
   xmlns="http://www.w3.org/2000/svg"
   xmlns:xlink="http://www.w3.org/1999/xlink"
   xmlns:sodipodi="http://sodipodi.sourceforge.net/DTD/sodipodi-0.dtd"
   xmlns:inkscape="http://www.inkscape.org/namespaces/inkscape"
   inkscape:version="0.91 r13725"
   version="1.1"
   id="svg2"
   viewBox="0 0 349.97919 654.19714"
   height="654.19714"
   width="349.97919"
   sodipodi:docname="1001-mobile-sample-page.svg"
   inkscape:export-filename="/home/manjit/github/manjitkarve/mockups/site-design.png"
   inkscape:export-xdpi="90"
   inkscape:export-ydpi="90">
  <defs
     id="defs4">
    <pattern
       inkscape:collect="always"
       xlink:href="#pattern6451"
       id="pattern5194"
       patternTransform="translate(3765.675,85.998039)" />
    <pattern
       inkscape:collect="always"
       xlink:href="#pattern6444"
       id="pattern5192"
       patternTransform="translate(3803.3094,85.998039)" />
    <inkscape:perspective
       sodipodi:type="inkscape:persp3d"
       inkscape:vp_x="375.89523 : 591.9491 : 1"
       inkscape:vp_y="0 : 476.41225 : 0"
       inkscape:vp_z="926.25638 : 590.99628 : 1"
       inkscape:persp3d-origin="613.70559 : 442.35566 : 1"
       id="perspective5722" />
    <inkscape:path-effect
       effect="spiro"
       id="path-effect8558"
       is_visible="true" />
    <pattern
       inkscape:collect="always"
       xlink:href="#pattern6433"
       id="pattern6451"
       patternTransform="translate(107.67497,-18.001961)" />
    <linearGradient
       id="linearGradient6856"
       inkscape:collect="always">
      <stop
         id="stop6858"
         offset="0"
         style="stop-color:#000000;stop-opacity:0" />
      <stop
         id="stop6860"
         offset="1"
         style="stop-color:#000000;stop-opacity:0.66197181" />
    </linearGradient>
    <pattern
       id="pattern8730"
       patternTransform="translate(84.117096,-131.97218)"
       height="18.612247"
       width="21.491245"
       patternUnits="userSpaceOnUse">
      <rect
         style="fill:url(#pattern8728);stroke:none"
         width="21.491245"
         height="18.612247"
         x="0"
         y="0"
         id="rect8726" />
    </pattern>
    <pattern
       patternTransform="matrix(1.4903593,0,0,1.4903593,-3.9472656e-6,-6.7724609e-6)"
       id="pattern8728"
       xlink:href="#pattern8723"
       inkscape:collect="always" />
    <pattern
       id="pattern8723"
       patternTransform="translate(84.117093,-131.97219)"
       height="12.48843"
       width="14.420177"
       patternUnits="userSpaceOnUse">
      <path
         id="path8710"
         d="m 6.1e-5,0 0,3.56807 L 3.089876,1.7842 3.089876,0 6.1e-5,0 Z m 4.120081,0 0,1.7842 3.089814,1.78387 3.090142,-1.78387 0,-1.7842 -6.179956,0 z m 7.209893,0 0,1.7842 3.090142,1.78387 0,-3.56807 -3.090142,0 z m -0.514967,2.67613 -3.090142,1.7842 0,3.56807 3.090142,1.78387 3.09014,-1.78387 0,-3.56807 -3.09014,-1.7842 z m -7.208256,3.4e-4 -3.090143,1.78387 0,3.56807 3.090143,1.7842 3.090142,-1.7842 0,-3.56807 L 3.606812,2.67647 Z M 0.0017,8.92067 0,8.92167 l 0,3.56676 3.091783,0 0,-1.78387 L 0.00164,8.92069 Z m 7.210222,0 -3.090141,1.78388 0,1.78387 6.180283,0 0,-1.78387 -3.090142,-1.78388 z m 7.208255,0 -3.090142,1.78388 0,1.78387 3.090142,0 0,-3.56775 z"
         style="opacity:1;fill:#ffffff;fill-opacity:0.65986394;fill-rule:nonzero;stroke:none;stroke-width:9.75;stroke-linecap:round;stroke-miterlimit:4;stroke-dasharray:none;stroke-dashoffset:0;stroke-opacity:1"
         inkscape:connector-curvature="0" />
    </pattern>
    <pattern
       patternUnits="userSpaceOnUse"
       width="11.2097"
       height="9.7078948"
       patternTransform="translate(998.70251,-74.06992)"
       id="pattern10751">
      <g
         inkscape:label="Layer 1"
         id="layer1-5"
         transform="matrix(0.73700993,0,0,0.73700993,-157.85467,-116.45802)">
        <path
           inkscape:connector-curvature="0"
           style="opacity:1;fill:#ffffff;fill-opacity:1;fill-rule:nonzero;stroke:none;stroke-width:9.75;stroke-linecap:round;stroke-miterlimit:4;stroke-dasharray:none;stroke-dashoffset:0;stroke-opacity:1"
           d="m 214.18282,158.01418 0,3.76337 3.25894,-1.88151 0,-1.88186 -3.25894,0 z m 4.3456,0 0,1.88186 3.25894,1.88151 3.25929,-1.88151 0,-1.88186 -6.51823,0 z m 7.60454,0 0,1.88186 3.25929,1.88151 0,-3.76337 -3.25929,0 z m -0.54315,2.82262 -3.25929,1.88186 0,3.76338 3.25929,1.88151 3.25928,-1.88151 0,-3.76338 -3.25928,-1.88186 z m -7.60282,3.5e-4 -3.25928,1.88152 0,3.76337 3.25928,1.88186 3.25929,-1.88186 0,-3.76337 -3.25929,-1.88152 z m -3.80244,6.586 -0.002,0.001 0,3.76199 3.26102,0 0,-1.88151 -3.25929,-1.88152 z m 7.60489,0 -3.25929,1.88151 0,1.88152 6.51857,0 0,-1.88152 -3.25928,-1.88151 z m 7.60281,0 -3.25929,1.88151 0,1.88152 3.25929,0 0,-3.76303 z"
           id="path6189-9" />
      </g>
    </pattern>
    <pattern
       patternUnits="userSpaceOnUse"
       width="15.20508"
       height="13.168015"
       patternTransform="translate(196.04421,-106.80595)"
       id="pattern6645">
      <path
         id="path4969"
         d="M 0,0 0,3.51172 3.04102,1.75586 3.04102,0 0,0 Z m 4.56055,0 0,1.75586 3.04102,1.75586 3.04297,-1.75586 0,-1.75586 -6.08399,0 z m 7.60352,0 0,1.75586 3.04101,1.75586 0,-3.51172 -3.04101,0 z m -8.36328,3.07226 -3.04102,1.75586 0,3.511723 3.04102,1.755859 3.04101,-1.755859 0,-3.511723 -3.04101,-1.75586 z m 7.60351,0 -3.04101,1.75586 0,3.511723 3.04101,1.755859 3.04102,-1.755859 0,-3.511723 L 11.4043,3.07226 Z M 0,9.656249 l 0,3.511719 3.04102,0 0,-1.75586 L 0,9.656249 Z m 7.60157,0 -3.04102,1.755859 0,1.75586 6.08399,0 0,-1.75586 -3.04297,-1.755859 z m 7.60351,0.002 -3.04101,1.753906 0,1.75586 3.04101,0 0,-3.509766 z"
         style="opacity:1;fill:#ffffff;fill-opacity:0.36912752;fill-rule:nonzero;stroke:none;stroke-width:9.75;stroke-linecap:round;stroke-miterlimit:4;stroke-dasharray:none;stroke-dashoffset:0;stroke-opacity:1"
         inkscape:connector-curvature="0" />
    </pattern>
    <pattern
       patternUnits="userSpaceOnUse"
       width="19.70703"
       height="17.067104"
       patternTransform="translate(211.74172,-86.56426)"
       id="pattern6683">
      <path
         id="path4790"
         d="M 0,0 0,4.267405 3.69538,2.1337 3.69538,0 0,0 Z m 6.15814,0 0,2.1337 L 9.85352,4.267405 13.5489,2.1337 13.5489,0 6.15814,0 Z m 9.85351,0 0,2.1337 3.69538,2.133705 0,-4.267405 -3.69538,0 z M 4.92803,4.267405 1.23264,6.40111 l 0,4.264879 3.69539,2.133705 3.69286,-2.133705 0,-4.264879 -3.69286,-2.133705 z m 9.85351,0 -3.69538,2.133705 0,4.264879 3.69538,2.133705 3.69285,-2.133705 0,-4.264879 -3.69285,-2.133705 z M 0,12.799694 l 0,4.26741 3.69538,0 0,-2.133704 L 0,12.799694 Z m 9.85352,0 -3.69538,2.133706 0,2.133704 7.39076,0 0,-2.133704 -3.69538,-2.133706 z m 9.85351,0 -3.69538,2.133706 0,2.133704 3.69538,0 0,-4.26741 z"
         style="opacity:1;fill:#ffffff;fill-opacity:0.42281877;fill-rule:nonzero;stroke:none;stroke-width:9.75;stroke-linecap:round;stroke-miterlimit:4;stroke-dasharray:none;stroke-dashoffset:0;stroke-opacity:1"
         inkscape:connector-curvature="0" />
    </pattern>
    <pattern
       patternUnits="userSpaceOnUse"
       width="15.19739"
       height="13.1613"
       patternTransform="translate(263.31159,-49.261779)"
       id="pattern6768">
      <path
         id="rect6704"
         d="m 3.25663,4e-5 0,1.88033 L 0,3.76069 l 0,5.64064 3.25663,1.87998 0,1.87999 1.08543,0 0,-1.87999 3.25663,-1.87998 3.25664,1.87998 0,1.87999 1.08543,0 0,-1.87999 3.25663,-1.87998 0,-5.64202 -0.002,10e-4 -3.25663,-1.87997 0,-1.88034 -1.08543,0 0,1.88034 L 7.5967,3.76031 4.34007,1.88034 4.34007,0 3.25672,0 Z m 0.54065,2.82032 3.25662,1.87998 0,3.76031 -3.25662,1.88033 -3.25629,-1.88033 0,-3.76031 3.25629,-1.87998 z m 7.59868,0 3.25664,1.87998 0,3.76031 -3.25664,1.88033 -3.25662,-1.88033 0,-3.76031 3.25662,-1.87998 z"
         style="opacity:1;fill:#000000;fill-opacity:1;fill-rule:nonzero;stroke:none;stroke-width:9.75;stroke-linecap:round;stroke-miterlimit:4;stroke-dasharray:none;stroke-dashoffset:0;stroke-opacity:1"
         inkscape:connector-curvature="0" />
    </pattern>
    <pattern
       patternUnits="userSpaceOnUse"
       width="15.21207"
       height="13.17395"
       patternTransform="translate(274.64397,-47.474866)"
       id="pattern6851">
      <path
         id="rect6817"
         d="m 2.85234,0 0,1.64689 L 0,3.29379 l 0,6.58698 2.85234,1.64659 0,1.64659 1.90135,0 0,-1.64659 2.85234,-1.64659 2.85234,1.64659 0,1.64659 1.90135,0 0,-1.64659 2.85235,-1.64659 0,-6.58698 -2.85235,-1.6469 0,-1.64689 -1.90135,0 0,1.64689 L 7.60603,3.29379 4.75369,1.64689 4.75369,0 2.85234,0 Z m 0.95068,3.29379 2.85234,1.64659 0,3.29349 -2.85234,1.6469 -2.85235,-1.6469 0,-3.29349 2.85235,-1.64659 z m 7.60603,0 2.85234,1.64659 0,3.29349 -2.85234,1.6469 -2.85234,-1.6469 0,-3.29349 2.85234,-1.64659 z"
         style="opacity:1;fill:#000000;fill-opacity:1;fill-rule:nonzero;stroke:none;stroke-width:9.75;stroke-linecap:round;stroke-miterlimit:4;stroke-dasharray:none;stroke-dashoffset:0;stroke-opacity:1"
         inkscape:connector-curvature="0" />
    </pattern>
    <pattern
       patternUnits="userSpaceOnUse"
       width="15.21207"
       height="13.17395"
       patternTransform="translate(274.64397,-47.474866)"
       id="pattern6869">
      <path
         id="path6862"
         d="m 2.85234,0 0,1.64689 L 0,3.29379 l 0,6.58698 2.85234,1.64659 0,1.64659 1.90135,0 0,-1.64659 2.85234,-1.64659 2.85234,1.64659 0,1.64659 1.90135,0 0,-1.64659 2.85235,-1.64659 0,-6.58698 -2.85235,-1.6469 0,-1.64689 -1.90135,0 0,1.64689 L 7.60603,3.29379 4.75369,1.64689 4.75369,0 2.85234,0 Z m 0.95068,3.29379 2.85234,1.64659 0,3.29349 -2.85234,1.6469 -2.85235,-1.6469 0,-3.29349 2.85235,-1.64659 z m 7.60603,0 2.85234,1.64659 0,3.29349 -2.85234,1.6469 -2.85234,-1.6469 0,-3.29349 2.85234,-1.64659 z"
         style="opacity:1;fill:#444444;fill-opacity:1;fill-rule:nonzero;stroke:none;stroke-width:9.75;stroke-linecap:round;stroke-miterlimit:4;stroke-dasharray:none;stroke-dashoffset:0;stroke-opacity:1"
         inkscape:connector-curvature="0" />
    </pattern>
    <pattern
       patternUnits="userSpaceOnUse"
       width="13.75756"
       height="11.91446"
       patternTransform="translate(301.89954,-48.720119)"
       id="pattern6311">
      <path
         id="rect6251"
         d="m 2.75145,0 0,1.588729 L 0,3.177314 l 0,5.560122 2.75145,1.588575 0,1.588449 1.3758,0 0,-1.588449 2.75146,-1.588575 2.75159,1.588575 0,1.588449 1.37581,0 0,-1.588449 2.75145,-1.588575 0,-5.560122 -2.75145,-1.588585 0,-1.588729 -1.37581,0 0,1.588729 L 6.87871,3.177314 4.12725,1.588729 4.12725,0 2.75145,0 Z m 0.68798,2.780206 2.75145,1.588575 0,3.177178 -2.7516,1.588585 -2.75145,-1.588585 0,-3.177178 2.7516,-1.588575 z m 6.8787,0 2.75146,1.588575 0,3.177178 -2.75146,1.588585 -2.75145,-1.588585 0,-3.177178 2.75145,-1.588575 z"
         style="opacity:1;fill:#ff0f0f;fill-opacity:0.76619717;fill-rule:nonzero;stroke:none;stroke-width:9.75;stroke-linecap:round;stroke-miterlimit:4;stroke-dasharray:none;stroke-dashoffset:0;stroke-opacity:1"
         inkscape:connector-curvature="0" />
    </pattern>
    <pattern
       patternUnits="userSpaceOnUse"
       width="13.75756"
       height="11.91446"
       patternTransform="translate(301.89954,-48.720119)"
       id="pattern6332">
      <path
         id="path6330"
         d="m 2.75145,0 0,1.588729 L 0,3.177314 l 0,5.560122 2.75145,1.588575 0,1.588449 1.3758,0 0,-1.588449 2.75146,-1.588575 2.75159,1.588575 0,1.588449 1.37581,0 0,-1.588449 2.75145,-1.588575 0,-5.560122 -2.75145,-1.588585 0,-1.588729 -1.37581,0 0,1.588729 L 6.87871,3.177314 4.12725,1.588729 4.12725,0 2.75145,0 Z m 0.68798,2.780206 2.75145,1.588575 0,3.177178 -2.7516,1.588585 -2.75145,-1.588585 0,-3.177178 2.7516,-1.588575 z m 6.8787,0 2.75146,1.588575 0,3.177178 -2.75146,1.588585 -2.75145,-1.588585 0,-3.177178 2.75145,-1.588575 z"
         style="opacity:1;fill:#506c7b;fill-opacity:0.76619717;fill-rule:nonzero;stroke:none;stroke-width:9.75;stroke-linecap:round;stroke-miterlimit:4;stroke-dasharray:none;stroke-dashoffset:0;stroke-opacity:1"
         inkscape:connector-curvature="0" />
    </pattern>
    <pattern
       patternUnits="userSpaceOnUse"
       width="15.21207"
       height="13.17395"
       patternTransform="translate(277.64397,-21.836978)"
       id="pattern6349">
      <path
         id="path6347"
         d="m 2.85234,0 0,1.64689 L 0,3.29379 l 0,6.58698 2.85234,1.64659 0,1.64659 1.90135,0 0,-1.64659 2.85234,-1.64659 2.85234,1.64659 0,1.64659 1.90135,0 0,-1.64659 2.85235,-1.64659 0,-6.58698 -2.85235,-1.6469 0,-1.64689 -1.90135,0 0,1.64689 L 7.60603,3.29379 4.75369,1.64689 4.75369,0 2.85234,0 Z m 0.95068,3.29379 2.85234,1.64659 0,3.29349 -2.85234,1.6469 -2.85235,-1.6469 0,-3.29349 2.85235,-1.64659 z m 7.60603,0 2.85234,1.64659 0,3.29349 -2.85234,1.6469 -2.85234,-1.6469 0,-3.29349 2.85234,-1.64659 z"
         style="opacity:1;fill:#000000;fill-opacity:1;fill-rule:nonzero;stroke:none;stroke-width:9.75;stroke-linecap:round;stroke-miterlimit:4;stroke-dasharray:none;stroke-dashoffset:0;stroke-opacity:1"
         inkscape:connector-curvature="0" />
    </pattern>
    <pattern
       patternUnits="userSpaceOnUse"
       width="15.01564"
       height="13.00392"
       patternTransform="translate(109.67497,-18.001961)"
       id="pattern6433">
      <path
         id="path7620"
         d="M 0,0 0,2.88975 2.50259,1.44483 2.50259,0 0,0 Z m 5.00519,0 0,1.44483 2.50268,1.44492 2.50258,-1.44492 0,-1.44483 -5.00526,0 z m 7.50786,0 0,1.44483 2.50259,1.44492 0,-2.88975 -2.50259,0 z M 3.75389,3.61221 1.2513,5.05704 l 0,2.88975 2.50259,1.4449198 2.50259,-1.4449198 0,-2.88975 -2.50259,-1.44483 z m 7.50786,0 -2.50258,1.44483 0,2.88975 2.50258,1.4449198 2.5026,-1.4449198 0,-2.88975 -2.5026,-1.44483 z M 0,10.11417 l 0,2.88975 2.50259,0 0,-1.44492 L 0,10.11417 Z m 7.50787,0 -2.50268,1.44483 0,1.44492 5.00526,0 0,-1.44492 -2.50258,-1.44483 z m 7.50777,0 -2.50259,1.44483 0,1.44492 2.50259,0 0,-2.88975 z"
         style="opacity:1;fill:#ffffff;fill-opacity:1;fill-rule:nonzero;stroke:none;stroke-width:9.75;stroke-linecap:round;stroke-miterlimit:4;stroke-dasharray:none;stroke-dashoffset:0;stroke-opacity:1"
         inkscape:connector-curvature="0" />
    </pattern>
    <pattern
       patternUnits="userSpaceOnUse"
       width="15.01564"
       height="13.00392"
       patternTransform="translate(145.30939,-18.001961)"
       id="pattern6444">
      <path
         inkscape:connector-curvature="0"
         style="display:inline;opacity:1;fill:#000000;fill-opacity:1;fill-rule:nonzero;stroke:none;stroke-width:9.75;stroke-linecap:round;stroke-miterlimit:4;stroke-dasharray:none;stroke-dashoffset:0;stroke-opacity:1"
         d="m 2.50259,0 0,1.44483 L 0,2.88975 l 0,7.22442 2.50259,1.44483 0,1.44492 2.50259,0 0,-1.44492 2.50259,-1.44483 2.50259,1.44483 0,1.44492 2.50268,0 0,-1.44492 2.5026,-1.44483 0,-7.22442 -2.5026,-1.44492 0,-1.44483 -2.50268,0 0,1.44483 L 7.50777,2.88975 5.00518,1.44483 5.00518,0 2.50259,0 Z m 1.25129,3.61221 2.50259,1.44483 0,2.88975 L 3.75388,9.3917098 1.25129,7.94679 l 0,-2.88975 2.50259,-1.44483 z m 7.50787,0 2.50259,1.44483 0,2.88975 -2.50259,1.4449198 -2.50268,-1.4449198 0,-2.88975 2.50268,-1.44483 z"
         id="path6431" />
    </pattern>
    <radialGradient
       inkscape:collect="always"
       xlink:href="#linearGradient6856"
       id="radialGradient5190"
       gradientUnits="userSpaceOnUse"
       gradientTransform="matrix(-0.17350964,0,0,-0.5017947,2149.3453,29.550195)"
       cx="840.5"
       cy="-168.47122"
       fx="840.5"
       fy="-168.47122"
       r="840" />
  </defs>
  <sodipodi:namedview
     inkscape:window-maximized="1"
     inkscape:window-y="24"
     inkscape:window-x="0"
     inkscape:window-height="1013"
     inkscape:window-width="1920"
     width="1680px"
     units="px"
     showgrid="false"
     inkscape:current-layer="layer20"
     inkscape:document-units="px"
     inkscape:cy="365.95715"
     inkscape:cx="8.7555681"
     inkscape:zoom="0.89550781"
     inkscape:pageshadow="2"
     inkscape:pageopacity="0.0"
     borderopacity="1.0"
     bordercolor="#666666"
     pagecolor="#ffffff"
     id="base"
     showguides="false"
     inkscape:guide-bbox="true"
     inkscape:object-paths="true"
     inkscape:snap-nodes="true"
     inkscape:snap-grids="true"
     inkscape:snap-to-guides="true"
     inkscape:snap-others="false"
     inkscape:object-nodes="true"
     inkscape:snap-midpoints="false"
     fit-margin-top="0"
     fit-margin-left="0"
     fit-margin-right="0"
     fit-margin-bottom="0">
    <sodipodi:guide
       position="-1828,706.19714"
       orientation="1080,0"
       id="guide4419" />
    <sodipodi:guide
       position="-1828,-373.80285"
       orientation="0,1"
       id="guide4421"
       inkscape:label=""
       inkscape:color="rgb(0,0,255)" />
    <sodipodi:guide
       position="-148,-373.80285"
       orientation="1,0"
       id="guide4423"
       inkscape:label=""
       inkscape:color="rgb(0,0,255)" />
    <sodipodi:guide
       position="-147.3684,706.19714"
       orientation="0,1"
       id="guide4425"
       inkscape:label=""
       inkscape:color="rgb(0,0,255)" />
    <sodipodi:guide
       position="-1454.1288,-373.32629"
       orientation="0,932.25757"
       id="guide4876" />
    <inkscape:grid
       type="xygrid"
       id="grid5632"
       originx="-1828"
       originy="-373.80285" />
    <sodipodi:guide
       position="-1401,477.19714"
       orientation="1,0"
       id="guide7950" />
    <sodipodi:guide
       position="-580,541.19714"
       orientation="1,0"
       id="guide7952" />
  </sodipodi:namedview>
  <metadata
     id="metadata7">
    <rdf:RDF>
      <cc:Work
         rdf:about="">
        <dc:format>image/svg+xml</dc:format>
        <dc:type
           rdf:resource="http://purl.org/dc/dcmitype/StillImage" />
        <dc:title />
      </cc:Work>
    </rdf:RDF>
  </metadata>
  <g
     inkscape:groupmode="layer"
     id="layer2"
     inkscape:label="miscellaneous"
     style="display:inline"
     transform="translate(-1828,-52)"
     sodipodi:insensitive="true">
    <flowRoot
       xml:space="preserve"
       id="flowRoot4240"
       style="font-style:normal;font-weight:normal;font-size:40px;line-height:125%;font-family:sans-serif;letter-spacing:0px;word-spacing:0px;fill:#000000;fill-opacity:1;stroke:none;stroke-width:1px;stroke-linecap:butt;stroke-linejoin:miter;stroke-opacity:1"><flowRegion
         id="flowRegion4242"><rect
           id="rect4244"
           width="164"
           height="62.228912"
           x="1133"
           y="183" /></flowRegion><flowPara
         id="flowPara4246" /></flowRoot>    <flowRoot
       xml:space="preserve"
       id="flowRoot4248"
       style="font-style:normal;font-weight:normal;font-size:40px;line-height:125%;font-family:sans-serif;letter-spacing:0px;word-spacing:0px;fill:#000000;fill-opacity:1;stroke:none;stroke-width:1px;stroke-linecap:butt;stroke-linejoin:miter;stroke-opacity:1"><flowRegion
         id="flowRegion4250"><rect
           id="rect4252"
           width="162"
           height="60"
           x="1133"
           y="182" /></flowRegion><flowPara
         id="flowPara4254" /></flowRoot>    <rect
       style="opacity:1;fill:#03a9f4;fill-opacity:1;fill-rule:nonzero;stroke:#212121;stroke-width:11.41693783;stroke-linecap:round;stroke-miterlimit:4;stroke-dasharray:none;stroke-dashoffset:0;stroke-opacity:1"
       id="rect11529"
       width="148.4202"
       height="148.4202"
       x="1377.5544"
       y="-569.45844" />
    <rect
       y="-569.45844"
       x="1218.859"
       height="148.4202"
       width="148.4202"
       id="rect11531"
       style="opacity:1;fill:#0288d1;fill-opacity:1;fill-rule:nonzero;stroke:#212121;stroke-width:11.41693783;stroke-linecap:round;stroke-miterlimit:4;stroke-dasharray:none;stroke-dashoffset:0;stroke-opacity:1" />
    <rect
       y="-569.45844"
       x="1536.25"
       height="148.4202"
       width="148.4202"
       id="rect11535"
       style="opacity:1;fill:#b3e5fc;fill-opacity:1;fill-rule:nonzero;stroke:#212121;stroke-width:11.41693783;stroke-linecap:round;stroke-miterlimit:4;stroke-dasharray:none;stroke-dashoffset:0;stroke-opacity:1" />
    <rect
       y="-567.70361"
       x="2011.1221"
       height="148.4202"
       width="148.4202"
       id="rect11539"
       style="opacity:1;fill:#ff0a73;fill-opacity:1;fill-rule:nonzero;stroke:#212121;stroke-width:11.41693783;stroke-linecap:round;stroke-miterlimit:4;stroke-dasharray:none;stroke-dashoffset:0;stroke-opacity:1" />
    <rect
       style="opacity:1;fill:#c00053;fill-opacity:1;fill-rule:nonzero;stroke:#212121;stroke-width:11.41693783;stroke-linecap:round;stroke-miterlimit:4;stroke-dasharray:none;stroke-dashoffset:0;stroke-opacity:1"
       id="rect11541"
       width="148.4202"
       height="148.4202"
       x="1852.4266"
       y="-567.70361" />
    <rect
       style="opacity:1;fill:#ff4081;fill-opacity:1;fill-rule:nonzero;stroke:#212121;stroke-width:11.41693783;stroke-linecap:round;stroke-miterlimit:4;stroke-dasharray:none;stroke-dashoffset:0;stroke-opacity:1"
       id="rect11543"
       width="148.4202"
       height="148.4202"
       x="2169.8176"
       y="-567.70361" />
    <rect
       style="opacity:1;fill:#727272;fill-opacity:1;fill-rule:nonzero;stroke:#212121;stroke-width:11.41693783;stroke-linecap:round;stroke-miterlimit:4;stroke-dasharray:none;stroke-dashoffset:0;stroke-opacity:1"
       id="rect11545"
       width="148.4202"
       height="148.4202"
       x="2788.9395"
       y="-572.79883" />
    <rect
       y="-572.79883"
       x="2630.2441"
       height="148.4202"
       width="148.4202"
       id="rect11547"
       style="opacity:1;fill:#212121;fill-opacity:1;fill-rule:nonzero;stroke:#212121;stroke-width:11.41693783;stroke-linecap:round;stroke-miterlimit:4;stroke-dasharray:none;stroke-dashoffset:0;stroke-opacity:1" />
    <rect
       y="-572.79883"
       x="2947.635"
       height="148.4202"
       width="148.4202"
       id="rect11549"
       style="opacity:1;fill:#b6b6b6;fill-opacity:1;fill-rule:nonzero;stroke:#212121;stroke-width:11.41693783;stroke-linecap:round;stroke-miterlimit:4;stroke-dasharray:none;stroke-dashoffset:0;stroke-opacity:1" />
    <rect
       style="opacity:1;fill:#ffffff;fill-opacity:1;fill-rule:nonzero;stroke:#212121;stroke-width:11.41693783;stroke-linecap:round;stroke-miterlimit:4;stroke-dasharray:none;stroke-dashoffset:0;stroke-opacity:1"
       id="rect11551"
       width="148.4202"
       height="148.4202"
       x="3105.1887"
       y="-572.79883" />
    <rect
       style="opacity:1;fill:#1f3038;fill-opacity:1;fill-rule:nonzero;stroke:#212121;stroke-width:11.41693783;stroke-linecap:round;stroke-miterlimit:4;stroke-dasharray:none;stroke-dashoffset:0;stroke-opacity:1"
       id="rect11553"
       width="148.4202"
       height="148.4202"
       x="1216.0305"
       y="-240.42764" />
    <rect
       style="opacity:1;fill:#3e4f58;fill-opacity:1;fill-rule:nonzero;stroke:#212121;stroke-width:11.41693783;stroke-linecap:round;stroke-miterlimit:4;stroke-dasharray:none;stroke-dashoffset:0;stroke-opacity:1"
       id="rect7954"
       width="148.4202"
       height="148.4202"
       x="1218.859"
       y="-405.40967" />
    <rect
       style="opacity:1;fill:#56798b;fill-opacity:1;fill-rule:nonzero;stroke:#212121;stroke-width:11.41693783;stroke-linecap:round;stroke-miterlimit:4;stroke-dasharray:none;stroke-dashoffset:0;stroke-opacity:1"
       id="rect8124"
       width="148.4202"
       height="148.4202"
       x="1218.859"
       y="-733.5072" />
  </g>
  <g
     inkscape:groupmode="layer"
     id="layer6"
     inkscape:label="background"
     style="display:inline"
     transform="translate(-1828,-52)">
    <g
       inkscape:label="background 0"
       inkscape:groupmode="layer"
       id="layer1"
       transform="translate(0,27.637888)"
       style="display:inline;opacity:1">
      <rect
         y="24.664982"
         x="1828.5208"
         height="654.19714"
         width="349.97919"
         id="rect5168"
         style="display:inline;opacity:1;fill:#01425f;fill-opacity:1;fill-rule:nonzero;stroke:none;stroke-width:1;stroke-linecap:round;stroke-miterlimit:4;stroke-dasharray:none;stroke-dashoffset:0;stroke-opacity:0.53246753" />
    </g>
    <g
       inkscape:groupmode="layer"
       id="layer5"
       inkscape:label="background 1"
       style="display:inline;opacity:1">
      <rect
         style="display:inline;opacity:1;fill:url(#radialGradient5190);fill-opacity:1;fill-rule:nonzero;stroke:none;stroke-width:1;stroke-linecap:round;stroke-miterlimit:4;stroke-dasharray:none;stroke-dashoffset:0;stroke-opacity:0.53246753"
         id="rect5170"
         width="349.97919"
         height="654.19714"
         x="1828.5208"
         y="52.302868" />
    </g>
    <g
       inkscape:groupmode="layer"
       id="layer3"
       inkscape:label="background 2"
       style="display:inline;opacity:0.38800001">
      <rect
         style="display:inline;opacity:1;fill:url(#pattern5192);fill-opacity:1;fill-rule:nonzero;stroke:none;stroke-width:1;stroke-linecap:round;stroke-miterlimit:4;stroke-dasharray:none;stroke-dashoffset:0;stroke-opacity:0.53246753"
         id="rect5172"
         width="349.97919"
         height="654.19714"
         x="1828.4166"
         y="52" />
    </g>
    <g
       inkscape:groupmode="layer"
       id="layer4"
       inkscape:label="background 3"
       style="display:inline;opacity:0.194">
      <rect
         style="display:inline;opacity:1;fill:url(#pattern5194);fill-opacity:1;fill-rule:nonzero;stroke:none;stroke-width:1;stroke-linecap:round;stroke-miterlimit:4;stroke-dasharray:none;stroke-dashoffset:0;stroke-opacity:0.53246753"
         id="rect5174"
         width="349.97919"
         height="654.19714"
         x="1828"
         y="52" />
    </g>
    <g
       inkscape:groupmode="layer"
       id="layer20"
       inkscape:label="background 4"
       style="display:inline">
      <rect
         style="display:inline;opacity:1;fill:#203036;fill-opacity:0.90196078;fill-rule:nonzero;stroke:none;stroke-width:5;stroke-linecap:round;stroke-miterlimit:4;stroke-dasharray:none;stroke-dashoffset:0;stroke-opacity:1"
         id="rect5230"
         width="350.49994"
         height="46.165916"
         x="1828"
         y="52"
         ry="0" />
      <text
         sodipodi:linespacing="125%"
         id="text5180-7"
         y="83.444023"
         x="1876.9911"
         style="font-style:normal;font-variant:normal;font-weight:normal;font-stretch:normal;font-size:21.95249939px;line-height:125%;font-family:'Open Sans';-inkscape-font-specification:'Open Sans, Normal';text-align:start;letter-spacing:0px;word-spacing:0px;writing-mode:lr-tb;text-anchor:start;display:inline;fill:#ff0a73;fill-opacity:1;stroke:none;stroke-width:1px;stroke-linecap:butt;stroke-linejoin:miter;stroke-opacity:1"
         xml:space="preserve"><tspan
           y="83.444023"
           x="1876.9911"
           id="tspan5182-4"
           sodipodi:role="line">Manjit Karve</tspan></text>
      <path
         style="display:inline;opacity:1;fill:#ff0a73;fill-opacity:1;stroke:none;stroke-width:60;stroke-linecap:round;stroke-linejoin:round;stroke-miterlimit:4;stroke-dasharray:none;stroke-opacity:1"
         d="m 1852.3965,56.077951 a 18.464704,18.464704 0 0 0 -16.9749,18.396197 18.464704,18.464704 0 0 0 18.4648,18.464617 18.464704,18.464704 0 0 0 6.8855,-1.342043 l 0,-17.399003 -3.0772,0 0,10.763973 a 2.6494135,2.6494135 0 0 1 -4.5176,1.877948 L 1839.697,73.426384 a 2.6494135,2.6494135 0 0 1 1.8686,-4.526959 l 10.8309,0 0,-12.821474 z m 5.2982,0.335419 0,12.486055 5.7264,0 a 2.6494135,2.6494135 0 0 1 2.6492,2.649144 l 0,16.769184 a 18.464704,18.464704 0 0 0 6.2807,-13.843605 18.464704,18.464704 0 0 0 -14.6563,-18.060778 z m -9.711,17.784349 4.4128,4.390754 0,-4.390754 -4.4128,0 z"
         id="path6718-2"
         inkscape:connector-curvature="0" />
      <path
         style="opacity:1;fill:#03a9f4;fill-opacity:1;fill-rule:nonzero;stroke:none;stroke-width:5;stroke-linecap:round;stroke-miterlimit:4;stroke-dasharray:none;stroke-dashoffset:0;stroke-opacity:1"
         d="m 2103.8418,57.415966 c -4.2664,0 -7.6992,3.436765 -7.6992,7.703125 l 0,19.93164 c 0,4.26636 3.4328,7.699219 7.6992,7.699219 l 19.9336,0 c 4.2664,0 7.7012,-3.432859 7.7012,-7.699219 l 0,-19.93164 c -10e-5,-4.26636 -3.4348,-7.703125 -7.7012,-7.703125 l -19.9336,0 z m 8.0644,5.292969 c 1.4178,0 2.7726,0.275873 4.0665,0.826171 1.294,0.550301 2.4106,1.293473 3.3476,2.230469 0.937,0.936993 1.6801,2.05371 2.2305,3.347656 0.5502,1.293946 0.8261,2.648518 0.8261,4.066407 0,2.181364 -0.6162,4.160708 -1.8457,5.935547 l 5.1016,5.099609 c 0.3669,0.366866 0.5508,0.814332 0.5508,1.339844 0,0.515594 -0.1879,0.961108 -0.5645,1.33789 -0.3769,0.37678 -0.8242,0.566407 -1.3398,0.566407 -0.5354,0 -0.9809,-0.189627 -1.3379,-0.566407 l -5.1016,-5.085937 c -1.7748,1.229497 -3.7523,1.84375 -5.9336,1.84375 -1.4179,0 -2.7744,-0.275872 -4.0683,-0.826172 -1.2941,-0.550299 -2.4089,-1.293475 -3.3457,-2.230469 -0.937,-0.936996 -1.6821,-2.051757 -2.2324,-3.345703 -0.5504,-1.293947 -0.8243,-2.650473 -0.8243,-4.068359 0,-1.417889 0.2739,-2.772461 0.8243,-4.066407 0.5503,-1.293946 1.2954,-2.410663 2.2324,-3.347656 0.9368,-0.936996 2.0516,-1.680168 3.3457,-2.230469 1.2939,-0.550298 2.6504,-0.826172 4.0683,-0.826171 z m 0,3.808593 c -1.8344,0 -3.4052,0.651218 -4.7089,1.955078 -1.304,1.303862 -1.9551,2.872701 -1.9551,4.707032 0,1.834328 0.6511,3.403169 1.9551,4.707031 1.3037,1.303863 2.8745,1.957031 4.7089,1.957031 1.8344,0 3.4032,-0.653168 4.7071,-1.957031 1.3039,-1.303862 1.9551,-2.872703 1.9551,-4.707031 0,-1.834331 -0.6512,-3.40317 -1.9551,-4.707032 -1.3039,-1.30386 -2.8727,-1.955078 -4.7071,-1.955078 z"
         id="path5363"
         inkscape:connector-curvature="0" />
      <path
         style="opacity:1;fill:#03a9f4;fill-opacity:1;fill-rule:nonzero;stroke:none;stroke-width:5;stroke-linecap:round;stroke-miterlimit:4;stroke-dasharray:none;stroke-dashoffset:0;stroke-opacity:1"
         d="m 2145.3125,57.415966 c -4.2664,0 -7.7012,3.436765 -7.7012,7.703125 l 0,19.93164 c 0,4.26636 3.4348,7.699219 7.7012,7.699219 l 19.9316,0 c 4.2664,0 7.7012,-3.432859 7.7012,-7.699219 l 0,-19.93164 c -10e-5,-4.26636 -3.4348,-7.703125 -7.7012,-7.703125 l -19.9316,0 z m -0.4863,8.166015 20.9062,0 c 0.2574,0 0.4799,0.09318 0.668,0.28125 0.1881,0.188069 0.2812,0.410612 0.2812,0.667969 l 0,1.900391 c 0,0.257356 -0.093,0.4799 -0.2812,0.667968 -0.1881,0.188069 -0.4106,0.283204 -0.668,0.283204 l -20.9062,0 c -0.2574,0 -0.4799,-0.09513 -0.668,-0.283204 -0.1881,-0.188068 -0.2812,-0.410612 -0.2812,-0.667968 l 0,-1.900391 c 0,-0.257357 0.093,-0.4799 0.2812,-0.667969 0.1881,-0.188068 0.4106,-0.28125 0.668,-0.28125 z m 0,7.601563 20.9062,0 c 0.2574,0 0.4799,0.09318 0.668,0.28125 0.1881,0.188068 0.2812,0.410611 0.2812,0.667969 l 0,1.90039 c 0,0.257358 -0.093,0.481854 -0.2812,0.669922 -0.1881,0.188069 -0.4106,0.28125 -0.668,0.28125 l -20.9062,0 c -0.2574,0 -0.4799,-0.09318 -0.668,-0.28125 -0.1881,-0.188068 -0.2812,-0.412564 -0.2812,-0.669922 l 0,-1.90039 c 0,-0.257358 0.093,-0.479901 0.2812,-0.667969 0.1881,-0.188069 0.4106,-0.28125 0.668,-0.28125 z m 0,7.601562 20.9062,0 c 0.2574,0 0.4799,0.09318 0.668,0.28125 0.1881,0.188069 0.2812,0.412566 0.2812,0.669922 l 0,1.900391 c 0,0.257357 -0.093,0.479899 -0.2812,0.667969 -0.1881,0.188068 -0.4106,0.28125 -0.668,0.28125 l -20.9062,0 c -0.2574,0 -0.4799,-0.09318 -0.668,-0.28125 -0.1881,-0.18807 -0.2812,-0.410612 -0.2812,-0.667969 l 0,-1.900391 c 0,-0.257356 0.093,-0.481853 0.2812,-0.669922 0.1881,-0.188069 0.4106,-0.28125 0.668,-0.28125 z"
         id="path5366"
         inkscape:connector-curvature="0" />
    </g>
  </g>
  <g
     inkscape:groupmode="layer"
     id="layer7"
     inkscape:label="top-menu"
     style="display:inline"
     transform="translate(-1828,-52)">
    <g
       inkscape:groupmode="layer"
       id="layer15"
       inkscape:label="menu-bar" />
    <g
       inkscape:groupmode="layer"
       id="layer8"
       inkscape:label="big-pink-button" />
  </g>
  <g
     inkscape:groupmode="layer"
     id="layer9"
     inkscape:label="menu"
     transform="translate(-1828,-52)">
    <g
       inkscape:groupmode="layer"
       id="layer13"
       inkscape:label="central-menu-submenus">
      <g
         style="font-style:normal;font-variant:normal;font-weight:600;font-stretch:normal;font-size:131.16098022px;line-height:125%;font-family:'Open Sans';-inkscape-font-specification:'Open Sans, Semi-Bold';text-align:start;letter-spacing:0px;word-spacing:0px;writing-mode:lr-tb;text-anchor:start;fill:#000000;fill-opacity:1;stroke:none;stroke-width:1px;stroke-linecap:butt;stroke-linejoin:miter;stroke-opacity:1"
         id="text4440" />
    </g>
    <g
       inkscape:groupmode="layer"
       id="layer11"
       inkscape:label="central-menu-text" />
    <g
       inkscape:groupmode="layer"
       id="layer12"
       inkscape:label="central-menu-text-hidden"
       style="display:inline" />
    <g
       id="g4598"
       transform="matrix(0.11067938,0,0,0.11067938,646.23156,812.2315)" />
    <g
       id="g4600"
       transform="matrix(0.11067938,0,0,0.11067938,646.23156,812.2315)" />
    <g
       id="g4602"
       transform="matrix(0.11067938,0,0,0.11067938,646.23156,812.2315)" />
    <g
       id="g4604"
       transform="matrix(0.11067938,0,0,0.11067938,646.23156,812.2315)" />
    <g
       id="g4606"
       transform="matrix(0.11067938,0,0,0.11067938,646.23156,812.2315)" />
    <g
       id="g4608"
       transform="matrix(0.11067938,0,0,0.11067938,646.23156,812.2315)" />
    <g
       id="g4610"
       transform="matrix(0.11067938,0,0,0.11067938,646.23156,812.2315)" />
    <g
       id="g4612"
       transform="matrix(0.11067938,0,0,0.11067938,646.23156,812.2315)" />
    <g
       id="g4614"
       transform="matrix(0.11067938,0,0,0.11067938,646.23156,812.2315)" />
    <g
       id="g4616"
       transform="matrix(0.11067938,0,0,0.11067938,646.23156,812.2315)" />
    <g
       id="g4618"
       transform="matrix(0.11067938,0,0,0.11067938,646.23156,812.2315)" />
    <g
       id="g4620"
       transform="matrix(0.11067938,0,0,0.11067938,646.23156,812.2315)" />
    <g
       id="g4622"
       transform="matrix(0.11067938,0,0,0.11067938,646.23156,812.2315)" />
    <g
       id="g4624"
       transform="matrix(0.11067938,0,0,0.11067938,646.23156,812.2315)" />
    <g
       id="g4626"
       transform="matrix(0.11067938,0,0,0.11067938,646.23156,812.2315)" />
  </g>
  <g
     inkscape:groupmode="layer"
     id="layer16"
     inkscape:label="page"
     transform="translate(-1828,-52)">
    <g
       inkscape:groupmode="layer"
       id="layer18"
       inkscape:label="content" />
    <g
       inkscape:groupmode="layer"
       id="layer17"
       inkscape:label="nav">
      <rect
         style="display:inline;opacity:0.903;fill:#3e4f58;fill-opacity:1;fill-rule:nonzero;stroke:none;stroke-width:5;stroke-linecap:round;stroke-miterlimit:4;stroke-dasharray:none;stroke-dashoffset:0;stroke-opacity:1"
         id="rect5655"
         width="349.979"
         height="608.03125"
         x="1828.0002"
         y="98.165916"
         ry="0" />
    </g>
  </g>
  <g
     inkscape:groupmode="layer"
     id="layer10"
     inkscape:label="hidden-stuff"
     style="display:inline"
     transform="translate(-1828,-52)" />
</svg>
