<?xml version="1.0" encoding="UTF-8" standalone="no"?>
<!-- Created with Inkscape (http://www.inkscape.org/) -->

<svg
   xmlns:dc="http://purl.org/dc/elements/1.1/"
   xmlns:cc="http://creativecommons.org/ns#"
   xmlns:rdf="http://www.w3.org/1999/02/22-rdf-syntax-ns#"
   xmlns:svg="http://www.w3.org/2000/svg"
   xmlns="http://www.w3.org/2000/svg"
   xmlns:xlink="http://www.w3.org/1999/xlink"
   xmlns:sodipodi="http://sodipodi.sourceforge.net/DTD/sodipodi-0.dtd"
   xmlns:inkscape="http://www.inkscape.org/namespaces/inkscape"
   inkscape:version="0.91 r13725"
   version="1.1"
   id="svg2"
   viewBox="0 0 1680 1080"
   height="1080"
   width="1680"
   sodipodi:docname="site-design.svg"
   inkscape:export-filename="/home/manjit/github/manjitkarve/mockups/site-design.png"
   inkscape:export-xdpi="90"
   inkscape:export-ydpi="90">
  <defs
     id="defs4">
    <pattern
       inkscape:collect="always"
       xlink:href="#pattern6433"
       id="pattern6451"
       patternTransform="translate(109.67497,-18.001961)" />
    <pattern
       inkscape:collect="always"
       xlink:href="#pattern10751"
       id="pattern6822"
       patternTransform="translate(1000.7025,1091.9301)" />
    <linearGradient
       id="linearGradient6856"
       inkscape:collect="always">
      <stop
         id="stop6858"
         offset="0"
         style="stop-color:#000000;stop-opacity:0" />
      <stop
         id="stop6860"
         offset="1"
         style="stop-color:#000000;stop-opacity:0.66197181" />
    </linearGradient>
    <pattern
       id="pattern8730"
       patternTransform="translate(84.117096,-131.97218)"
       height="18.612247"
       width="21.491245"
       patternUnits="userSpaceOnUse">
      <rect
         style="fill:url(#pattern8728);stroke:none"
         width="21.491245"
         height="18.612247"
         x="0"
         y="0"
         id="rect8726" />
    </pattern>
    <pattern
       patternTransform="matrix(1.4903593,0,0,1.4903593,-3.9472656e-6,-6.7724609e-6)"
       id="pattern8728"
       xlink:href="#pattern8723"
       inkscape:collect="always" />
    <pattern
       id="pattern8723"
       patternTransform="translate(84.117093,-131.97219)"
       height="12.48843"
       width="14.420177"
       patternUnits="userSpaceOnUse">
      <path
         id="path8710"
         d="m 6.1e-5,0 0,3.56807 L 3.089876,1.7842 3.089876,0 6.1e-5,0 Z m 4.120081,0 0,1.7842 3.089814,1.78387 3.090142,-1.78387 0,-1.7842 -6.179956,0 z m 7.209893,0 0,1.7842 3.090142,1.78387 0,-3.56807 -3.090142,0 z m -0.514967,2.67613 -3.090142,1.7842 0,3.56807 3.090142,1.78387 3.09014,-1.78387 0,-3.56807 -3.09014,-1.7842 z m -7.208256,3.4e-4 -3.090143,1.78387 0,3.56807 3.090143,1.7842 3.090142,-1.7842 0,-3.56807 L 3.606812,2.67647 Z M 0.0017,8.92067 0,8.92167 l 0,3.56676 3.091783,0 0,-1.78387 L 0.00164,8.92069 Z m 7.210222,0 -3.090141,1.78388 0,1.78387 6.180283,0 0,-1.78387 -3.090142,-1.78388 z m 7.208255,0 -3.090142,1.78388 0,1.78387 3.090142,0 0,-3.56775 z"
         style="opacity:1;fill:#ffffff;fill-opacity:0.65986394;fill-rule:nonzero;stroke:none;stroke-width:9.75;stroke-linecap:round;stroke-miterlimit:4;stroke-dasharray:none;stroke-dashoffset:0;stroke-opacity:1"
         inkscape:connector-curvature="0" />
    </pattern>
    <pattern
       patternUnits="userSpaceOnUse"
       width="11.2097"
       height="9.7078948"
       patternTransform="translate(998.70251,-74.06992)"
       id="pattern10751">
      <g
         inkscape:label="Layer 1"
         id="layer1-5"
         transform="matrix(0.73700993,0,0,0.73700993,-157.85467,-116.45802)">
        <path
           inkscape:connector-curvature="0"
           style="opacity:1;fill:#ffffff;fill-opacity:1;fill-rule:nonzero;stroke:none;stroke-width:9.75;stroke-linecap:round;stroke-miterlimit:4;stroke-dasharray:none;stroke-dashoffset:0;stroke-opacity:1"
           d="m 214.18282,158.01418 0,3.76337 3.25894,-1.88151 0,-1.88186 -3.25894,0 z m 4.3456,0 0,1.88186 3.25894,1.88151 3.25929,-1.88151 0,-1.88186 -6.51823,0 z m 7.60454,0 0,1.88186 3.25929,1.88151 0,-3.76337 -3.25929,0 z m -0.54315,2.82262 -3.25929,1.88186 0,3.76338 3.25929,1.88151 3.25928,-1.88151 0,-3.76338 -3.25928,-1.88186 z m -7.60282,3.5e-4 -3.25928,1.88152 0,3.76337 3.25928,1.88186 3.25929,-1.88186 0,-3.76337 -3.25929,-1.88152 z m -3.80244,6.586 -0.002,0.001 0,3.76199 3.26102,0 0,-1.88151 -3.25929,-1.88152 z m 7.60489,0 -3.25929,1.88151 0,1.88152 6.51857,0 0,-1.88152 -3.25928,-1.88151 z m 7.60281,0 -3.25929,1.88151 0,1.88152 3.25929,0 0,-3.76303 z"
           id="path6189-9" />
      </g>
    </pattern>
    <pattern
       patternUnits="userSpaceOnUse"
       width="15.20508"
       height="13.168015"
       patternTransform="translate(196.04421,-106.80595)"
       id="pattern6645">
      <path
         id="path4969"
         d="M 0,0 0,3.51172 3.04102,1.75586 3.04102,0 0,0 Z m 4.56055,0 0,1.75586 3.04102,1.75586 3.04297,-1.75586 0,-1.75586 -6.08399,0 z m 7.60352,0 0,1.75586 3.04101,1.75586 0,-3.51172 -3.04101,0 z m -8.36328,3.07226 -3.04102,1.75586 0,3.511723 3.04102,1.755859 3.04101,-1.755859 0,-3.511723 -3.04101,-1.75586 z m 7.60351,0 -3.04101,1.75586 0,3.511723 3.04101,1.755859 3.04102,-1.755859 0,-3.511723 L 11.4043,3.07226 Z M 0,9.656249 l 0,3.511719 3.04102,0 0,-1.75586 L 0,9.656249 Z m 7.60157,0 -3.04102,1.755859 0,1.75586 6.08399,0 0,-1.75586 -3.04297,-1.755859 z m 7.60351,0.002 -3.04101,1.753906 0,1.75586 3.04101,0 0,-3.509766 z"
         style="opacity:1;fill:#ffffff;fill-opacity:0.36912752;fill-rule:nonzero;stroke:none;stroke-width:9.75;stroke-linecap:round;stroke-miterlimit:4;stroke-dasharray:none;stroke-dashoffset:0;stroke-opacity:1"
         inkscape:connector-curvature="0" />
    </pattern>
    <radialGradient
       inkscape:collect="always"
       xlink:href="#linearGradient6856"
       id="radialGradient6656"
       cx="840.5"
       cy="-168.47122"
       fx="840.5"
       fy="-168.47122"
       r="840"
       gradientTransform="matrix(-0.83289578,0,0,-0.82840209,1540.5489,-64.699789)"
       gradientUnits="userSpaceOnUse" />
    <pattern
       patternUnits="userSpaceOnUse"
       width="19.70703"
       height="17.067104"
       patternTransform="translate(211.74172,-86.56426)"
       id="pattern6683">
      <path
         id="path4790"
         d="M 0,0 0,4.267405 3.69538,2.1337 3.69538,0 0,0 Z m 6.15814,0 0,2.1337 L 9.85352,4.267405 13.5489,2.1337 13.5489,0 6.15814,0 Z m 9.85351,0 0,2.1337 3.69538,2.133705 0,-4.267405 -3.69538,0 z M 4.92803,4.267405 1.23264,6.40111 l 0,4.264879 3.69539,2.133705 3.69286,-2.133705 0,-4.264879 -3.69286,-2.133705 z m 9.85351,0 -3.69538,2.133705 0,4.264879 3.69538,2.133705 3.69285,-2.133705 0,-4.264879 -3.69285,-2.133705 z M 0,12.799694 l 0,4.26741 3.69538,0 0,-2.133704 L 0,12.799694 Z m 9.85352,0 -3.69538,2.133706 0,2.133704 7.39076,0 0,-2.133704 -3.69538,-2.133706 z m 9.85351,0 -3.69538,2.133706 0,2.133704 3.69538,0 0,-4.26741 z"
         style="opacity:1;fill:#ffffff;fill-opacity:0.42281877;fill-rule:nonzero;stroke:none;stroke-width:9.75;stroke-linecap:round;stroke-miterlimit:4;stroke-dasharray:none;stroke-dashoffset:0;stroke-opacity:1"
         inkscape:connector-curvature="0" />
    </pattern>
    <pattern
       patternUnits="userSpaceOnUse"
       width="15.19739"
       height="13.1613"
       patternTransform="translate(263.31159,-49.261779)"
       id="pattern6768">
      <path
         id="rect6704"
         d="m 3.25663,4e-5 0,1.88033 L 0,3.76069 l 0,5.64064 3.25663,1.87998 0,1.87999 1.08543,0 0,-1.87999 3.25663,-1.87998 3.25664,1.87998 0,1.87999 1.08543,0 0,-1.87999 3.25663,-1.87998 0,-5.64202 -0.002,10e-4 -3.25663,-1.87997 0,-1.88034 -1.08543,0 0,1.88034 L 7.5967,3.76031 4.34007,1.88034 4.34007,0 3.25672,0 Z m 0.54065,2.82032 3.25662,1.87998 0,3.76031 -3.25662,1.88033 -3.25629,-1.88033 0,-3.76031 3.25629,-1.87998 z m 7.59868,0 3.25664,1.87998 0,3.76031 -3.25664,1.88033 -3.25662,-1.88033 0,-3.76031 3.25662,-1.87998 z"
         style="opacity:1;fill:#000000;fill-opacity:1;fill-rule:nonzero;stroke:none;stroke-width:9.75;stroke-linecap:round;stroke-miterlimit:4;stroke-dasharray:none;stroke-dashoffset:0;stroke-opacity:1"
         inkscape:connector-curvature="0" />
    </pattern>
    <pattern
       patternUnits="userSpaceOnUse"
       width="15.21207"
       height="13.17395"
       patternTransform="translate(274.64397,-47.474866)"
       id="pattern6851">
      <path
         id="rect6817"
         d="m 2.85234,0 0,1.64689 L 0,3.29379 l 0,6.58698 2.85234,1.64659 0,1.64659 1.90135,0 0,-1.64659 2.85234,-1.64659 2.85234,1.64659 0,1.64659 1.90135,0 0,-1.64659 2.85235,-1.64659 0,-6.58698 -2.85235,-1.6469 0,-1.64689 -1.90135,0 0,1.64689 L 7.60603,3.29379 4.75369,1.64689 4.75369,0 2.85234,0 Z m 0.95068,3.29379 2.85234,1.64659 0,3.29349 -2.85234,1.6469 -2.85235,-1.6469 0,-3.29349 2.85235,-1.64659 z m 7.60603,0 2.85234,1.64659 0,3.29349 -2.85234,1.6469 -2.85234,-1.6469 0,-3.29349 2.85234,-1.64659 z"
         style="opacity:1;fill:#000000;fill-opacity:1;fill-rule:nonzero;stroke:none;stroke-width:9.75;stroke-linecap:round;stroke-miterlimit:4;stroke-dasharray:none;stroke-dashoffset:0;stroke-opacity:1"
         inkscape:connector-curvature="0" />
    </pattern>
    <pattern
       patternUnits="userSpaceOnUse"
       width="15.21207"
       height="13.17395"
       patternTransform="translate(274.64397,-47.474866)"
       id="pattern6869">
      <path
         id="path6862"
         d="m 2.85234,0 0,1.64689 L 0,3.29379 l 0,6.58698 2.85234,1.64659 0,1.64659 1.90135,0 0,-1.64659 2.85234,-1.64659 2.85234,1.64659 0,1.64659 1.90135,0 0,-1.64659 2.85235,-1.64659 0,-6.58698 -2.85235,-1.6469 0,-1.64689 -1.90135,0 0,1.64689 L 7.60603,3.29379 4.75369,1.64689 4.75369,0 2.85234,0 Z m 0.95068,3.29379 2.85234,1.64659 0,3.29349 -2.85234,1.6469 -2.85235,-1.6469 0,-3.29349 2.85235,-1.64659 z m 7.60603,0 2.85234,1.64659 0,3.29349 -2.85234,1.6469 -2.85234,-1.6469 0,-3.29349 2.85234,-1.64659 z"
         style="opacity:1;fill:#444444;fill-opacity:1;fill-rule:nonzero;stroke:none;stroke-width:9.75;stroke-linecap:round;stroke-miterlimit:4;stroke-dasharray:none;stroke-dashoffset:0;stroke-opacity:1"
         inkscape:connector-curvature="0" />
    </pattern>
    <pattern
       patternUnits="userSpaceOnUse"
       width="13.75756"
       height="11.91446"
       patternTransform="translate(301.89954,-48.720119)"
       id="pattern6311">
      <path
         id="rect6251"
         d="m 2.75145,0 0,1.588729 L 0,3.177314 l 0,5.560122 2.75145,1.588575 0,1.588449 1.3758,0 0,-1.588449 2.75146,-1.588575 2.75159,1.588575 0,1.588449 1.37581,0 0,-1.588449 2.75145,-1.588575 0,-5.560122 -2.75145,-1.588585 0,-1.588729 -1.37581,0 0,1.588729 L 6.87871,3.177314 4.12725,1.588729 4.12725,0 2.75145,0 Z m 0.68798,2.780206 2.75145,1.588575 0,3.177178 -2.7516,1.588585 -2.75145,-1.588585 0,-3.177178 2.7516,-1.588575 z m 6.8787,0 2.75146,1.588575 0,3.177178 -2.75146,1.588585 -2.75145,-1.588585 0,-3.177178 2.75145,-1.588575 z"
         style="opacity:1;fill:#ff0f0f;fill-opacity:0.76619717;fill-rule:nonzero;stroke:none;stroke-width:9.75;stroke-linecap:round;stroke-miterlimit:4;stroke-dasharray:none;stroke-dashoffset:0;stroke-opacity:1"
         inkscape:connector-curvature="0" />
    </pattern>
    <pattern
       patternUnits="userSpaceOnUse"
       width="13.75756"
       height="11.91446"
       patternTransform="translate(301.89954,-48.720119)"
       id="pattern6332">
      <path
         id="path6330"
         d="m 2.75145,0 0,1.588729 L 0,3.177314 l 0,5.560122 2.75145,1.588575 0,1.588449 1.3758,0 0,-1.588449 2.75146,-1.588575 2.75159,1.588575 0,1.588449 1.37581,0 0,-1.588449 2.75145,-1.588575 0,-5.560122 -2.75145,-1.588585 0,-1.588729 -1.37581,0 0,1.588729 L 6.87871,3.177314 4.12725,1.588729 4.12725,0 2.75145,0 Z m 0.68798,2.780206 2.75145,1.588575 0,3.177178 -2.7516,1.588585 -2.75145,-1.588585 0,-3.177178 2.7516,-1.588575 z m 6.8787,0 2.75146,1.588575 0,3.177178 -2.75146,1.588585 -2.75145,-1.588585 0,-3.177178 2.75145,-1.588575 z"
         style="opacity:1;fill:#506c7b;fill-opacity:0.76619717;fill-rule:nonzero;stroke:none;stroke-width:9.75;stroke-linecap:round;stroke-miterlimit:4;stroke-dasharray:none;stroke-dashoffset:0;stroke-opacity:1"
         inkscape:connector-curvature="0" />
    </pattern>
    <pattern
       patternUnits="userSpaceOnUse"
       width="15.21207"
       height="13.17395"
       patternTransform="translate(277.64397,-21.836978)"
       id="pattern6349">
      <path
         id="path6347"
         d="m 2.85234,0 0,1.64689 L 0,3.29379 l 0,6.58698 2.85234,1.64659 0,1.64659 1.90135,0 0,-1.64659 2.85234,-1.64659 2.85234,1.64659 0,1.64659 1.90135,0 0,-1.64659 2.85235,-1.64659 0,-6.58698 -2.85235,-1.6469 0,-1.64689 -1.90135,0 0,1.64689 L 7.60603,3.29379 4.75369,1.64689 4.75369,0 2.85234,0 Z m 0.95068,3.29379 2.85234,1.64659 0,3.29349 -2.85234,1.6469 -2.85235,-1.6469 0,-3.29349 2.85235,-1.64659 z m 7.60603,0 2.85234,1.64659 0,3.29349 -2.85234,1.6469 -2.85234,-1.6469 0,-3.29349 2.85234,-1.64659 z"
         style="opacity:1;fill:#000000;fill-opacity:1;fill-rule:nonzero;stroke:none;stroke-width:9.75;stroke-linecap:round;stroke-miterlimit:4;stroke-dasharray:none;stroke-dashoffset:0;stroke-opacity:1"
         inkscape:connector-curvature="0" />
    </pattern>
    <pattern
       patternUnits="userSpaceOnUse"
       width="15.01564"
       height="13.00392"
       patternTransform="translate(109.67497,-18.001961)"
       id="pattern6433">
      <path
         id="path7620"
         d="M 0,0 0,2.88975 2.50259,1.44483 2.50259,0 0,0 Z m 5.00519,0 0,1.44483 2.50268,1.44492 2.50258,-1.44492 0,-1.44483 -5.00526,0 z m 7.50786,0 0,1.44483 2.50259,1.44492 0,-2.88975 -2.50259,0 z M 3.75389,3.61221 1.2513,5.05704 l 0,2.88975 2.50259,1.4449198 2.50259,-1.4449198 0,-2.88975 -2.50259,-1.44483 z m 7.50786,0 -2.50258,1.44483 0,2.88975 2.50258,1.4449198 2.5026,-1.4449198 0,-2.88975 -2.5026,-1.44483 z M 0,10.11417 l 0,2.88975 2.50259,0 0,-1.44492 L 0,10.11417 Z m 7.50787,0 -2.50268,1.44483 0,1.44492 5.00526,0 0,-1.44492 -2.50258,-1.44483 z m 7.50777,0 -2.50259,1.44483 0,1.44492 2.50259,0 0,-2.88975 z"
         style="opacity:1;fill:#ffffff;fill-opacity:1;fill-rule:nonzero;stroke:none;stroke-width:9.75;stroke-linecap:round;stroke-miterlimit:4;stroke-dasharray:none;stroke-dashoffset:0;stroke-opacity:1"
         inkscape:connector-curvature="0" />
    </pattern>
    <pattern
       patternUnits="userSpaceOnUse"
       width="15.01564"
       height="13.00392"
       patternTransform="translate(145.30939,-18.001961)"
       id="pattern6444">
      <path
         inkscape:connector-curvature="0"
         style="display:inline;opacity:1;fill:#000000;fill-opacity:1;fill-rule:nonzero;stroke:none;stroke-width:9.75;stroke-linecap:round;stroke-miterlimit:4;stroke-dasharray:none;stroke-dashoffset:0;stroke-opacity:1"
         d="m 2.50259,0 0,1.44483 L 0,2.88975 l 0,7.22442 2.50259,1.44483 0,1.44492 2.50259,0 0,-1.44492 2.50259,-1.44483 2.50259,1.44483 0,1.44492 2.50268,0 0,-1.44492 2.5026,-1.44483 0,-7.22442 -2.5026,-1.44492 0,-1.44483 -2.50268,0 0,1.44483 L 7.50777,2.88975 5.00518,1.44483 5.00518,0 2.50259,0 Z m 1.25129,3.61221 2.50259,1.44483 0,2.88975 L 3.75388,9.3917098 1.25129,7.94679 l 0,-2.88975 2.50259,-1.44483 z m 7.50787,0 2.50259,1.44483 0,2.88975 -2.50259,1.4449198 -2.50268,-1.4449198 0,-2.88975 2.50268,-1.44483 z"
         id="path6431" />
    </pattern>
  </defs>
  <sodipodi:namedview
     inkscape:window-maximized="1"
     inkscape:window-y="24"
     inkscape:window-x="0"
     inkscape:window-height="701"
     inkscape:window-width="1366"
     width="1680px"
     units="px"
     showgrid="false"
     inkscape:current-layer="layer2"
     inkscape:document-units="px"
     inkscape:cy="566.97887"
     inkscape:cx="1038.3195"
     inkscape:zoom="0.35355339"
     inkscape:pageshadow="2"
     inkscape:pageopacity="0.0"
     borderopacity="1.0"
     bordercolor="#666666"
     pagecolor="#ffffff"
     id="base"
     showguides="false"
     inkscape:guide-bbox="true">
    <sodipodi:guide
       position="-8.0309417e-07,1080"
       orientation="1080,0"
       id="guide4419" />
    <sodipodi:guide
       position="-8.0309417e-07,0"
       orientation="0,1"
       id="guide4421"
       inkscape:label=""
       inkscape:color="rgb(0,0,255)" />
    <sodipodi:guide
       position="1680,0"
       orientation="1,0"
       id="guide4423"
       inkscape:label=""
       inkscape:color="rgb(0,0,255)" />
    <sodipodi:guide
       position="1680.6316,1080"
       orientation="0,1"
       id="guide4425"
       inkscape:label=""
       inkscape:color="rgb(0,0,255)" />
    <sodipodi:guide
       position="373.87122,954.58408"
       orientation="954.10752,0"
       id="guide4874" />
    <sodipodi:guide
       position="373.87122,0.4765625"
       orientation="0,932.25757"
       id="guide4876" />
    <sodipodi:guide
       position="1291.8841,939.03781"
       orientation="-954.10752,0"
       id="guide4878" />
    <sodipodi:guide
       position="1057.918,911.07934"
       orientation="204.56896,0"
       id="guide4559" />
    <sodipodi:guide
       position="1306.1289,706.51038"
       orientation="-204.56896,0"
       id="guide4563" />
    <sodipodi:guide
       position="1057.918,911.07934"
       orientation="0,0"
       id="guide4567" />
    <sodipodi:guide
       position="386.78741,1006.213"
       orientation="1,0"
       id="guide4233" />
    <sodipodi:guide
       position="1033.7901,914.28907"
       orientation="-8.7865495e-08,-1"
       id="guide4249" />
  </sodipodi:namedview>
  <metadata
     id="metadata7">
    <rdf:RDF>
      <cc:Work
         rdf:about="">
        <dc:format>image/svg+xml</dc:format>
        <dc:type
           rdf:resource="http://purl.org/dc/dcmitype/StillImage" />
        <dc:title />
      </cc:Work>
    </rdf:RDF>
  </metadata>
  <g
     inkscape:groupmode="layer"
     id="layer6"
     inkscape:label="background"
     style="display:inline">
    <g
       inkscape:label="background 0"
       inkscape:groupmode="layer"
       id="layer1"
       transform="translate(0,27.637888)"
       style="display:inline;opacity:1">
      <rect
         style="opacity:1;fill:url(#pattern10751);stroke:none"
         width="11.2097"
         height="9.7078943"
         x="998.70251"
         y="-74.069923"
         id="rect10755" />
      <rect
         style="display:inline;opacity:1;fill:#01425f;fill-opacity:1;fill-rule:nonzero;stroke:none;stroke-width:1;stroke-linecap:round;stroke-miterlimit:4;stroke-dasharray:none;stroke-dashoffset:0;stroke-opacity:0.53246753"
         id="rect4427"
         width="1680"
         height="1080"
         x="0.5"
         y="-27.137888" />
      <rect
         id="rect6715"
         y="1091.9301"
         x="1000.7025"
         height="9.7078943"
         width="11.2097"
         style="opacity:1;fill:url(#pattern6822);stroke:none" />
    </g>
    <g
       inkscape:groupmode="layer"
       id="layer5"
       inkscape:label="background 1"
       style="display:inline;opacity:1">
      <rect
         transform="translate(0,27.637888)"
         y="-27.137888"
         x="0.5"
         height="1080"
         width="1680"
         id="rect6325"
         style="display:inline;opacity:1;fill:url(#radialGradient6656);fill-opacity:1;fill-rule:nonzero;stroke:none;stroke-width:1;stroke-linecap:round;stroke-miterlimit:4;stroke-dasharray:none;stroke-dashoffset:0;stroke-opacity:0.53246753" />
    </g>
    <g
       inkscape:groupmode="layer"
       id="layer3"
       inkscape:label="background 2"
       style="display:inline;opacity:0.38800001">
      <rect
         y="0"
         x="0"
         height="1080"
         width="1680"
         id="rect9392"
         style="display:inline;opacity:1;fill:url(#pattern6444);fill-opacity:1;fill-rule:nonzero;stroke:none;stroke-width:1;stroke-linecap:round;stroke-miterlimit:4;stroke-dasharray:none;stroke-dashoffset:0;stroke-opacity:0.53246753" />
    </g>
    <g
       inkscape:groupmode="layer"
       id="layer4"
       inkscape:label="background 3"
       style="display:inline;opacity:0.194">
      <rect
         y="0"
         x="0"
         height="1080"
         width="1680"
         id="rect5005"
         style="display:inline;opacity:1;fill:url(#pattern6451);fill-opacity:1;fill-rule:nonzero;stroke:none;stroke-width:1;stroke-linecap:round;stroke-miterlimit:4;stroke-dasharray:none;stroke-dashoffset:0;stroke-opacity:0.53246753" />
    </g>
  </g>
  <g
     inkscape:groupmode="layer"
     id="layer2"
     inkscape:label="sections"
     style="display:inline">
    <path
       style="opacity:1;fill:#ff0a73;fill-opacity:1;stroke:none;stroke-width:60;stroke-linecap:round;stroke-linejoin:round;stroke-miterlimit:4;stroke-dasharray:none;stroke-opacity:1"
       d="m 828.36606,396.07795 a 144.18987,144.18987 0 0 0 -132.55573,143.6549 144.18987,144.18987 0 0 0 144.19019,144.1892 144.18987,144.18987 0 0 0 53.76918,-10.47992 l 0,-135.8679 -24.02956,0 0,84.05528 a 20.689126,20.689126 0 0 1 -35.2781,14.6648 L 729.19646,531.55092 a 20.689126,20.689126 0 0 1 14.59201,-35.35078 l 84.57759,0 0,-100.12219 z m 41.37408,2.61927 0,97.50292 44.71658,0 a 20.689126,20.689126 0 0 1 20.68707,20.68702 l 0,130.94965 A 144.18987,144.18987 0 0 0 984.18967,539.73285 144.18987,144.18987 0 0 0 869.74014,398.69722 Z m -75.833,138.87701 34.45892,34.28716 0,-34.28716 -34.45892,0 z"
       id="path6718"
       inkscape:connector-curvature="0" />
    <g
       id="g6834"
       transform="matrix(1.4564865,0,0,1.4564865,-800.89736,-17.382682)">
      <g
         transform="matrix(0.59269568,0,0,0.59269568,1126.9562,28.051241)"
         id="g4427">
        <text
           xml:space="preserve"
           style="font-style:normal;font-variant:normal;font-weight:normal;font-stretch:normal;font-size:39.99944687px;line-height:125%;font-family:'Open Sans';-inkscape-font-specification:'Open Sans, Normal';text-align:start;letter-spacing:0px;word-spacing:0px;writing-mode:lr-tb;text-anchor:start;fill:#ff0972;fill-opacity:1;stroke:none;stroke-width:1px;stroke-linecap:butt;stroke-linejoin:miter;stroke-opacity:1"
           x="833.6842"
           y="45.473682"
           id="text4419"
           sodipodi:linespacing="125%"><tspan
             sodipodi:role="line"
             id="tspan4421"
             x="833.6842"
             y="45.473682">H</tspan></text>
        <text
           sodipodi:linespacing="125%"
           id="text4423"
           y="45.580101"
           x="862.35522"
           style="font-style:normal;font-variant:normal;font-weight:normal;font-stretch:normal;font-size:32.4850502px;line-height:125%;font-family:'Open Sans';-inkscape-font-specification:'Open Sans, Normal';text-align:start;letter-spacing:0px;word-spacing:0px;writing-mode:lr-tb;text-anchor:start;fill:#bebebe;fill-opacity:1;stroke:none;stroke-width:1px;stroke-linecap:butt;stroke-linejoin:miter;stroke-opacity:1"
           xml:space="preserve"><tspan
             y="45.580101"
             x="862.35522"
             id="tspan4425"
             sodipodi:role="line">OME</tspan></text>
      </g>
      <g
         id="g4433"
         transform="matrix(0.59269568,0,0,0.59269568,1081.0145,64.597688)">
        <text
           sodipodi:linespacing="125%"
           id="text4435"
           y="45.473682"
           x="833.6842"
           style="font-style:normal;font-variant:normal;font-weight:normal;font-stretch:normal;font-size:39.99944687px;line-height:125%;font-family:'Open Sans';-inkscape-font-specification:'Open Sans, Normal';text-align:start;letter-spacing:0px;word-spacing:0px;writing-mode:lr-tb;text-anchor:start;fill:#ff0972;fill-opacity:1;stroke:none;stroke-width:1px;stroke-linecap:butt;stroke-linejoin:miter;stroke-opacity:1"
           xml:space="preserve"><tspan
             y="45.473682"
             x="833.6842"
             id="tspan4437"
             sodipodi:role="line">P</tspan></text>
        <text
           xml:space="preserve"
           style="font-style:normal;font-variant:normal;font-weight:normal;font-stretch:normal;font-size:32.4850502px;line-height:125%;font-family:'Open Sans';-inkscape-font-specification:'Open Sans, Normal';text-align:start;letter-spacing:0px;word-spacing:0px;writing-mode:lr-tb;text-anchor:start;fill:#bebebe;fill-opacity:1;stroke:none;stroke-width:1px;stroke-linecap:butt;stroke-linejoin:miter;stroke-opacity:1"
           x="855.89575"
           y="45.580101"
           id="text4439"
           sodipodi:linespacing="125%"><tspan
             sodipodi:role="line"
             id="tspan4441"
             x="855.89575"
             y="45.580101">ORTFOLIO</tspan></text>
      </g>
      <g
         transform="matrix(0.59269568,0,0,0.59269568,1110.0267,101.14408)"
         id="g4443">
        <text
           xml:space="preserve"
           style="font-style:normal;font-variant:normal;font-weight:normal;font-stretch:normal;font-size:39.99944687px;line-height:125%;font-family:'Open Sans';-inkscape-font-specification:'Open Sans, Normal';text-align:start;letter-spacing:0px;word-spacing:0px;writing-mode:lr-tb;text-anchor:start;fill:#ff0972;fill-opacity:1;stroke:none;stroke-width:1px;stroke-linecap:butt;stroke-linejoin:miter;stroke-opacity:1"
           x="831.36737"
           y="45.473682"
           id="text4445"
           sodipodi:linespacing="125%"><tspan
             sodipodi:role="line"
             id="tspan4447"
             x="831.36737"
             y="45.473682">R</tspan></text>
        <text
           sodipodi:linespacing="125%"
           id="text4449"
           y="45.580101"
           x="856.65729"
           style="font-style:normal;font-variant:normal;font-weight:normal;font-stretch:normal;font-size:32.4850502px;line-height:125%;font-family:'Open Sans';-inkscape-font-specification:'Open Sans, Normal';text-align:start;letter-spacing:0px;word-spacing:0px;writing-mode:lr-tb;text-anchor:start;fill:#bebebe;fill-opacity:1;stroke:none;stroke-width:1px;stroke-linecap:butt;stroke-linejoin:miter;stroke-opacity:1"
           xml:space="preserve"><tspan
             y="45.580101"
             x="856.65729"
             id="tspan4451"
             sodipodi:role="line">ESUME</tspan></text>
      </g>
      <g
         id="g4453"
         transform="matrix(0.59269568,0,0,0.59269568,1101.3849,137.93356)">
        <text
           sodipodi:linespacing="125%"
           id="text4455"
           y="45.473682"
           x="833.6842"
           style="font-style:normal;font-variant:normal;font-weight:normal;font-stretch:normal;font-size:39.99944687px;line-height:125%;font-family:'Open Sans';-inkscape-font-specification:'Open Sans, Normal';text-align:start;letter-spacing:0px;word-spacing:0px;writing-mode:lr-tb;text-anchor:start;fill:#ff0972;fill-opacity:1;stroke:none;stroke-width:1px;stroke-linecap:butt;stroke-linejoin:miter;stroke-opacity:1"
           xml:space="preserve"><tspan
             y="45.473682"
             x="833.6842"
             id="tspan4457"
             sodipodi:role="line">S</tspan></text>
        <text
           xml:space="preserve"
           style="font-style:normal;font-variant:normal;font-weight:normal;font-stretch:normal;font-size:32.4850502px;line-height:125%;font-family:'Open Sans';-inkscape-font-specification:'Open Sans, Normal';text-align:start;letter-spacing:0px;word-spacing:0px;writing-mode:lr-tb;text-anchor:start;fill:#bebebe;fill-opacity:1;stroke:none;stroke-width:1px;stroke-linecap:butt;stroke-linejoin:miter;stroke-opacity:1"
           x="854.77325"
           y="45.580101"
           id="text4459"
           sodipodi:linespacing="125%"><tspan
             sodipodi:role="line"
             id="tspan4461"
             x="854.77325"
             y="45.580101">ERVICES</tspan></text>
      </g>
    </g>
    <g
       id="g4644"
       transform="matrix(0.78125,0,0,0.78125,364.80802,-445.37258)">
      <rect
         id="rect4620"
         height="200"
         width="246"
         y="20"
         x="20"
         style="fill:#0288d1" />
      <rect
         id="rect4622"
         height="200"
         width="246"
         y="20"
         x="266"
         style="fill:#03a9f4" />
      <rect
         id="rect4624"
         height="200"
         width="246"
         y="20"
         x="512"
         style="fill:#b3e5fc" />
      <rect
         id="rect4626"
         height="200"
         width="246"
         y="20"
         x="758"
         style="fill:#ffffff" />
      <rect
         id="rect4628"
         height="200"
         width="246"
         y="220"
         x="20"
         style="fill:#ff4081" />
      <rect
         id="rect4630"
         height="200"
         width="246"
         y="220"
         x="266"
         style="fill:#212121" />
      <rect
         id="rect4632"
         height="200"
         width="246"
         y="220"
         x="512"
         style="fill:#727272" />
      <rect
         id="rect4634"
         height="200"
         width="246"
         y="220"
         x="758"
         style="fill:#b6b6b6" />
      <text
         id="text4636"
         font-size="24"
         transform="translate(20,500)"
         style="font-size:24px;font-family:Helvetica">Palette generated by Material Palette - materialpalette.com/light-blue/pink</text>
    </g>
    <flowRoot
       xml:space="preserve"
       id="flowRoot4240"
       style="font-style:normal;font-weight:normal;font-size:40px;line-height:125%;font-family:sans-serif;letter-spacing:0px;word-spacing:0px;fill:#000000;fill-opacity:1;stroke:none;stroke-width:1px;stroke-linecap:butt;stroke-linejoin:miter;stroke-opacity:1"><flowRegion
         id="flowRegion4242"><rect
           id="rect4244"
           width="164"
           height="62.228912"
           x="1133"
           y="183" /></flowRegion><flowPara
         id="flowPara4246" /></flowRoot>    <flowRoot
       xml:space="preserve"
       id="flowRoot4248"
       style="font-style:normal;font-weight:normal;font-size:40px;line-height:125%;font-family:sans-serif;letter-spacing:0px;word-spacing:0px;fill:#000000;fill-opacity:1;stroke:none;stroke-width:1px;stroke-linecap:butt;stroke-linejoin:miter;stroke-opacity:1"><flowRegion
         id="flowRegion4250"><rect
           id="rect4252"
           width="162"
           height="60"
           x="1133"
           y="182" /></flowRegion><flowPara
         id="flowPara4254" /></flowRoot>  </g>
</svg>
